{"glyphs":{"0":{"ha":717,"x_min":40,"x_max":700,"o":"m 147 229 q 142 233 147 233 q 135 229 135 233 q 142 225 135 225 q 147 229 147 225 m 565 247 q 561 251 565 251 q 555 247 558 251 q 558 243 551 243 q 565 247 565 243 m 156 333 q 162 338 158 333 q 158 342 165 342 q 151 338 151 342 q 156 333 151 333 m 642 407 q 638 411 642 410 q 632 410 635 413 q 636 406 631 406 q 642 407 642 406 m 157 475 q 151 479 157 479 q 147 475 147 479 q 151 471 147 471 q 157 475 157 471 m 633 490 q 640 492 638 488 q 636 496 643 496 q 633 490 626 496 m 574 519 q 569 526 574 526 q 565 524 565 526 q 567 518 565 521 q 572 515 569 515 q 574 519 574 515 m 169 625 q 165 629 169 629 q 161 625 161 629 q 165 621 161 621 q 169 625 169 621 m 508 781 q 504 785 508 785 q 500 781 500 785 q 504 776 500 776 q 508 781 508 776 m 444 93 q 461 105 451 93 q 479 133 471 117 q 494 164 488 149 q 500 185 500 179 q 505 217 500 200 q 515 253 510 235 q 526 290 521 271 q 531 326 531 308 q 533 381 531 342 q 536 463 536 419 q 533 523 536 494 q 522 567 531 551 q 518 589 518 574 q 513 604 518 601 q 508 617 508 607 q 499 647 508 624 q 477 698 489 671 q 453 748 465 725 q 438 775 442 771 q 432 786 432 781 q 415 810 432 790 q 376 851 399 829 q 331 890 353 872 q 297 908 308 908 q 274 886 289 908 q 245 833 260 864 q 219 770 231 801 q 208 719 208 739 q 207 706 208 710 q 204 698 206 701 q 201 690 203 694 q 200 672 200 685 q 198 652 200 668 q 192 616 196 636 q 187 575 189 596 q 185 538 185 554 q 186 520 185 525 q 190 512 188 515 q 193 503 192 508 q 194 486 194 499 q 196 471 194 476 q 199 463 197 465 q 203 456 201 460 q 204 443 204 451 q 208 426 204 428 q 213 410 213 424 q 217 397 213 399 q 221 385 221 394 q 228 360 221 378 q 258 294 235 343 q 288 240 276 258 q 318 204 300 222 q 328 189 328 194 q 341 173 328 188 q 373 140 354 158 q 412 108 392 122 q 444 93 432 93 m 401 935 q 397 939 401 939 q 393 935 393 939 q 397 931 393 931 q 401 935 401 931 m 40 514 q 42 543 40 533 q 47 560 44 553 q 51 575 49 568 q 53 596 53 582 q 54 610 53 606 q 57 617 56 614 q 60 624 58 621 q 61 635 61 628 q 67 659 61 647 q 78 682 72 671 q 90 704 85 693 q 96 726 96 715 q 104 757 96 740 q 124 790 113 774 q 147 821 135 807 q 164 844 158 835 q 186 870 168 851 q 224 909 204 889 q 260 945 243 929 q 279 961 276 961 q 288 967 282 961 q 303 981 294 974 q 318 994 311 988 q 326 1000 325 1000 q 337 1006 329 1000 q 352 1019 344 1011 q 367 1033 360 1026 q 378 1040 375 1039 q 417 1050 399 1050 q 470 1029 444 1050 q 532 972 496 1008 q 567 935 553 951 q 582 915 582 918 q 590 902 582 910 q 599 890 599 894 q 607 870 599 885 q 625 839 615 856 q 643 808 635 822 q 651 788 651 793 q 656 776 651 779 q 660 763 660 774 q 668 735 660 751 q 676 700 676 718 q 678 688 676 692 q 681 681 679 683 q 683 672 682 678 q 685 656 685 667 q 687 640 685 651 q 692 613 689 628 q 698 581 696 597 q 700 551 700 565 q 693 524 700 533 q 693 507 688 517 q 694 489 699 497 q 690 472 692 485 q 689 444 689 460 q 688 425 689 432 q 685 414 686 418 q 682 406 683 410 q 681 394 681 401 q 676 366 681 382 q 668 339 671 350 q 581 155 640 232 q 443 15 521 78 q 428 2 438 11 q 410 -15 419 -7 q 391 -31 400 -24 q 376 -37 382 -37 q 360 -48 369 -37 q 342 -58 351 -58 q 314 -50 331 -58 q 290 -35 297 -42 q 279 -28 286 -28 q 272 -23 278 -28 q 260 -13 267 -18 q 249 -3 254 -8 q 240 1 243 1 q 228 10 239 1 q 207 31 218 19 q 187 52 196 42 q 178 64 178 63 q 173 72 178 67 q 163 83 168 76 q 152 94 157 89 q 147 101 147 100 q 133 124 147 107 q 103 174 119 140 q 78 236 86 208 q 67 264 72 256 q 61 288 61 272 q 57 303 61 300 q 53 321 53 306 q 51 344 53 324 q 47 393 49 364 q 42 455 44 422 q 40 514 40 488 z "},"1":{"ha":328,"x_min":-24,"x_max":315,"o":"m 142 118 q 148 122 144 118 q 144 126 151 126 q 138 122 138 126 q 142 118 138 118 m 164 139 q 160 143 164 143 q 153 139 157 143 q 157 135 150 135 q 164 139 164 135 m 142 558 q 138 565 142 565 q 133 563 133 565 q 135 557 133 560 q 140 554 138 554 q 142 558 142 554 m 228 585 q 224 590 228 590 q 219 585 219 590 q 224 578 219 578 q 228 585 228 578 m 143 610 q 151 610 146 607 q 149 613 157 613 q 143 610 140 613 m 193 763 q 188 767 193 767 q 183 763 181 767 q 189 758 186 758 q 193 763 193 758 m 261 268 q 262 219 261 238 q 264 188 263 200 q 266 169 265 176 q 267 154 267 163 q 271 142 267 144 q 275 131 275 139 q 279 120 275 128 q 288 104 283 113 q 299 90 293 96 q 306 83 304 83 q 315 75 315 83 q 311 61 315 69 q 301 46 307 53 q 290 33 296 39 q 282 28 285 28 q 272 20 281 28 q 254 4 264 13 q 236 -12 244 -4 q 226 -19 228 -19 q 216 -25 222 -19 q 202 -37 210 -31 q 188 -49 194 -43 q 174 -54 181 -54 q 153 -43 164 -54 q 134 -17 143 -32 q 119 12 125 -3 q 113 33 113 26 q 107 43 113 40 q 105 78 106 43 q 103 170 104 114 q 103 299 103 226 q 103 447 103 372 q 103 595 103 522 q 103 724 103 668 q 105 816 104 781 q 107 851 106 851 q 107 881 117 857 q 98 890 104 888 q 67 892 92 892 q 46 893 53 892 q 34 896 39 894 q 25 899 29 897 q 14 900 21 900 q -11 908 1 900 q -24 925 -24 915 q -5 951 -24 932 q 39 988 14 969 q 88 1022 64 1007 q 121 1036 111 1036 q 156 1031 138 1036 q 193 1025 174 1025 q 226 1031 208 1025 q 254 1038 244 1038 q 258 1010 257 1038 q 261 934 260 982 q 263 824 263 886 q 263 693 263 763 q 263 577 263 636 q 262 463 263 518 q 261 357 261 407 q 261 268 261 307 z "},"2":{"ha":565,"x_min":-40,"x_max":561,"o":"m 363 453 q 360 458 365 458 q 350 450 356 457 q 352 446 343 442 q 363 453 361 450 m 483 861 q 485 857 483 856 q 490 863 488 858 q 494 871 492 867 q 494 875 496 875 q 488 869 492 875 q 483 861 483 864 m 328 957 q 334 963 331 957 q 331 969 338 969 q 325 963 325 969 q 328 957 325 957 m 190 921 q 165 915 179 921 q 137 902 150 910 q 115 885 124 894 q 106 869 106 876 q 102 862 106 868 q 94 849 99 856 q 87 835 90 842 q 83 825 83 829 q 81 811 83 821 q 76 790 79 801 q 68 770 72 779 q 61 758 64 761 q 51 759 58 756 q 29 778 44 763 l 4 800 l 10 818 q 22 836 13 824 q 42 861 31 849 q 63 883 53 874 q 76 892 74 892 q 88 899 79 892 q 107 917 96 906 q 154 959 142 949 q 169 969 167 969 q 176 974 171 969 q 188 985 182 979 q 199 995 193 990 q 206 1000 204 1000 q 218 1007 211 1000 q 233 1018 222 1011 q 255 1031 243 1025 q 280 1042 267 1038 q 304 1047 293 1047 q 324 1051 318 1047 q 344 1053 331 1056 q 425 1024 390 1043 q 490 963 460 1006 q 503 941 496 954 q 516 914 510 928 q 526 889 522 900 q 531 874 531 878 q 533 863 531 874 q 537 835 535 851 q 540 802 539 819 q 542 769 542 785 q 540 753 542 758 q 537 743 539 747 q 533 735 535 739 q 531 724 531 732 q 526 709 531 711 q 522 696 522 707 q 518 683 522 685 q 514 671 514 682 q 510 658 514 667 q 501 639 506 649 q 492 620 496 629 q 488 608 488 611 q 483 597 488 607 q 475 576 479 588 q 467 556 471 565 q 463 544 463 546 q 453 533 463 542 q 444 521 444 525 q 434 502 444 517 q 424 483 424 488 q 416 472 424 478 q 406 460 408 465 q 397 449 404 458 q 381 427 389 439 q 365 405 372 415 q 358 390 358 394 q 348 376 358 386 q 338 361 338 365 q 326 343 338 354 q 311 326 314 332 q 298 304 306 315 q 269 269 290 293 q 251 247 258 257 q 243 235 243 238 q 238 228 243 233 q 228 216 233 222 q 217 205 222 210 q 213 197 213 200 q 207 187 213 194 q 194 172 201 179 q 180 157 186 164 q 172 147 174 150 q 169 137 168 139 q 181 135 169 135 q 192 133 189 135 q 199 131 196 132 q 207 128 203 129 q 219 126 211 126 q 264 122 238 126 q 316 111 290 117 q 364 101 342 106 q 394 96 386 96 q 422 91 410 96 q 447 86 433 86 q 492 105 471 86 q 514 149 513 124 q 522 163 514 163 q 534 157 528 163 q 547 145 540 151 q 557 133 553 139 q 561 124 561 126 q 555 106 561 117 q 546 96 549 96 q 538 90 544 96 q 523 76 531 83 q 508 63 515 69 q 499 57 501 57 q 488 51 496 57 q 472 36 481 46 q 401 -17 444 7 q 300 -40 358 -40 q 235 -35 265 -40 q 178 -22 206 -29 q 124 -8 151 -14 q 67 -3 97 -3 l 33 -3 l 15 -22 q -3 -35 8 -29 q -25 -42 -14 -42 q -40 -25 -40 -42 q -34 -9 -40 -18 q -12 19 -28 0 q 30 69 19 56 q 40 86 40 83 q 45 94 40 88 q 57 107 50 100 q 94 152 76 128 q 132 200 113 176 q 154 224 143 214 q 165 240 165 233 q 176 261 165 250 q 199 288 188 272 q 231 331 213 307 q 254 374 249 354 q 269 405 256 381 q 299 458 283 429 q 328 514 315 488 q 342 549 342 540 q 346 558 342 556 q 350 571 350 561 q 355 590 350 575 q 366 623 360 604 q 377 661 372 642 q 382 696 382 681 q 380 710 382 706 q 375 719 378 715 q 370 727 372 722 q 368 742 368 732 q 367 754 368 750 q 364 761 365 758 q 360 767 363 764 q 357 779 358 771 q 350 803 354 793 q 332 835 346 813 q 324 849 326 842 q 321 857 321 856 q 316 864 321 858 q 303 876 311 869 q 288 888 296 882 q 275 899 281 894 q 238 913 263 906 q 190 921 214 921 z "},"3":{"ha":611,"x_min":0,"x_max":601,"o":"m 503 228 q 510 229 507 225 q 506 233 513 233 q 503 228 496 233 m 514 317 q 515 308 508 308 q 519 317 522 307 q 514 317 518 322 m 511 371 q 504 376 511 376 q 499 371 499 376 q 504 367 499 367 q 511 371 511 367 m 443 904 q 436 908 443 908 q 429 904 429 908 q 436 900 429 900 q 443 904 443 900 m 469 958 q 478 958 472 956 q 475 960 483 960 q 469 958 468 960 m 42 801 q 16 817 32 801 q 0 843 0 832 q 20 877 0 856 q 67 922 40 899 q 123 968 94 946 q 168 1004 151 990 q 233 1038 208 1038 q 247 1042 244 1038 q 260 1047 249 1047 q 275 1042 272 1047 q 296 1038 278 1038 q 325 1031 318 1038 q 350 1025 332 1025 q 364 1021 361 1025 q 378 1017 367 1017 q 396 1014 383 1017 q 425 1008 408 1011 q 460 1003 442 1006 q 493 1000 478 1000 q 521 1006 508 1000 q 544 1019 533 1011 q 567 1032 556 1026 q 592 1038 579 1038 q 600 1035 599 1038 q 601 1024 601 1033 q 597 1008 601 1015 q 578 986 593 1000 q 561 969 568 976 q 554 960 554 963 q 534 937 554 958 q 483 884 514 915 q 417 816 453 853 q 350 748 381 779 q 299 695 319 717 q 279 672 279 674 q 288 669 279 671 q 311 668 297 668 q 333 667 326 668 q 344 664 340 665 q 354 661 349 663 q 374 660 360 660 q 390 658 385 660 q 398 656 394 657 q 405 653 401 654 q 415 651 408 651 q 438 646 424 651 q 467 631 451 640 q 497 610 482 622 q 525 588 513 599 q 545 567 536 576 q 554 554 554 557 q 563 541 554 549 q 571 526 571 533 q 581 501 571 518 q 585 491 583 496 q 589 478 588 486 q 590 455 590 469 q 590 417 590 440 q 590 376 590 392 q 589 351 590 361 q 584 333 588 340 q 575 314 581 325 q 572 307 574 311 q 571 300 571 303 q 555 261 571 289 q 517 206 539 233 q 487 173 510 197 q 439 123 464 149 q 394 77 414 97 q 372 57 374 57 q 363 51 369 57 q 344 38 356 46 q 307 8 322 18 q 288 -3 292 -3 q 279 -8 285 -3 q 265 -18 276 -11 q 239 -32 253 -25 q 213 -44 225 -39 q 197 -50 201 -50 q 176 -55 194 -50 q 143 -60 158 -60 q 128 -55 132 -60 q 115 -50 125 -50 q 83 -36 101 -50 q 47 -3 64 -22 q 17 38 29 17 q 4 74 4 58 q 13 99 4 85 q 29 117 21 114 q 55 134 39 121 q 88 163 71 147 q 120 195 104 179 q 144 219 136 211 q 171 242 158 232 q 186 251 183 251 q 192 242 192 251 q 184 202 192 226 q 176 168 176 178 q 188 132 176 150 q 218 100 200 114 q 256 78 236 86 q 294 69 276 69 q 326 75 310 69 q 356 90 342 81 q 378 110 369 99 q 386 131 386 121 q 393 138 386 135 q 401 148 396 139 q 412 169 407 157 q 421 190 417 181 q 425 204 425 200 q 429 215 425 213 q 433 229 433 218 q 435 242 433 238 q 438 253 436 247 q 440 267 439 258 q 442 293 442 276 q 440 342 442 325 q 435 372 438 360 q 427 392 432 383 q 415 414 422 400 q 407 426 414 418 q 393 442 400 433 q 380 458 386 450 q 374 469 374 465 q 368 475 374 475 q 354 483 361 475 q 314 506 343 494 q 264 526 285 517 q 234 534 253 532 q 193 536 215 536 q 144 535 169 536 q 99 531 119 533 q 51 525 74 528 q 73 549 51 526 q 127 603 94 571 q 197 674 160 636 q 267 745 235 713 q 322 801 300 778 q 343 825 343 824 q 349 833 343 826 q 360 846 354 839 q 372 859 367 853 q 378 867 378 865 q 368 869 378 868 q 344 871 358 871 q 309 874 333 871 q 260 881 285 876 q 216 889 235 885 q 194 897 197 893 q 182 900 193 900 q 172 901 175 900 q 165 904 168 903 q 156 907 161 906 q 140 908 151 908 q 104 900 122 908 q 86 878 86 892 q 78 864 86 875 q 69 847 72 858 q 62 826 65 836 q 54 809 58 817 q 42 801 50 801 z "},"4":{"ha":668,"x_min":4,"x_max":665,"o":"m 489 19 q 483 24 489 24 q 479 17 479 24 q 484 13 479 10 q 489 19 489 17 m 581 71 q 579 78 583 75 q 575 74 575 81 q 581 71 575 64 m 526 208 q 521 213 526 213 q 514 208 514 213 q 521 204 514 204 q 526 208 526 204 m 529 354 q 531 346 524 346 q 535 356 538 346 q 529 354 533 360 m 529 638 q 533 642 536 638 q 526 647 529 647 q 522 643 522 647 q 529 638 522 638 m 119 367 q 63 378 88 372 q 22 389 40 383 q 4 399 4 394 q 18 419 4 407 q 32 439 32 431 q 38 447 32 440 q 51 461 44 454 q 65 475 58 468 q 71 483 71 482 q 76 492 71 485 q 89 507 82 499 q 119 540 106 525 q 132 558 132 556 q 138 570 132 563 q 151 586 143 578 q 164 601 158 594 q 169 613 169 608 q 175 625 169 617 q 188 643 181 633 q 201 661 194 653 q 210 675 207 669 q 225 702 215 686 q 244 735 235 718 q 262 768 254 753 q 269 792 269 783 q 282 824 269 807 q 294 857 294 842 q 299 868 294 867 q 303 881 303 869 q 308 895 303 892 q 313 914 313 899 q 314 930 313 925 q 317 941 315 935 q 319 957 318 947 q 321 986 321 967 l 321 1038 l 340 1038 q 380 1027 351 1038 q 439 1002 408 1017 q 493 972 469 988 q 517 949 517 957 q 509 933 517 943 q 493 914 501 924 q 447 862 458 875 q 436 846 436 849 q 431 838 436 844 q 417 823 425 831 q 404 809 410 815 q 399 800 399 803 q 392 791 399 799 q 379 776 386 783 q 366 761 372 768 q 360 751 360 754 q 355 744 360 750 q 344 733 350 739 q 334 722 339 726 q 329 714 329 717 q 324 704 329 711 q 310 689 318 697 q 297 674 303 681 q 289 665 290 668 q 270 641 285 658 q 238 605 256 624 q 206 569 221 586 q 185 546 190 553 q 169 522 169 528 q 196 514 169 514 q 210 513 206 514 q 217 509 214 511 q 224 506 221 507 q 235 504 228 504 q 259 499 244 504 q 290 490 274 494 q 319 480 306 485 q 342 475 333 475 q 354 471 351 475 q 368 467 357 467 q 379 464 375 467 q 388 460 383 461 q 396 459 392 458 q 407 465 400 460 q 411 473 410 468 q 414 492 413 478 q 415 533 415 506 q 415 610 415 561 q 416 701 415 668 q 419 751 417 733 q 428 776 422 768 q 444 793 433 783 q 478 822 460 806 q 514 855 497 839 q 544 881 531 871 q 560 892 557 892 q 563 884 563 892 q 565 853 564 876 q 565 787 565 829 q 565 675 565 744 l 565 457 l 576 457 q 587 459 579 457 q 604 465 594 461 q 624 470 614 468 q 642 472 633 472 q 656 463 656 472 q 647 446 656 456 q 632 436 638 436 q 619 427 629 436 q 599 406 610 418 q 578 381 588 393 q 567 364 569 369 q 560 321 560 340 q 567 262 560 290 q 576 213 574 233 q 583 186 579 193 q 588 168 588 179 q 598 147 588 161 q 608 128 608 132 q 617 117 608 126 q 638 96 626 107 l 665 68 l 631 36 q 554 -28 563 -28 q 538 -39 547 -28 q 517 -50 528 -50 q 487 -33 504 -50 q 455 8 469 -17 q 430 60 440 32 q 419 110 419 88 q 418 131 419 124 q 415 149 417 139 q 413 175 414 158 q 411 222 411 192 l 411 310 q 383 318 397 317 q 335 319 368 319 q 226 331 275 319 q 135 364 178 342 q 119 367 126 367 z "},"5":{"ha":626,"x_min":10,"x_max":608,"o":"m 558 406 q 554 410 558 410 q 550 406 550 410 q 554 401 550 401 q 558 406 558 401 m 486 594 q 482 600 486 600 q 478 594 478 600 q 482 590 478 590 q 486 594 486 590 m 456 617 q 449 621 456 621 q 444 618 444 621 q 451 613 444 613 q 456 617 456 613 m 154 646 q 163 647 157 646 q 169 650 169 647 q 167 653 169 651 l 163 653 q 151 647 151 653 q 153 646 151 646 l 154 646 m 494 951 q 490 957 494 957 q 483 950 483 957 q 488 947 483 947 q 494 951 494 947 m 388 958 q 386 960 388 960 q 378 953 385 960 q 375 949 375 950 q 374 947 374 949 l 375 949 q 379 951 376 949 q 388 958 388 957 m 263 551 q 246 547 249 551 q 228 543 243 543 q 211 539 214 543 q 199 535 208 535 q 173 525 190 535 q 138 502 156 515 q 104 474 119 489 q 83 449 89 460 q 63 436 76 436 q 39 454 39 436 q 45 479 39 465 q 58 507 51 493 q 72 533 65 521 q 78 551 78 544 q 79 563 78 560 q 82 570 81 567 q 85 579 83 574 q 86 597 86 585 q 92 626 86 606 q 97 664 97 647 q 96 676 97 672 q 92 685 94 681 q 88 694 90 689 q 86 711 86 700 q 82 747 86 726 q 71 788 78 767 q 54 828 64 808 q 33 861 44 849 q 27 871 31 864 q 19 885 24 878 l 10 904 l 29 924 q 53 943 49 943 q 65 951 54 943 q 88 972 75 960 q 133 1015 113 996 q 165 1040 154 1033 q 235 1043 199 1042 q 305 1045 267 1044 q 382 1046 343 1046 q 453 1045 428 1046 q 493 1043 479 1044 q 513 1038 507 1042 q 528 1028 519 1035 q 560 910 560 1000 l 560 878 q 558 838 560 854 q 546 822 556 822 q 532 831 540 822 q 503 853 517 844 q 485 861 490 861 q 474 867 479 861 q 448 871 471 869 q 368 872 425 872 l 267 872 l 242 847 l 239 769 q 235 718 239 739 q 229 681 232 697 q 224 649 226 664 q 221 613 221 633 q 225 604 221 604 q 238 613 228 604 q 251 621 249 621 q 268 631 256 621 q 422 681 336 681 q 442 676 438 681 q 458 672 446 672 q 503 658 481 672 q 545 624 526 644 q 576 581 564 603 q 589 542 589 558 q 590 532 589 535 q 593 526 592 529 q 596 518 594 522 q 597 504 597 514 q 603 482 597 497 q 608 456 608 467 q 603 439 608 443 q 597 414 597 435 q 596 398 597 403 q 593 390 594 393 q 590 383 592 386 q 589 371 589 379 q 584 351 589 364 q 573 324 579 338 q 560 298 567 310 q 549 282 553 286 q 544 276 546 279 q 542 272 542 274 q 535 260 542 268 q 522 244 529 253 q 509 228 515 236 q 503 217 503 221 q 489 196 503 213 q 458 160 475 179 q 424 125 440 140 q 403 110 407 110 q 389 99 401 110 q 361 75 376 88 q 333 51 346 63 q 319 40 321 40 q 306 30 315 40 q 290 19 296 19 q 277 10 285 19 q 265 1 269 1 q 258 -2 264 1 q 247 -9 253 -6 q 235 -16 240 -12 q 229 -19 231 -19 q 217 -28 225 -19 q 203 -37 208 -37 q 169 -47 190 -37 q 133 -57 149 -57 q 72 -32 97 -57 q 47 26 47 -7 q 44 40 47 36 q 42 47 42 43 q 43 53 42 50 q 47 62 46 56 q 47 72 47 68 q 57 98 47 82 q 79 130 67 114 q 104 158 92 146 q 122 169 117 169 q 133 177 125 169 q 150 193 140 185 q 168 209 160 201 q 178 217 176 217 q 188 222 182 217 q 200 231 193 226 q 214 241 207 236 q 226 246 221 246 q 236 242 229 246 q 251 231 243 238 q 264 217 258 225 q 269 204 269 210 q 257 194 269 197 q 225 188 236 190 q 209 182 214 186 q 203 172 204 178 q 201 154 201 165 q 206 128 201 142 q 217 104 210 115 q 231 86 224 93 q 246 79 239 79 q 260 74 249 79 q 282 69 271 69 q 293 74 290 69 q 304 79 296 79 q 347 102 322 79 q 386 154 372 125 q 393 168 390 165 q 399 176 396 171 q 408 191 403 181 q 425 226 414 201 q 435 260 435 246 q 437 274 435 263 q 441 303 439 286 q 444 338 443 319 q 446 372 446 357 q 440 400 446 392 q 435 419 435 408 q 426 445 435 429 q 403 478 417 461 q 374 510 390 494 q 346 532 358 525 q 305 546 331 540 q 263 551 279 551 z "},"6":{"ha":656,"x_min":35,"x_max":654,"o":"m 171 150 q 174 144 171 142 q 174 153 176 147 q 171 150 171 161 m 533 153 q 537 157 540 153 q 531 161 533 161 q 526 157 526 161 q 533 153 526 153 m 569 314 q 565 319 569 319 q 561 314 561 319 q 565 307 561 307 q 569 314 569 307 m 174 363 q 168 367 174 367 q 161 363 161 367 q 168 358 161 358 q 174 363 174 358 m 494 208 q 493 225 494 219 q 490 234 492 231 q 485 242 488 238 q 483 256 483 246 q 479 274 483 271 q 475 286 475 276 q 471 303 475 292 q 460 330 467 315 q 444 360 453 344 q 429 386 436 375 q 415 410 415 404 q 406 422 415 411 q 383 444 396 432 q 355 470 369 457 q 331 490 340 483 q 310 504 322 497 q 286 517 299 511 q 263 526 274 522 q 249 531 253 531 q 235 534 239 531 q 225 538 232 538 q 207 531 218 538 l 193 524 l 194 461 q 201 366 194 406 q 218 314 207 326 q 221 308 219 311 q 222 303 222 306 q 228 279 222 292 q 243 253 235 267 q 260 228 251 240 q 272 206 268 215 q 301 169 281 189 q 349 131 322 149 q 401 100 375 113 q 443 88 426 88 q 456 83 454 88 q 462 84 457 82 q 472 91 467 86 q 480 101 476 96 q 483 110 483 106 q 485 120 483 110 q 490 145 488 131 q 493 177 492 160 q 494 208 494 194 m 454 606 q 450 613 454 613 q 446 610 446 613 q 448 604 446 607 q 452 601 450 601 q 454 606 454 601 m 654 274 q 653 258 654 264 q 649 249 651 253 q 645 241 647 244 q 643 229 643 238 q 639 216 643 218 q 635 204 635 214 q 630 190 635 199 q 619 172 625 181 q 609 157 614 164 q 604 147 604 150 q 579 114 604 142 q 522 56 554 86 q 460 1 490 25 q 421 -24 431 -24 q 411 -31 418 -24 q 390 -46 403 -42 q 361 -50 376 -50 q 327 -47 344 -50 q 294 -38 310 -43 q 266 -28 279 -33 q 244 -22 253 -24 q 226 -11 235 -19 q 211 -3 218 -3 q 170 26 196 -3 q 119 92 144 54 q 76 167 94 129 q 58 224 58 206 q 55 245 58 228 q 47 286 51 263 q 38 338 42 310 q 35 393 35 367 q 40 428 35 421 q 46 443 44 433 q 49 463 47 453 q 53 481 50 472 q 60 494 56 490 q 63 510 63 497 q 67 523 63 521 q 71 536 71 525 q 80 566 71 543 q 101 614 89 589 q 107 628 104 621 q 110 638 110 635 q 119 673 110 654 q 140 710 128 692 q 165 744 153 728 q 182 774 176 761 q 192 786 185 781 q 200 799 200 792 q 208 812 200 804 q 217 824 217 819 q 222 835 217 828 q 233 851 226 843 q 245 866 239 858 q 256 878 251 874 q 285 910 263 886 q 331 960 307 935 q 376 1005 356 985 q 399 1025 397 1025 q 417 1034 403 1025 q 442 1043 432 1043 q 468 1036 456 1043 q 490 1019 481 1029 q 504 998 499 1008 q 510 981 510 988 q 493 974 510 974 q 481 972 485 974 q 474 969 476 971 q 467 967 471 968 q 457 965 464 965 q 423 957 442 965 q 387 936 404 949 q 356 910 369 924 q 338 885 343 896 q 307 835 325 858 q 275 782 289 813 q 253 738 267 764 q 239 693 239 713 q 235 685 239 685 q 227 674 232 685 q 222 656 222 663 q 215 634 222 649 q 208 610 208 619 q 217 600 208 600 q 240 615 228 600 q 261 629 251 629 q 275 638 264 629 q 293 649 281 643 q 319 658 306 654 q 348 665 333 663 q 372 668 363 668 q 388 664 385 668 q 403 660 390 660 q 418 656 408 660 q 439 647 428 653 q 460 635 450 642 q 474 625 469 629 q 486 617 482 617 q 502 604 489 617 q 530 576 515 592 q 557 548 544 561 q 569 532 569 535 q 578 519 569 526 q 588 507 588 513 q 592 495 588 503 q 602 479 597 488 q 612 463 607 471 q 617 447 617 454 q 622 438 617 440 q 626 428 626 436 q 635 403 626 421 q 643 369 643 385 q 645 358 643 368 q 649 334 647 349 q 653 303 651 319 q 654 274 654 288 z "},"7":{"ha":529,"x_min":-46,"x_max":578,"o":"m 238 103 q 233 110 238 110 q 229 103 229 110 q 233 96 229 96 q 238 103 238 96 m 268 606 q 275 608 272 603 q 271 613 278 613 q 268 606 258 613 m 293 624 q 296 632 297 631 q 292 632 294 633 q 288 627 290 631 q 286 621 285 624 q 293 624 289 613 m 186 939 q 193 943 189 939 q 192 947 197 947 q 185 943 189 947 q 186 939 181 939 m 446 951 q 444 958 449 956 q 440 954 440 961 q 446 951 440 944 m 378 872 q 374 878 378 878 q 366 876 371 878 q 355 873 361 875 q 344 871 349 871 q 326 866 328 871 q 307 861 324 861 q 293 860 297 861 q 285 857 289 858 q 276 854 282 856 q 260 853 271 853 q 243 854 249 853 q 234 857 238 856 q 226 860 231 858 q 214 861 222 861 q 191 866 206 861 q 160 876 176 871 q 130 887 144 882 q 107 892 115 892 q 84 900 100 892 q 61 908 68 908 q 43 913 50 908 q 24 913 36 918 q -12 896 -1 901 q -28 886 -24 890 q -40 879 -33 879 q -46 885 -46 879 q -40 895 -46 888 q -26 910 -33 903 q -10 924 -18 918 q 0 931 -3 931 q 9 937 3 931 q 24 950 15 943 q 39 963 32 957 q 47 969 46 969 q 57 977 49 969 q 74 993 65 985 q 92 1009 83 1001 q 101 1017 100 1017 q 108 1020 103 1017 q 121 1028 114 1024 q 141 1036 132 1035 q 182 1038 150 1038 q 238 1030 213 1038 q 289 1013 264 1022 q 340 997 314 1004 q 399 989 367 989 q 497 1018 454 989 q 524 1036 506 1025 q 557 1047 542 1047 q 571 1042 564 1047 q 578 1029 578 1038 q 546 982 578 1015 q 500 930 517 950 q 483 907 483 910 q 478 899 483 906 q 468 883 474 892 q 458 866 463 874 q 453 857 453 858 q 449 853 453 853 q 442 844 447 853 q 431 824 436 835 q 420 805 425 814 q 414 794 415 796 q 408 785 413 793 q 398 767 403 776 q 389 748 393 757 q 385 736 385 739 q 379 716 385 731 q 366 686 374 701 q 352 658 358 671 q 346 643 346 646 q 340 626 344 638 q 331 601 336 614 q 323 576 326 588 q 319 558 319 564 q 315 544 319 547 q 311 528 311 542 q 307 510 311 513 q 303 492 303 508 q 299 473 303 475 q 294 454 294 471 q 292 437 294 443 q 288 424 290 431 q 283 407 285 417 q 281 381 281 397 q 283 329 281 357 q 288 276 285 301 q 294 232 290 251 q 299 206 297 213 q 309 179 301 197 q 326 144 317 161 q 342 113 335 126 q 353 96 350 99 q 363 80 358 92 q 368 58 368 68 q 357 44 368 44 q 349 39 356 44 q 335 27 343 33 q 322 15 328 21 q 314 10 315 10 q 304 3 313 10 q 285 -12 296 -3 q 246 -47 257 -37 q 228 -56 235 -56 q 205 -44 215 -56 q 185 -16 194 -33 q 167 22 176 1 q 147 63 157 43 q 143 79 143 69 q 139 90 143 89 q 124 117 128 97 q 121 165 121 138 q 124 231 121 196 q 132 298 128 267 q 140 352 136 329 q 143 381 143 375 q 152 413 143 396 q 161 439 161 431 q 166 461 161 447 q 176 491 171 475 q 185 521 181 507 q 190 543 190 535 q 195 561 190 551 q 206 581 200 571 q 216 602 211 592 q 221 621 221 613 q 228 640 221 629 q 242 663 235 651 q 257 686 250 675 q 264 706 264 697 q 270 717 264 708 q 283 738 276 726 q 297 758 290 749 q 303 769 303 768 q 309 778 303 771 q 322 796 315 786 q 335 813 329 806 q 342 822 342 821 q 347 833 342 826 q 360 847 353 840 q 372 861 367 854 q 378 872 378 868 z "},"8":{"ha":663,"x_min":14,"x_max":656,"o":"m 221 72 q 211 79 221 79 q 203 76 203 79 q 208 69 204 72 q 217 67 213 67 q 221 72 221 67 m 124 157 q 124 161 126 161 q 119 159 122 161 q 115 155 117 157 q 115 153 114 153 q 124 157 122 153 m 560 178 q 554 182 560 182 q 547 178 547 182 q 554 174 547 174 q 560 178 560 174 m 149 211 q 156 209 158 201 q 147 217 154 217 q 149 211 143 217 m 124 249 q 128 244 128 243 q 128 247 129 244 q 126 254 128 250 q 124 260 125 258 q 117 261 117 265 q 124 249 117 257 m 143 429 q 136 436 143 436 q 131 433 131 436 q 133 426 131 429 q 140 424 136 424 q 143 429 143 424 m 465 528 q 473 526 474 518 q 465 535 472 535 q 465 528 461 535 m 447 78 q 460 85 454 78 q 471 101 465 92 q 479 120 476 110 q 482 136 482 131 q 488 151 482 146 q 492 176 490 154 q 493 222 493 197 q 483 317 493 281 q 446 385 474 354 q 440 396 440 393 q 431 408 440 400 q 422 421 422 417 q 406 441 422 424 q 369 478 389 458 q 333 514 350 497 q 313 531 315 531 q 303 535 310 531 q 290 547 297 540 q 276 558 282 553 q 267 563 269 563 q 254 556 263 563 q 238 542 246 550 q 223 526 229 533 q 217 515 217 518 q 212 503 217 511 q 201 488 207 496 q 191 471 196 479 q 186 456 186 463 q 181 426 186 450 q 175 379 175 403 q 178 347 175 360 q 185 324 181 335 q 195 304 189 314 q 208 281 201 294 q 215 270 210 276 q 226 258 221 264 q 237 245 232 251 q 242 236 242 239 q 247 228 242 235 q 260 214 253 221 q 275 201 268 207 q 283 196 282 196 q 291 191 286 196 q 302 181 296 186 q 314 170 308 175 q 321 165 319 165 q 328 162 324 165 q 338 154 332 158 q 366 130 351 143 q 395 105 381 117 q 424 85 410 93 q 447 78 438 78 m 343 585 q 342 576 340 578 q 347 575 344 574 q 352 580 350 576 q 350 588 354 583 q 343 585 346 592 m 250 692 q 244 694 250 701 q 246 688 242 690 q 250 692 250 685 m 250 786 q 246 797 250 797 q 242 792 242 797 q 244 782 242 786 q 248 777 246 778 q 250 786 250 776 m 396 715 q 403 711 399 715 q 413 703 408 707 q 420 701 417 700 q 424 715 424 703 q 419 744 424 729 q 414 763 414 760 q 409 776 414 768 q 399 792 404 783 q 388 808 393 800 q 383 822 383 817 q 369 845 383 832 q 334 871 354 858 q 292 892 314 883 q 257 900 271 900 q 240 899 243 900 q 240 889 238 897 q 253 858 243 875 q 271 832 263 840 q 281 817 281 822 q 288 807 281 815 q 303 790 294 799 q 319 774 311 781 q 329 767 328 767 q 340 758 331 767 q 362 741 350 750 q 384 724 374 732 q 396 715 394 715 m 83 790 q 92 822 83 804 q 100 843 100 840 q 105 853 100 846 q 115 869 110 861 q 126 885 121 878 q 131 894 131 893 q 144 910 131 896 q 173 940 157 924 q 203 969 189 956 q 218 982 217 982 q 242 999 222 982 q 289 1039 279 1031 q 301 1047 299 1047 q 314 1053 308 1047 q 333 1060 319 1060 q 392 1048 361 1060 q 449 1020 422 1036 q 499 986 476 1004 q 533 956 521 968 q 548 936 540 949 q 563 910 556 924 q 574 886 569 897 q 578 868 578 875 q 583 852 578 860 q 582 839 588 844 q 578 818 578 835 q 573 801 578 804 q 568 789 568 799 q 556 760 568 778 q 513 710 544 742 q 482 677 494 692 q 469 660 469 663 q 485 641 469 658 q 519 604 500 624 q 553 568 538 585 q 568 550 568 551 q 572 544 568 549 q 579 533 575 539 q 593 515 586 525 q 606 494 600 504 q 617 476 613 485 q 621 465 621 468 q 629 444 621 463 q 638 415 638 426 q 642 400 638 404 q 646 376 646 396 q 651 353 646 367 q 656 329 656 340 q 651 315 656 318 q 646 294 646 311 q 638 258 646 275 q 629 231 629 242 q 616 199 629 224 q 592 160 603 174 q 582 140 582 146 q 571 126 582 136 q 560 111 560 115 q 543 92 560 110 q 507 54 526 74 q 470 18 488 35 q 450 1 453 1 q 442 -5 449 1 q 426 -18 435 -11 q 412 -31 418 -25 q 403 -37 406 -37 q 386 -50 399 -37 q 338 -75 364 -75 q 312 -65 326 -75 q 290 -54 297 -54 q 278 -46 286 -54 q 267 -37 271 -37 q 251 -30 260 -37 q 234 -14 243 -22 q 217 2 225 -6 q 200 10 208 10 q 189 21 196 10 q 176 32 182 32 q 167 38 175 32 q 152 51 160 44 q 138 65 144 58 q 128 71 131 71 q 118 78 126 71 q 101 94 110 85 q 85 111 92 103 q 78 121 78 119 q 68 135 78 125 q 56 152 63 140 q 44 178 50 164 q 33 205 39 192 q 21 228 28 218 q 14 258 14 236 q 19 297 14 276 q 30 338 24 318 q 43 371 36 357 q 54 389 50 385 q 61 399 61 396 q 72 415 61 404 q 83 429 83 425 q 107 456 83 432 q 159 509 131 481 q 211 563 188 538 q 235 596 235 589 q 228 600 235 600 q 217 608 226 600 q 197 626 207 617 q 177 643 186 635 q 167 651 168 651 q 158 658 165 651 q 142 672 150 664 q 127 688 133 681 q 121 697 121 696 q 115 707 121 701 q 94 741 104 715 q 83 790 83 767 z "},"9":{"ha":615,"x_min":11,"x_max":610,"o":"m 382 286 q 383 277 376 278 q 388 286 390 276 q 382 286 386 292 m 406 326 q 408 321 406 318 q 408 329 411 324 q 406 326 406 338 m 449 465 q 450 477 449 474 q 453 484 451 481 q 457 493 456 488 q 458 510 458 499 q 456 549 458 526 q 451 590 454 571 q 447 624 449 610 q 444 639 444 638 q 437 665 444 647 q 419 703 429 683 q 399 740 410 722 q 385 763 389 757 q 363 789 378 772 q 331 822 347 806 q 303 849 315 838 q 288 861 290 861 q 274 870 282 861 q 263 879 267 879 q 253 884 260 879 q 238 894 246 889 q 223 903 231 899 q 211 908 215 908 q 194 899 201 908 q 186 878 186 889 q 183 860 186 874 q 177 830 181 847 q 171 794 174 813 q 168 761 168 775 q 173 742 168 746 q 178 724 178 738 q 189 663 178 693 q 216 604 200 632 q 250 554 232 576 q 281 517 268 532 q 294 502 288 508 q 304 496 301 496 q 315 491 308 496 q 329 480 322 486 q 343 467 336 474 q 356 458 350 461 q 390 438 375 449 q 428 428 406 428 q 442 440 435 428 q 449 465 449 453 m 311 58 q 298 39 311 56 q 267 3 285 22 q 231 -31 249 -15 q 207 -46 214 -46 q 183 -38 197 -46 q 155 -19 168 -31 q 133 3 142 -8 q 124 25 124 15 q 151 40 124 40 q 180 47 164 40 q 212 63 196 54 q 240 79 228 71 q 257 92 253 88 q 267 103 261 96 q 279 119 274 111 q 289 135 285 128 q 293 143 293 142 q 303 159 293 149 q 318 181 313 169 q 326 195 321 186 q 338 215 332 204 q 349 234 344 225 q 354 247 354 243 q 342 255 354 250 q 326 260 331 260 q 292 271 315 260 q 246 297 269 282 q 201 327 222 311 q 174 351 181 343 q 163 358 169 358 q 152 366 161 358 q 133 383 143 374 q 116 402 124 393 q 108 413 108 411 q 103 422 108 414 q 92 440 99 429 q 74 467 83 451 q 61 482 68 467 q 47 516 54 497 q 35 551 40 535 q 31 572 31 568 q 26 587 31 583 q 22 608 22 590 q 17 636 22 617 q 11 674 11 656 q 16 697 11 690 q 24 722 21 703 q 42 796 29 771 q 68 853 54 821 q 80 873 72 864 q 88 890 88 882 q 96 902 88 894 q 104 915 104 910 q 115 931 104 919 q 140 955 126 943 q 167 976 154 967 q 185 986 181 986 q 193 992 186 986 q 208 1006 200 999 q 223 1019 215 1013 q 232 1025 231 1025 q 247 1034 239 1025 q 261 1047 254 1043 q 297 1056 274 1056 q 330 1047 315 1056 q 356 1038 344 1038 q 366 1033 358 1038 q 383 1023 374 1028 q 400 1013 392 1018 q 410 1008 408 1008 q 431 991 413 1008 q 472 951 450 974 q 513 908 493 929 q 538 879 533 888 q 552 855 544 869 q 567 826 560 840 q 578 801 574 813 q 582 788 582 790 q 586 777 582 779 q 590 765 590 775 q 600 723 590 758 q 610 632 610 688 q 608 617 610 622 q 606 608 607 613 q 604 598 606 604 q 603 581 603 592 q 601 568 603 572 q 599 560 600 564 q 596 553 597 557 q 594 543 594 550 q 590 530 594 532 q 586 518 586 528 q 581 499 586 513 q 545 427 557 449 q 526 393 533 406 q 510 365 518 381 q 483 313 501 350 q 470 295 479 303 q 461 281 461 288 q 456 269 461 276 q 445 254 451 263 q 433 238 439 246 q 425 226 426 231 q 410 201 417 211 q 397 183 403 192 q 385 166 390 175 q 372 143 379 157 q 360 126 369 138 q 339 103 350 115 q 319 78 328 90 q 311 58 311 65 z "},"\u0000":{"ha":0,"x_min":0,"x_max":0,"o":""},"\r":{"ha":347,"x_min":0,"x_max":0,"o":""}," ":{"ha":382,"x_min":0,"x_max":0,"o":""},"`":{"ha":274,"x_min":44,"x_max":222,"o":"m 63 981 q 55 992 63 985 q 44 1004 47 1000 l 54 1015 q 69 1025 64 1025 q 92 1040 79 1025 q 117 1056 104 1056 q 133 1042 119 1056 q 165 1010 147 1028 q 197 974 182 992 q 215 951 213 957 l 222 938 l 196 913 q 174 895 185 901 q 160 889 164 889 q 142 902 158 889 q 109 931 126 915 q 77 962 92 947 q 63 981 63 976 z "},"'":{"ha":294,"x_min":58,"x_max":232,"o":"m 126 928 q 122 932 126 932 q 118 928 118 932 q 122 924 118 924 q 126 928 126 924 m 225 968 q 215 936 225 958 q 190 892 204 914 q 161 854 176 871 q 138 838 146 838 q 126 831 133 838 q 110 818 118 825 q 95 805 103 811 q 83 799 88 799 q 81 803 81 799 q 84 816 81 807 q 92 834 88 825 q 99 851 96 843 q 103 864 103 860 q 90 920 103 890 q 68 958 78 950 q 58 975 58 968 q 69 994 58 986 q 79 1011 79 1001 q 94 1032 79 1015 q 128 1066 108 1049 q 165 1097 147 1083 q 190 1111 183 1111 q 203 1097 196 1111 q 217 1064 211 1082 q 228 1028 224 1046 q 232 1006 232 1011 q 228 987 232 996 q 225 968 225 978 z "},"!":{"ha":353,"x_min":29,"x_max":322,"o":"m 171 456 q 172 447 165 447 q 176 456 179 446 q 171 456 175 461 m 147 535 q 143 542 147 542 q 139 539 139 542 q 141 533 139 536 q 145 531 143 531 q 147 535 147 531 m 178 556 q 186 556 181 553 q 183 558 192 558 q 178 556 175 558 m 189 883 q 192 888 196 883 q 186 892 189 892 q 176 886 182 892 q 171 876 171 881 q 173 869 171 869 q 178 873 175 869 q 185 880 182 876 q 189 883 188 883 m 218 250 q 209 244 217 250 q 193 230 201 238 q 177 216 185 222 q 167 210 169 210 q 150 219 160 210 q 131 241 140 228 q 114 271 122 254 q 101 303 106 288 q 100 326 101 306 q 98 379 99 346 q 96 456 97 413 q 94 547 94 500 q 92 688 93 633 q 90 774 92 742 q 87 819 89 806 q 82 835 85 832 q 78 846 78 839 q 72 861 78 851 q 59 881 67 871 q 43 901 51 892 q 29 914 35 910 l 49 933 q 71 953 68 953 q 92 966 76 953 q 124 994 107 979 q 157 1024 142 1010 q 178 1038 172 1038 q 200 1018 181 1038 q 224 990 215 1003 q 236 960 232 976 q 241 917 240 943 q 242 851 242 892 q 242 783 242 808 q 246 757 243 758 q 253 742 253 753 q 246 703 253 726 q 239 663 239 681 q 246 642 239 649 q 249 607 249 639 q 251 531 250 575 l 251 424 l 268 390 q 278 372 275 378 q 285 361 282 365 q 292 352 289 357 q 299 339 294 347 l 306 325 l 286 307 q 218 250 225 250 m 186 -51 q 169 -40 182 -51 q 140 -15 156 -28 q 113 10 125 -1 q 99 22 100 22 q 90 27 97 22 q 76 38 83 32 q 63 50 69 44 q 57 57 57 56 q 89 85 75 72 q 112 104 101 96 q 124 113 122 113 q 133 119 126 113 q 147 132 139 125 q 163 145 156 139 q 171 151 169 151 q 188 162 178 151 q 210 172 199 172 q 231 162 221 172 q 247 151 240 151 q 263 140 250 151 q 288 115 275 129 q 312 88 301 100 q 322 71 322 75 q 297 40 322 64 q 218 -31 272 15 q 186 -51 196 -51 z "},"\"":{"ha":482,"x_min":58,"x_max":424,"o":"m 126 928 q 122 932 126 932 q 118 928 118 932 q 122 924 118 924 q 126 928 126 924 m 225 968 q 215 936 225 958 q 190 892 204 914 q 161 854 176 871 q 138 838 146 838 q 126 831 133 838 q 110 818 118 825 q 95 805 103 811 q 83 799 88 799 q 81 803 81 799 q 84 816 81 807 q 92 834 88 825 q 99 851 96 843 q 103 864 103 860 q 90 920 103 890 q 68 958 78 950 q 58 975 58 968 q 69 994 58 986 q 79 1011 79 1001 q 94 1032 79 1015 q 128 1066 108 1049 q 165 1097 147 1083 q 190 1111 183 1111 q 203 1097 196 1111 q 217 1064 211 1082 q 228 1028 224 1046 q 232 1006 232 1011 q 228 987 232 996 q 225 968 225 978 m 356 1094 q 366 1101 360 1094 q 378 1108 372 1108 q 391 1101 385 1108 q 402 1084 397 1094 q 410 1063 407 1074 q 414 1042 414 1051 q 419 1023 414 1035 q 424 1001 424 1011 q 419 988 424 992 q 414 969 414 985 q 410 951 414 963 q 402 928 407 939 q 392 907 397 917 q 382 893 386 897 q 377 888 379 890 q 375 883 375 886 q 369 873 375 881 q 355 858 363 865 q 340 844 347 850 q 329 838 332 838 q 310 824 322 838 q 289 807 297 811 q 275 803 281 803 q 272 806 272 803 q 281 826 272 813 q 289 864 289 843 q 278 922 289 893 q 257 958 267 951 q 250 971 250 964 q 259 991 250 982 q 268 1007 268 1000 q 281 1024 268 1010 q 310 1053 294 1038 q 340 1081 325 1068 q 356 1094 354 1094 z "},"#":{"ha":681,"x_min":1,"x_max":696,"o":"m 147 478 q 140 482 147 482 q 136 481 138 482 l 136 479 q 140 476 136 476 q 147 478 147 476 m 358 519 q 399 524 386 519 q 411 546 411 528 q 402 566 411 557 q 382 575 393 575 q 364 571 371 575 q 342 567 357 567 q 313 547 313 567 q 320 524 313 528 q 358 519 328 519 m 250 671 q 243 675 250 675 q 235 674 238 675 q 231 671 231 672 q 236 669 231 669 q 246 671 243 669 q 250 671 247 671 m 207 772 q 199 776 207 776 q 189 772 189 776 q 199 768 189 768 q 207 772 207 768 m 260 833 q 257 840 260 836 q 251 843 254 843 q 250 840 250 843 q 256 829 250 829 q 260 832 257 829 l 260 833 m 164 296 q 165 329 164 315 q 165 353 165 343 q 156 378 165 374 q 110 382 146 382 l 79 382 q 18 386 35 382 q 1 397 1 390 q 22 420 1 407 q 58 450 43 433 q 78 469 69 461 q 89 476 86 476 q 103 488 93 476 q 118 499 113 499 q 131 507 124 499 q 146 515 139 515 q 161 538 161 515 l 161 543 q 158 556 160 551 q 148 563 156 561 q 125 566 140 565 q 82 567 110 567 l 14 567 q 25 592 17 578 q 42 606 33 606 q 51 613 43 606 q 69 629 60 621 q 86 645 78 638 q 96 653 94 653 q 106 658 99 653 q 121 671 113 664 q 137 686 129 678 q 149 700 144 694 q 158 720 156 711 q 160 756 160 729 q 160 785 160 771 q 164 804 161 800 q 174 817 167 808 q 189 833 181 825 q 204 848 197 842 q 213 854 211 854 q 222 860 215 854 q 236 874 228 867 q 251 887 244 881 q 260 893 258 893 q 280 908 267 893 q 303 922 293 922 q 310 907 307 922 q 315 868 313 892 q 317 817 317 844 q 318 767 318 790 q 318 726 318 743 q 319 707 318 710 q 331 701 322 703 q 364 700 340 700 l 372 700 q 406 703 400 700 q 413 731 413 707 l 413 756 q 422 825 413 796 q 454 865 431 854 q 473 881 460 868 q 492 893 486 893 q 500 898 494 893 q 512 908 506 903 q 524 917 518 913 q 531 922 529 922 q 542 928 538 922 q 554 935 547 935 l 556 935 q 560 932 558 935 q 563 919 563 929 q 565 885 564 908 q 565 821 565 863 l 567 708 l 618 708 q 662 707 647 708 q 683 701 676 706 l 696 694 l 685 682 q 668 669 672 669 q 658 662 667 669 q 640 646 649 654 q 622 630 631 638 q 611 622 614 622 q 603 615 611 622 q 585 599 594 608 q 567 579 575 590 q 558 560 558 568 q 563 551 558 554 q 567 542 567 547 q 578 523 567 526 q 622 519 590 519 l 632 519 q 685 515 683 519 l 685 514 q 677 499 685 510 q 664 489 669 489 q 642 476 660 489 q 606 444 625 463 q 573 406 588 425 q 558 375 558 386 q 563 364 558 368 q 567 351 567 360 q 558 315 567 335 q 550 283 550 294 q 541 267 550 276 q 519 249 532 258 q 495 230 507 239 q 478 214 483 221 q 467 207 474 207 q 458 202 464 207 q 445 192 451 197 q 433 181 439 186 q 422 176 426 176 l 413 176 l 413 276 l 413 306 q 412 353 413 336 q 407 379 411 371 q 395 390 403 388 q 374 392 388 392 q 367 391 371 392 q 360 390 364 390 l 321 390 l 314 378 l 314 374 q 317 345 314 364 q 319 311 319 326 q 315 293 319 296 q 310 278 310 290 q 302 265 310 275 q 284 243 294 254 q 265 224 274 232 q 251 215 256 215 q 241 208 250 215 q 223 192 232 200 q 206 176 214 183 q 196 168 197 168 q 187 163 192 168 q 176 157 182 157 q 171 160 174 157 q 165 188 167 164 q 163 244 163 213 q 163 270 163 257 q 164 296 164 283 z "},"$":{"ha":683,"x_min":1,"x_max":696,"o":"m 343 183 q 336 188 343 188 q 331 183 331 188 q 336 179 331 179 q 343 183 343 179 m 475 249 q 489 259 478 249 q 512 283 500 269 q 533 310 524 296 q 543 332 543 324 q 535 365 543 347 q 514 382 526 382 q 501 387 510 382 q 483 397 493 392 q 464 408 472 403 q 451 413 456 413 q 425 422 443 413 q 394 431 407 431 q 381 388 381 431 q 381 360 381 375 q 382 326 382 344 l 382 267 q 385 229 382 238 q 400 221 388 221 q 419 225 408 221 q 440 235 429 229 q 460 244 450 240 q 475 249 469 249 m 519 503 q 514 507 519 507 q 507 503 507 507 q 514 499 507 499 q 519 503 519 499 m 135 572 q 133 567 133 571 q 136 564 133 564 q 140 568 140 564 l 140 572 q 138 575 140 575 q 135 572 136 575 m 158 582 q 153 589 158 589 q 149 586 149 589 q 151 581 149 583 q 156 578 153 578 q 158 582 158 578 m 190 624 q 194 626 194 624 q 188 632 194 632 q 183 628 183 632 q 190 624 183 624 m 568 814 q 561 818 568 818 q 554 814 554 818 q 561 810 554 810 q 568 814 568 810 m 322 861 l 306 861 q 260 849 285 861 q 213 819 235 838 q 175 778 190 801 q 160 729 160 754 q 165 696 160 708 q 181 674 169 683 q 210 657 192 665 q 254 638 228 649 q 301 624 286 624 q 317 634 314 624 q 319 665 319 644 l 319 721 l 319 746 l 322 861 m 203 347 q 212 322 203 338 q 233 292 221 307 q 255 267 244 278 q 267 257 265 257 q 286 250 278 257 q 308 243 294 243 q 317 244 314 243 l 317 436 l 306 447 q 286 460 296 460 q 274 464 276 460 q 260 468 272 468 q 238 472 250 468 q 214 479 226 475 q 189 487 201 483 q 167 490 176 490 q 133 499 151 490 q 108 507 114 507 q 83 515 99 507 q 51 533 67 522 q 23 558 35 544 q 8 583 11 571 q 4 597 7 589 q 1 608 1 604 q 3 613 1 613 q 7 629 7 615 q 13 656 7 642 q 28 678 18 669 q 34 684 31 681 q 38 690 38 688 q 42 698 38 693 q 51 708 46 703 q 63 718 57 714 q 69 722 68 722 q 84 735 71 722 q 113 762 97 747 q 141 788 128 776 q 156 800 154 800 q 164 806 157 800 q 178 819 171 813 q 193 833 186 826 q 201 839 200 839 q 219 851 204 839 q 263 890 251 879 q 278 900 275 900 q 286 906 281 900 q 299 918 292 911 q 312 933 306 925 q 321 946 318 942 q 326 1004 326 957 l 326 1018 q 329 1054 326 1042 q 346 1067 332 1067 q 369 1045 360 1067 q 378 1006 378 1024 q 380 985 378 990 q 386 979 382 979 q 397 983 390 979 q 413 986 404 986 q 426 988 421 986 q 438 992 432 990 q 454 996 444 994 q 479 997 464 997 q 596 960 550 997 q 642 863 642 922 q 636 833 642 850 q 622 799 631 815 q 604 772 614 783 q 588 761 594 761 q 572 750 585 761 q 542 724 558 739 q 493 679 514 697 q 457 661 472 661 q 446 667 453 661 q 433 681 439 674 q 422 697 426 689 q 417 710 417 706 q 426 726 417 717 q 440 736 435 736 q 467 745 453 736 q 482 771 482 754 q 472 799 482 783 q 449 828 463 814 q 420 851 436 842 q 392 860 404 860 q 379 837 381 860 q 378 744 378 814 l 378 736 l 378 622 l 389 610 q 413 597 401 597 q 476 583 442 597 q 538 563 510 569 q 567 554 557 557 q 588 548 578 551 q 610 538 597 544 q 646 519 622 532 q 676 500 664 510 q 689 483 689 490 q 692 472 689 478 q 696 458 696 465 q 686 422 696 443 q 661 385 676 401 q 622 345 649 369 q 565 297 594 321 q 511 251 536 272 q 478 221 486 229 q 468 213 472 217 q 461 210 464 210 q 447 199 457 210 q 432 188 436 188 q 403 164 426 188 l 378 139 l 378 63 q 377 10 378 29 q 374 -20 376 -10 q 365 -33 371 -31 q 351 -36 360 -36 q 335 -33 342 -36 q 326 -23 329 -31 q 321 -1 322 -15 q 318 36 319 13 l 315 92 l 261 89 l 249 89 q 131 124 161 89 q 124 130 128 128 q 117 132 119 132 q 101 142 111 132 q 79 169 90 153 q 58 201 68 185 q 44 231 49 218 q 39 258 42 242 q 36 290 36 275 q 38 317 36 306 q 43 331 40 328 q 50 342 50 338 q 58 351 50 349 q 82 367 67 354 q 136 414 97 381 q 171 442 158 433 q 193 450 183 450 q 219 435 204 450 q 233 410 233 421 q 228 396 233 404 q 218 379 224 388 q 208 363 213 371 q 203 347 203 354 z "},"%":{"ha":921,"x_min":-10,"x_max":928,"o":"m 225 594 q 221 599 225 597 q 214 597 217 600 q 218 593 213 593 q 225 594 225 593 m 490 763 q 493 757 490 754 q 493 765 496 760 q 490 763 490 774 m 388 783 q 379 790 388 790 q 373 788 374 790 q 374 783 372 786 q 380 778 376 781 q 383 776 383 776 q 388 783 388 776 m 206 788 q 211 766 206 769 q 217 750 217 763 q 241 692 217 722 q 293 633 265 661 l 336 590 l 351 594 q 364 601 361 597 q 368 608 367 604 q 370 618 369 613 q 375 628 371 624 q 381 644 381 633 q 376 670 381 656 q 369 700 371 685 q 363 738 368 722 q 350 767 357 754 q 335 792 343 781 q 321 819 328 804 q 308 835 319 824 q 285 860 297 847 q 261 883 272 872 q 247 893 250 893 q 238 899 243 893 q 229 906 232 906 q 222 894 226 906 q 217 875 217 882 q 215 866 217 875 q 212 844 214 857 q 208 815 210 831 q 206 788 206 800 m 58 725 q 60 744 58 738 q 63 756 61 751 q 65 764 64 760 q 67 775 67 768 q 72 793 67 781 q 85 820 78 806 q 100 847 92 835 q 114 865 108 860 q 126 882 126 878 q 135 894 126 885 q 156 915 144 904 q 177 935 167 926 q 189 944 188 944 q 198 950 192 944 q 213 963 204 956 q 228 976 221 971 q 236 982 235 982 q 248 991 240 982 q 260 1000 256 1000 q 267 1005 261 1000 q 281 1015 274 1010 q 295 1024 289 1019 q 303 1029 301 1029 q 325 1040 311 1029 q 350 1050 339 1050 q 362 1044 357 1050 q 372 1039 367 1039 q 385 1030 378 1039 q 397 1021 392 1021 q 412 1010 400 1021 q 438 985 424 999 q 463 960 451 972 q 474 946 474 949 q 479 935 474 940 q 490 921 483 931 q 503 899 497 911 q 514 874 510 886 q 519 853 518 861 q 522 840 519 850 q 526 815 524 829 q 530 784 528 800 q 532 754 532 768 q 531 737 532 743 q 527 726 529 731 q 522 715 525 721 q 517 701 519 710 q 508 683 514 692 q 491 661 503 674 q 460 631 479 649 q 413 585 442 613 q 359 535 381 554 q 325 504 338 515 q 307 489 313 493 q 299 485 301 485 q 291 480 297 485 q 278 469 285 475 q 265 457 271 463 q 257 451 258 451 q 247 446 253 451 q 235 440 242 440 q 194 467 219 440 q 181 479 188 474 q 171 485 174 485 q 142 502 160 485 q 109 543 125 519 q 81 590 93 567 q 65 625 68 614 q 60 669 63 639 q 58 725 58 700 m 922 1024 q 926 1021 925 1024 q 928 1015 928 1018 q 921 1001 928 1010 q 894 971 914 992 q 875 949 883 958 q 867 936 867 939 q 860 927 867 935 q 845 911 853 919 q 831 895 838 903 q 824 886 824 888 q 818 878 824 885 q 806 865 813 872 q 794 852 800 858 q 789 844 789 846 q 776 828 789 843 q 747 794 763 813 q 717 761 731 776 q 704 744 704 746 q 697 735 704 743 q 681 717 689 726 q 665 700 672 708 q 657 689 657 692 q 651 681 657 688 q 640 668 646 675 q 628 655 633 661 q 622 647 622 649 q 616 637 622 644 q 600 618 610 629 q 526 535 556 568 q 497 500 497 503 q 487 485 497 497 q 447 439 476 472 q 435 424 440 431 q 429 414 429 417 q 422 404 429 413 q 406 387 414 396 q 390 369 397 378 q 382 360 382 361 q 374 344 382 356 q 354 322 365 333 q 333 301 343 311 q 319 286 324 290 q 306 272 315 282 q 285 251 296 263 q 267 228 275 239 q 258 213 258 218 q 252 204 258 211 q 239 190 246 197 q 226 175 232 182 q 219 167 219 168 q 199 141 219 164 q 155 92 179 118 q 109 44 131 65 q 85 22 88 22 q 75 16 82 22 q 58 1 68 10 q 13 -38 28 -26 q -6 -50 -3 -50 q -9 -46 -10 -50 q -6 -36 -8 -42 q 1 -26 -3 -31 q 4 -19 4 -21 q 11 -10 4 -18 q 26 7 18 -1 q 40 23 33 15 q 47 32 47 31 q 53 42 47 35 q 68 60 60 50 q 183 196 128 126 q 293 328 238 265 q 319 358 308 344 q 331 372 331 371 q 338 383 331 374 q 356 403 344 392 q 408 465 408 460 q 415 476 408 467 q 432 496 421 485 q 488 561 457 524 q 544 626 519 599 q 563 647 556 638 q 571 660 571 657 q 578 669 571 661 q 594 687 586 678 q 610 705 603 696 q 618 715 618 714 q 623 723 618 718 q 633 734 628 728 q 642 746 638 740 q 647 753 647 751 q 656 768 647 758 q 674 789 664 778 q 695 810 685 800 q 710 825 706 819 q 731 847 715 831 q 767 886 746 864 q 813 933 789 908 q 859 977 838 957 q 898 1010 881 997 q 922 1024 915 1024 m 472 176 q 478 179 475 176 q 481 184 481 182 q 480 187 482 186 q 474 182 478 188 q 472 176 468 176 m 747 263 q 742 267 747 267 q 738 263 735 267 q 743 258 740 258 q 747 263 747 258 m 747 279 q 743 283 747 283 q 738 279 740 283 q 742 275 735 275 q 747 279 747 275 m 575 406 q 563 398 569 406 q 549 379 556 390 q 540 356 543 368 q 536 338 536 344 q 541 307 536 322 q 546 283 546 292 q 556 248 546 269 q 581 207 567 226 q 610 174 596 188 q 631 160 624 160 q 642 153 638 160 q 655 142 646 149 q 674 128 664 135 q 694 117 685 122 q 707 113 703 113 q 722 122 718 113 q 726 147 726 132 q 724 178 726 163 q 718 207 721 193 q 710 239 714 224 q 707 250 710 243 q 701 265 704 257 q 693 278 697 272 q 686 288 689 285 q 681 293 683 290 q 679 297 679 296 q 638 351 657 328 q 603 389 619 372 q 575 406 586 406 m 593 -33 q 564 -23 581 -33 q 532 1 547 -12 q 502 24 517 14 q 479 35 488 35 q 469 42 478 35 q 453 58 461 49 q 438 75 444 67 q 431 85 431 83 q 421 103 431 93 q 404 126 411 113 q 392 163 396 144 q 388 207 388 181 q 397 265 388 238 q 432 324 407 292 q 499 397 457 357 q 604 492 540 436 q 637 517 619 506 q 657 528 654 528 q 672 537 664 528 q 693 546 679 546 q 707 544 700 546 q 723 535 714 542 q 744 517 732 528 q 775 486 757 506 q 819 440 806 456 q 838 410 832 425 q 848 396 842 399 q 854 383 854 393 q 861 361 854 374 q 868 339 868 349 q 869 326 868 331 q 872 318 871 322 q 874 307 872 314 q 875 288 875 300 q 860 203 875 235 q 815 146 844 171 q 781 115 804 136 q 733 72 757 93 q 643 -10 672 14 q 593 -33 614 -33 z "},"&":{"ha":967,"x_min":10,"x_max":976,"o":"m 206 21 q 203 26 206 26 q 199 24 200 25 q 196 20 197 21 q 194 17 194 19 q 199 14 194 14 q 206 21 206 14 m 286 54 q 283 57 286 57 q 274 50 281 57 q 271 46 271 44 q 272 44 271 44 q 280 47 275 44 q 286 51 285 49 l 286 54 m 376 58 q 375 65 376 65 q 371 61 374 65 l 371 58 q 374 54 371 54 q 376 58 376 54 m 201 58 q 197 65 201 65 q 192 58 192 65 q 197 53 192 53 q 201 58 201 53 m 519 93 l 521 93 q 524 92 524 92 q 528 93 526 92 q 529 93 528 93 l 528 94 l 525 94 q 519 93 519 94 m 201 118 q 204 111 201 114 q 210 108 207 108 q 213 111 213 108 q 207 117 213 113 q 201 119 201 119 l 201 118 m 411 344 q 407 349 411 349 q 403 344 403 349 q 407 339 403 339 q 411 344 411 339 m 349 456 q 347 450 347 454 q 350 447 347 447 q 354 451 354 447 l 354 456 q 351 458 354 458 q 349 456 350 458 m 397 94 q 425 101 408 94 q 442 115 442 108 q 433 126 442 121 q 424 139 424 131 q 417 151 424 143 q 404 167 411 158 q 391 183 397 175 q 385 196 385 192 q 372 213 385 200 q 360 229 360 225 q 346 251 360 235 q 319 290 331 271 q 288 344 307 308 q 276 358 283 353 q 269 371 269 364 q 260 388 269 378 q 247 406 250 397 q 242 418 246 410 q 232 436 238 426 q 222 453 226 446 q 213 460 217 460 q 201 453 208 460 q 189 438 194 447 q 179 417 183 428 q 175 400 175 407 q 169 379 175 386 q 163 357 163 372 q 169 316 163 339 q 184 272 175 293 q 202 235 193 251 q 215 215 211 219 q 222 206 222 208 q 230 195 222 204 q 247 176 238 186 q 266 159 257 167 q 276 151 275 151 q 301 138 286 151 q 335 115 315 125 q 397 94 375 94 m 306 897 q 292 886 294 897 q 289 861 289 875 q 294 808 289 836 q 300 776 300 781 q 308 743 300 761 q 317 710 317 725 q 323 687 317 701 q 338 658 329 672 q 355 633 346 643 q 368 622 364 622 q 384 632 374 622 q 394 646 394 642 q 405 669 394 653 q 415 696 415 685 q 420 713 415 703 q 425 733 425 724 q 420 744 425 742 q 415 758 415 747 q 408 792 415 775 q 389 821 400 810 q 376 840 376 836 q 372 849 376 843 q 360 860 367 854 q 347 870 353 865 q 339 875 342 875 q 323 886 331 875 q 306 897 315 897 m 131 754 q 135 779 131 775 q 140 799 140 783 q 146 829 140 814 q 160 858 151 844 q 176 885 168 872 q 190 910 185 899 q 197 919 192 914 q 207 931 201 925 q 218 940 213 936 q 225 944 224 944 q 234 950 228 944 q 248 963 240 956 q 263 976 256 971 q 271 982 269 982 q 286 992 274 982 q 313 1016 299 1003 q 340 1040 328 1029 q 354 1053 353 1051 q 382 1060 368 1060 q 432 1044 408 1060 q 463 1019 456 1028 q 472 1013 467 1013 q 486 1002 475 1013 q 509 978 497 992 q 530 953 521 965 q 539 938 539 942 q 550 905 539 928 q 561 865 561 882 q 565 842 561 842 q 571 829 571 842 q 566 802 571 818 q 554 771 561 786 q 540 748 549 760 q 516 719 532 736 q 474 678 500 703 q 408 617 449 654 q 383 590 390 600 q 376 574 376 581 q 385 555 376 564 q 404 526 393 546 q 431 476 419 494 q 453 443 442 457 q 475 411 467 424 q 483 396 483 399 q 491 385 483 392 q 501 372 499 378 q 513 351 506 361 q 540 317 521 340 q 553 299 553 301 q 558 290 553 297 q 571 276 564 283 q 585 264 578 269 q 593 258 592 258 q 606 268 596 258 q 628 289 617 278 q 650 311 640 300 q 660 324 660 322 q 667 333 660 325 q 681 350 674 340 q 696 369 689 360 q 703 385 703 379 q 694 390 703 390 q 683 397 690 390 q 666 410 675 403 q 649 423 657 417 q 638 429 642 429 q 625 438 636 429 q 600 459 614 447 q 575 480 586 471 q 563 489 564 489 q 548 497 558 489 q 526 513 538 504 q 506 528 515 521 q 492 536 496 536 q 475 546 488 536 l 463 554 l 471 565 q 485 575 481 575 q 495 581 488 575 q 514 597 503 588 q 547 625 531 613 q 594 664 563 638 q 615 674 607 674 q 660 654 629 674 q 725 604 690 635 q 749 588 742 588 q 756 583 751 588 q 767 573 761 578 q 779 563 774 568 q 786 558 785 558 q 801 549 792 558 q 824 529 811 540 q 851 508 836 518 q 881 499 867 499 q 895 494 886 499 q 911 490 904 490 q 918 493 915 490 q 935 499 924 499 q 942 501 936 499 q 956 506 949 503 q 969 512 964 510 q 976 514 975 514 q 970 503 976 511 q 956 488 964 496 q 942 474 949 481 q 932 468 935 468 q 922 460 931 468 q 904 444 914 453 q 887 428 894 436 q 876 421 879 421 q 854 404 871 421 q 815 376 838 388 q 772 363 793 365 l 750 360 l 685 293 q 621 218 621 226 q 629 200 621 211 q 644 189 638 189 q 656 181 646 189 q 676 162 665 172 q 698 142 688 151 q 710 133 708 133 q 728 126 717 133 q 755 110 740 118 q 786 94 769 101 q 819 86 803 86 q 844 97 831 86 q 871 121 858 107 q 892 150 883 135 q 900 174 900 165 q 906 206 900 197 q 918 215 911 215 q 935 207 926 215 q 953 188 944 199 q 967 163 961 176 q 972 140 972 150 q 966 124 972 133 q 951 104 960 114 q 935 88 943 94 q 924 82 926 82 q 915 76 922 82 q 899 63 907 69 q 885 49 892 56 q 876 43 878 43 q 856 28 874 43 q 822 -1 838 14 q 805 -14 817 -7 q 781 -27 793 -21 q 757 -37 768 -33 q 739 -42 746 -42 q 723 -47 733 -42 q 703 -51 713 -51 q 690 -47 693 -51 q 672 -42 688 -42 q 654 -37 657 -42 q 640 -33 651 -33 q 628 -29 631 -33 q 618 -25 625 -25 q 604 -20 613 -25 q 588 -10 596 -15 q 572 1 579 -4 q 560 6 564 6 q 549 14 558 6 q 530 31 540 22 q 510 49 519 40 q 499 57 501 57 q 493 63 493 57 q 479 79 493 79 q 464 76 472 79 q 448 68 456 72 q 434 60 440 64 q 426 57 428 57 q 414 50 424 57 q 393 34 404 43 q 372 17 382 25 q 358 8 363 10 q 328 -12 344 1 q 293 -25 313 -25 q 270 -30 292 -25 q 231 -35 249 -35 q 214 -30 224 -35 q 194 -19 204 -25 q 176 -8 185 -12 q 160 -3 167 -3 q 153 2 158 -3 q 141 12 147 7 q 129 22 135 17 q 121 26 124 26 q 108 37 118 26 q 88 60 99 47 q 68 84 76 72 q 60 99 60 96 q 53 108 60 104 q 44 122 49 111 q 36 144 40 132 q 26 169 32 157 q 15 188 21 181 q 10 213 10 194 q 26 308 10 265 q 71 375 42 351 q 81 388 81 382 q 97 407 81 389 q 134 447 114 425 q 171 488 154 469 q 188 508 188 507 q 182 535 188 521 q 169 563 176 549 q 156 592 161 578 q 150 621 150 607 q 145 637 150 635 q 140 653 140 639 q 139 665 140 654 q 135 690 138 675 q 132 723 133 706 q 131 754 131 740 z "},"(":{"ha":425,"x_min":26,"x_max":456,"o":"m 311 -206 q 305 -200 310 -200 q 297 -203 300 -200 q 294 -208 294 -206 q 301 -211 294 -211 q 311 -206 314 -211 m 339 -58 q 343 -54 346 -58 q 338 -50 340 -50 q 333 -54 333 -50 q 339 -58 333 -58 m 261 61 q 257 67 261 67 q 253 64 253 67 q 255 59 253 61 q 259 57 257 57 q 261 61 261 57 m 179 232 q 181 223 174 224 q 185 232 188 222 q 179 232 183 238 m 147 257 q 153 261 150 257 q 150 265 157 265 q 143 261 143 265 q 147 257 143 257 m 126 492 q 122 498 126 494 q 118 494 118 501 q 122 489 118 489 q 126 492 126 489 m 57 497 q 58 488 51 489 q 63 497 65 488 q 57 497 61 503 m 47 181 q 44 207 47 189 q 37 251 40 225 q 30 308 33 276 q 26 375 26 340 q 27 430 26 403 q 28 480 28 457 q 31 518 29 503 q 33 535 32 533 q 45 567 40 543 q 54 616 50 590 q 63 662 58 642 q 72 682 68 682 q 76 690 76 682 q 85 713 76 697 q 93 735 93 728 q 97 746 93 738 q 105 763 100 754 q 116 782 110 772 q 126 797 122 792 q 135 814 135 808 q 143 826 135 819 q 151 839 151 833 q 156 847 151 842 q 167 859 161 853 q 177 871 172 865 q 182 878 182 876 q 193 892 182 881 q 219 919 204 904 q 246 944 233 933 q 260 956 258 956 q 269 961 263 956 q 283 974 275 967 q 297 988 290 982 q 306 993 304 993 q 315 999 308 993 q 331 1013 322 1004 q 378 1055 364 1044 q 403 1072 392 1065 q 422 1081 418 1079 q 425 1076 425 1082 q 421 1068 425 1074 q 412 1058 417 1063 q 402 1049 407 1053 q 394 1044 397 1044 q 380 1033 393 1044 q 351 1006 367 1021 q 324 978 336 990 q 313 963 313 965 q 308 954 313 961 q 297 939 303 947 q 287 923 292 931 q 282 914 282 915 q 275 898 282 910 q 259 872 268 886 q 243 845 250 858 q 236 826 236 832 q 226 801 236 821 q 215 767 215 782 q 211 754 215 757 q 207 740 207 751 q 206 727 207 732 q 201 717 204 722 q 197 702 199 711 q 192 674 194 693 q 189 658 190 665 q 185 649 188 651 q 183 634 183 647 q 181 600 182 621 q 180 553 181 579 q 179 500 179 528 q 180 447 179 474 q 181 401 181 421 q 183 367 182 381 q 185 353 183 354 q 191 334 189 347 q 194 308 193 321 q 197 284 196 294 q 203 274 199 274 q 207 264 207 274 q 211 250 207 253 q 215 233 215 247 q 219 218 215 221 q 224 207 224 215 q 230 188 224 200 q 236 169 236 176 q 244 152 236 163 q 253 136 253 142 q 271 89 253 111 q 297 46 289 67 q 307 32 300 42 q 322 12 314 22 q 335 -7 329 1 q 342 -19 342 -15 q 347 -28 342 -21 q 360 -42 353 -35 q 374 -58 368 -50 q 379 -67 379 -65 q 386 -75 379 -72 q 401 -86 390 -76 q 425 -108 413 -96 q 447 -130 438 -119 q 456 -143 456 -140 q 449 -154 456 -146 q 433 -171 442 -162 q 417 -186 425 -179 q 407 -193 410 -193 q 399 -199 406 -193 q 384 -212 392 -206 q 369 -226 376 -219 q 361 -232 363 -232 q 341 -245 354 -232 q 319 -258 328 -258 q 293 -246 308 -258 q 247 -204 278 -233 q 214 -169 225 -182 q 196 -148 203 -157 q 182 -128 189 -139 q 160 -97 175 -118 q 136 -60 150 -85 q 108 -5 122 -35 q 83 58 94 25 q 65 118 71 90 q 55 147 63 132 q 47 181 47 161 z "},")":{"ha":426,"x_min":-32,"x_max":400,"o":"m 368 326 q 364 332 368 332 q 360 326 360 332 q 364 319 360 319 q 368 326 368 319 m 308 326 q 304 332 308 332 q 300 326 300 332 q 304 319 300 319 q 308 326 308 319 m 275 554 q 282 556 279 551 q 278 560 285 560 q 275 554 268 560 m 246 590 q 240 593 246 600 q 242 586 238 589 q 246 590 246 583 m 169 757 q 164 761 169 771 q 165 751 161 757 q 169 757 169 746 m 94 875 q 88 879 94 879 q 82 875 82 879 q 88 871 82 871 q 94 875 94 871 m 132 1028 q 122 1031 132 1031 q 113 1027 113 1031 q 117 1021 113 1024 q 126 1019 121 1018 q 132 1028 132 1019 m 253 365 q 251 393 253 385 q 248 408 250 401 q 244 420 246 414 q 242 442 242 426 q 240 459 242 454 q 238 468 239 464 q 235 477 236 472 q 233 493 233 482 q 232 507 233 503 q 229 514 231 511 q 226 520 228 517 q 225 531 225 524 q 221 544 225 542 q 217 558 217 547 q 213 571 217 569 q 208 582 208 572 q 198 615 208 594 q 188 644 188 635 q 180 678 188 660 q 162 713 172 696 q 140 747 151 731 q 124 775 129 763 q 110 794 118 786 q 103 810 103 803 q 92 825 103 815 q 82 840 82 835 q 64 860 82 842 q 25 901 46 879 q -14 941 4 922 q -32 961 -32 960 q -25 972 -32 964 q -8 990 -18 981 q 10 1006 1 999 q 19 1014 18 1014 q 37 1024 24 1014 q 64 1048 50 1035 q 91 1072 78 1061 q 108 1082 104 1082 q 146 1058 121 1082 q 197 1002 171 1033 q 243 943 222 971 q 268 908 264 915 q 294 864 279 892 q 321 808 308 836 q 342 756 333 779 q 351 724 351 732 q 356 712 351 714 q 360 699 360 710 q 364 685 360 688 q 368 671 368 682 q 369 663 368 665 q 372 657 371 660 q 375 651 374 654 q 376 640 376 647 q 381 622 376 624 q 385 603 385 619 q 386 591 385 596 q 389 583 388 586 q 391 567 389 583 q 395 525 393 551 q 399 466 397 499 q 400 400 400 433 q 397 326 400 358 q 388 264 394 293 q 374 205 382 235 q 353 138 365 175 q 340 108 346 117 q 335 89 335 99 q 329 67 335 79 q 316 42 324 54 q 300 17 308 29 q 286 -4 292 6 q 265 -35 282 -14 q 228 -79 247 -57 q 192 -118 208 -101 q 172 -135 175 -135 q 164 -140 171 -135 q 149 -153 157 -146 q 135 -167 142 -161 q 126 -172 129 -172 q 118 -178 125 -172 q 103 -192 111 -185 q 88 -205 94 -199 q 79 -211 82 -211 q 64 -219 74 -211 q 44 -237 54 -228 q 23 -256 33 -247 q 6 -264 13 -264 q 0 -258 0 -264 q 13 -240 0 -251 q 29 -228 25 -228 q 44 -215 32 -228 q 72 -188 57 -203 q 99 -160 88 -174 q 111 -144 111 -147 q 119 -133 111 -140 q 128 -121 128 -125 q 132 -113 128 -119 q 142 -99 136 -107 q 165 -62 151 -85 q 189 -16 178 -40 q 208 33 200 8 q 217 78 217 57 q 221 92 217 89 q 225 106 225 94 q 226 116 225 113 q 229 122 228 119 q 232 129 231 125 q 233 143 233 133 q 235 159 233 154 q 238 167 236 164 q 240 176 239 171 q 242 193 242 181 q 244 213 242 194 q 248 257 246 231 q 251 313 250 283 q 253 365 253 342 z "},"*":{"ha":356,"x_min":44,"x_max":311,"o":"m 61 750 q 51 757 51 750 q 58 769 51 761 q 83 796 65 776 l 119 833 l 100 850 q 75 871 81 867 q 67 875 69 875 q 55 883 63 875 q 44 894 47 890 l 56 906 q 65 921 65 915 q 82 937 65 929 q 117 944 99 944 q 144 955 138 944 q 151 982 151 965 q 158 994 151 989 q 164 1006 164 1000 q 174 1020 164 1011 q 188 1029 183 1029 q 200 1038 192 1029 q 211 1047 208 1047 q 221 1024 217 1047 q 225 972 225 1000 q 232 932 225 932 q 244 936 236 932 q 261 946 251 940 q 278 957 271 951 q 290 964 286 963 q 305 968 303 969 q 306 963 307 967 q 301 953 304 958 q 297 946 297 949 q 288 935 297 944 q 267 913 278 925 q 246 890 256 901 q 236 872 236 879 q 244 867 236 867 q 259 856 250 867 q 274 846 268 846 q 287 837 279 846 q 300 828 294 828 q 311 821 311 828 q 303 797 311 808 q 283 778 294 786 q 258 765 271 769 q 238 760 246 760 l 221 760 l 221 735 q 218 717 221 724 q 212 707 215 711 q 206 699 208 703 q 203 689 203 694 q 196 681 203 688 q 181 667 189 674 q 164 654 172 660 q 153 649 156 649 q 144 665 146 649 q 143 725 143 682 q 142 777 143 756 q 140 799 142 799 q 128 791 138 799 q 106 774 118 783 q 82 758 94 765 q 61 750 69 750 z "},"+":{"ha":699,"x_min":28,"x_max":721,"o":"m 368 449 q 364 454 368 454 q 361 450 361 454 q 364 443 361 443 q 368 447 367 443 l 368 449 m 404 460 q 400 464 404 464 q 396 460 396 464 q 400 456 396 456 q 404 460 404 456 m 224 456 q 218 463 224 463 q 215 458 215 463 q 219 451 215 451 q 224 456 224 451 m 85 388 q 38 390 49 388 q 28 399 28 392 q 47 424 28 413 q 76 447 67 436 q 97 464 93 464 q 107 469 100 464 q 122 483 114 475 q 141 501 133 494 q 159 511 149 508 q 185 515 169 514 q 226 515 200 515 l 229 515 q 274 516 258 515 q 296 522 289 517 q 304 538 303 528 q 306 568 306 549 q 310 601 306 594 q 314 621 314 608 q 320 642 314 632 q 335 659 326 651 q 354 673 344 667 q 369 685 364 679 q 385 696 381 696 q 397 703 388 696 q 416 719 406 711 q 436 735 426 728 q 451 743 446 743 q 458 729 457 743 q 460 682 460 715 l 460 636 q 460 578 460 599 q 462 547 461 558 q 465 533 463 536 q 469 525 467 529 q 477 519 474 521 q 493 517 481 518 q 530 515 506 515 q 600 515 554 515 q 695 515 669 515 q 721 507 721 514 q 706 490 721 504 q 674 459 692 475 q 641 430 657 443 q 621 417 625 417 q 602 406 615 417 q 582 396 589 396 q 559 392 568 396 q 518 388 550 388 l 496 388 q 465 383 471 388 q 458 358 458 378 q 459 340 458 350 q 460 314 460 329 q 457 255 460 274 q 449 227 454 236 q 433 213 443 218 q 408 193 424 207 q 397 181 401 186 q 389 176 392 176 q 367 160 383 176 q 318 119 329 119 q 308 135 310 119 q 306 186 306 151 l 306 251 q 304 350 306 321 q 300 382 303 379 q 267 386 297 385 q 163 388 236 388 l 85 388 z "},",":{"ha":382,"x_min":49,"x_max":322,"o":"m 215 90 q 219 95 222 90 q 213 100 215 100 q 208 96 208 100 q 215 90 208 90 m 235 144 q 236 150 238 146 q 231 157 235 154 q 225 160 228 160 q 222 153 222 160 q 226 144 222 146 q 235 144 231 142 m 144 147 q 143 158 144 157 q 140 157 142 160 q 138 149 139 154 q 140 142 138 144 q 144 147 144 138 m 192 261 q 200 258 196 261 q 207 254 204 254 q 226 238 210 254 q 262 202 243 222 q 297 163 281 182 q 315 138 313 144 q 322 106 322 121 q 311 61 322 83 q 285 29 306 50 q 241 -15 265 8 q 192 -60 217 -37 q 150 -96 167 -82 q 134 -109 136 -108 q 132 -101 132 -110 q 140 -83 132 -92 q 161 -51 151 -72 q 171 -14 171 -29 q 169 0 171 -4 q 167 6 168 4 q 163 11 165 8 q 160 21 161 14 q 143 44 158 26 q 103 88 128 63 l 49 142 l 68 161 q 92 181 88 181 q 101 187 94 181 q 115 200 107 193 q 131 213 124 207 q 139 219 138 219 q 149 226 143 219 q 163 240 156 232 q 178 255 171 249 q 192 261 186 261 z "},"-":{"ha":661,"x_min":-1,"x_max":614,"o":"m 422 435 q 418 439 422 439 q 414 435 414 439 q 418 431 414 431 q 422 435 422 431 m 329 454 q 334 456 331 453 q 341 461 338 458 q 347 467 344 464 q 344 469 349 469 q 332 463 338 469 q 329 454 326 457 m -1 396 q 10 412 -1 399 q 36 440 22 425 q 63 466 50 454 q 76 478 75 478 q 86 483 79 478 q 101 493 93 488 q 117 503 110 499 q 126 508 124 508 q 139 514 133 508 q 173 519 142 517 q 249 524 204 522 q 345 526 293 525 q 442 528 397 528 q 517 529 486 529 q 551 529 549 529 q 601 527 588 529 q 614 521 614 525 q 602 500 614 514 q 583 486 590 486 q 572 479 581 486 q 553 461 564 472 q 514 427 531 439 q 476 409 497 415 q 421 401 454 403 q 332 399 388 400 q 251 397 293 399 q 167 394 208 396 q 86 392 125 393 q 15 390 47 390 q -1 396 -1 390 z "},".":{"ha":401,"x_min":57,"x_max":349,"o":"m 258 82 q 254 88 258 85 q 250 85 250 92 q 254 78 250 78 q 258 82 258 78 m 349 96 q 344 85 349 92 q 334 70 340 78 q 322 58 328 63 q 313 53 317 53 q 306 48 311 53 q 294 38 300 43 q 282 27 288 32 q 274 22 276 22 q 263 15 271 22 q 244 -1 254 7 q 226 -17 235 -10 q 214 -25 217 -25 q 172 10 204 -25 q 138 47 158 25 q 99 88 117 68 q 69 120 81 107 q 57 136 57 133 q 67 150 57 140 q 81 160 76 160 q 91 167 83 160 q 108 183 99 175 q 126 199 118 192 q 136 207 135 207 q 145 213 139 207 q 160 226 151 219 q 175 240 168 233 q 183 246 182 246 q 194 252 189 246 q 204 258 199 258 q 222 244 207 258 q 255 212 238 229 q 287 179 272 194 q 301 161 301 164 q 309 149 301 157 q 325 130 317 140 q 341 110 333 119 q 349 96 349 101 z "},"/":{"ha":917,"x_min":-11,"x_max":926,"o":"m 921 1024 q 925 1021 924 1024 q 926 1015 926 1018 q 919 1001 926 1010 q 893 971 913 992 q 874 949 882 958 q 865 936 865 939 q 858 927 865 935 q 844 911 851 919 q 829 895 836 903 q 822 886 822 888 q 817 878 822 885 q 805 865 811 872 q 793 852 799 858 q 788 844 788 846 q 774 828 788 843 q 745 794 761 813 q 716 761 729 776 q 703 744 703 746 q 695 735 703 743 q 679 717 688 726 q 663 700 671 708 q 656 689 656 692 q 650 681 656 688 q 638 668 644 675 q 626 655 632 661 q 621 647 621 649 q 615 637 621 644 q 599 618 608 629 q 525 535 554 568 q 496 500 496 503 q 485 485 496 497 q 446 439 475 472 q 433 424 439 431 q 428 414 428 417 q 420 404 428 413 q 404 387 413 396 q 388 369 396 378 q 381 360 381 361 q 372 344 381 356 q 353 322 364 333 q 332 301 342 311 q 318 286 322 290 q 304 272 314 282 q 284 251 294 263 q 265 228 274 239 q 257 213 257 218 q 251 204 257 211 q 238 190 244 197 q 224 175 231 182 q 218 167 218 168 q 198 141 218 164 q 153 92 178 118 q 108 44 129 65 q 83 22 86 22 q 74 16 81 22 q 57 1 67 10 q 11 -38 26 -26 q -7 -50 -4 -50 q -10 -46 -11 -50 q -7 -36 -10 -42 q -1 -26 -4 -31 q 3 -19 3 -21 q 10 -10 3 -18 q 24 7 17 -1 q 39 23 32 15 q 46 32 46 31 q 52 42 46 35 q 67 60 58 50 q 181 196 126 126 q 292 328 236 265 q 318 358 307 344 q 329 372 329 371 q 336 383 329 374 q 354 403 343 392 q 407 465 407 460 q 413 476 407 467 q 431 496 419 485 q 487 561 456 524 q 543 626 518 599 q 562 647 554 638 q 569 660 569 657 q 577 669 569 661 q 593 687 585 678 q 609 705 601 696 q 617 715 617 714 q 622 723 617 718 q 631 734 626 728 q 641 746 636 740 q 646 753 646 751 q 654 768 646 758 q 673 789 663 778 q 694 810 683 800 q 708 825 704 819 q 729 847 714 831 q 766 886 744 864 q 812 933 788 908 q 858 977 836 957 q 897 1010 879 997 q 921 1024 914 1024 z "},":":{"ha":397,"x_min":40,"x_max":356,"o":"m 153 607 q 149 613 153 613 q 144 607 144 613 q 149 600 144 600 q 153 607 153 600 m 200 699 q 196 703 200 703 q 192 696 192 703 q 196 692 192 689 q 200 699 200 696 m 356 622 q 337 590 356 611 q 294 549 318 569 q 246 513 269 528 q 213 497 222 497 q 189 513 201 497 q 173 531 183 519 q 150 558 163 543 q 124 588 138 572 q 97 618 110 604 q 76 647 76 642 q 83 658 76 650 q 99 675 90 665 q 115 692 107 685 q 124 699 122 699 q 144 709 132 699 q 167 733 156 719 q 192 756 179 746 q 214 767 204 767 q 235 753 221 767 q 286 701 249 740 q 334 651 313 674 q 356 622 356 629 m 243 242 q 239 249 243 249 q 235 246 235 249 q 237 240 235 243 q 241 238 239 238 q 243 242 243 238 m 290 319 q 297 308 290 317 q 313 290 304 300 q 329 272 322 281 q 336 258 336 263 q 324 238 336 251 q 294 209 311 224 q 260 181 278 194 q 235 160 243 168 q 215 143 224 149 q 200 138 207 138 q 183 146 192 138 q 158 169 174 154 q 125 206 146 183 q 85 249 104 229 l 40 296 l 53 308 q 69 321 65 321 q 79 327 72 321 q 97 343 86 333 q 115 360 101 347 q 142 385 128 372 q 170 409 157 399 q 189 419 183 419 q 208 405 192 419 q 242 372 224 390 q 275 338 260 353 q 290 319 290 322 z "},";":{"ha":383,"x_min":46,"x_max":335,"o":"m 243 678 q 244 669 238 669 q 249 678 251 668 q 243 678 247 683 m 65 654 q 60 665 65 657 q 56 681 56 674 q 67 690 56 690 q 77 697 69 690 q 96 714 85 703 q 115 733 103 721 q 142 758 128 746 q 171 780 157 771 q 194 789 185 789 q 216 781 204 789 q 228 767 228 774 q 239 747 228 761 q 264 719 250 733 q 291 691 278 704 q 310 672 304 678 q 328 651 321 661 q 335 639 335 642 q 322 619 335 633 q 303 604 308 604 q 293 597 301 604 q 275 581 285 589 q 258 565 265 572 q 247 557 250 557 q 238 551 244 557 q 222 538 231 544 q 206 524 214 531 q 196 518 199 518 q 183 526 193 518 q 161 544 172 533 q 142 564 150 554 q 133 576 133 574 q 123 590 133 578 q 99 615 113 601 q 76 641 86 629 q 65 654 65 653 m 211 251 q 217 253 215 249 q 213 257 219 257 q 206 256 206 257 q 211 251 207 254 m 229 306 q 235 308 236 304 q 230 315 233 311 q 223 319 226 318 q 221 313 219 319 q 229 306 224 307 m 142 306 q 138 315 142 322 q 138 301 133 308 q 141 297 140 296 q 142 306 142 299 m 165 82 q 151 69 163 82 q 132 56 139 56 q 129 58 129 56 q 142 82 129 67 q 169 143 169 114 q 148 195 169 171 q 99 247 126 219 l 46 300 l 67 321 q 82 337 75 331 q 92 343 89 343 q 108 355 94 343 q 164 404 122 367 q 181 419 174 413 q 190 425 189 425 q 199 418 193 425 q 208 411 204 411 q 226 397 211 411 q 259 365 242 383 q 292 328 276 346 q 313 304 308 311 q 322 268 322 285 q 311 225 322 247 q 292 199 307 217 q 261 165 278 182 q 230 133 244 147 q 213 119 215 119 q 203 114 211 119 q 188 101 196 108 q 174 88 181 93 q 165 82 167 82 z "},"<":{"ha":457,"x_min":4,"x_max":464,"o":"m 186 354 q 193 358 189 351 q 194 365 197 365 q 187 361 190 365 q 186 354 183 357 m 394 807 q 399 810 396 807 q 407 815 403 813 q 414 819 411 818 q 417 815 417 819 q 408 804 417 813 q 400 792 400 796 q 394 783 400 790 q 382 769 389 776 q 369 757 375 763 q 360 751 363 751 q 344 738 358 751 q 308 703 329 724 q 262 658 286 682 q 217 613 238 635 q 182 577 196 592 q 168 561 168 563 q 178 547 168 557 q 192 536 188 536 q 203 528 193 536 q 224 509 213 519 q 244 490 235 499 q 256 481 254 481 q 276 465 258 481 q 320 424 294 449 q 375 371 346 400 q 428 315 404 342 l 464 276 l 453 267 q 426 245 446 263 q 384 209 407 228 q 340 175 361 190 q 311 160 319 160 q 297 168 308 160 q 274 188 286 176 q 253 208 263 199 q 244 221 244 218 q 238 231 244 224 q 224 246 232 238 q 210 260 217 254 q 200 267 203 267 q 185 278 197 267 q 154 307 172 290 q 109 349 136 324 q 58 394 82 374 l 4 444 l 74 511 q 176 610 133 568 q 247 679 218 651 q 295 724 276 707 q 324 750 314 742 q 359 781 346 769 q 379 798 372 792 q 390 806 386 804 q 394 807 393 807 z "},"=":{"ha":679,"x_min":40,"x_max":656,"o":"m 464 532 q 460 536 464 536 q 456 532 456 536 q 460 528 456 528 q 464 532 464 528 m 371 551 q 376 553 372 550 q 383 558 379 556 q 388 564 386 561 q 386 567 390 567 q 374 560 379 567 q 371 551 368 554 m 40 493 q 52 509 40 496 q 78 537 64 522 q 104 563 92 551 q 118 575 117 575 q 128 580 121 575 q 143 590 135 585 q 158 601 151 596 q 168 606 165 606 q 181 611 175 606 q 215 617 183 614 q 290 621 246 619 q 387 624 335 622 q 483 626 439 625 q 559 626 528 626 q 593 626 590 626 q 642 624 629 626 q 656 618 656 622 q 644 597 656 611 q 625 583 632 583 q 614 576 622 583 q 594 558 606 569 q 556 524 572 536 q 517 506 539 513 q 463 499 496 500 q 374 496 429 497 q 292 494 335 496 q 208 492 250 493 q 128 489 167 490 q 57 488 89 488 q 40 493 40 488 m 464 338 q 460 342 464 342 q 456 338 456 342 q 460 333 456 333 q 464 338 464 333 m 371 357 q 376 358 372 356 q 383 364 379 361 q 388 369 386 367 q 386 372 390 372 q 374 366 379 372 q 371 357 368 360 m 40 299 q 52 315 40 301 q 78 342 64 328 q 104 369 92 357 q 118 381 117 381 q 128 385 121 381 q 143 396 135 390 q 158 406 151 401 q 168 411 165 411 q 181 417 175 411 q 215 422 183 419 q 290 426 246 425 q 387 429 335 428 q 483 431 439 431 q 559 432 528 432 q 593 432 590 432 q 642 430 629 432 q 656 424 656 428 q 644 403 656 417 q 625 389 632 389 q 614 382 622 389 q 594 364 606 375 q 556 330 572 342 q 517 312 539 318 q 463 304 496 306 q 374 301 429 303 q 292 300 335 301 q 208 297 250 299 q 128 294 167 296 q 57 293 89 293 q 40 299 40 293 z "},">":{"ha":436,"x_min":-25,"x_max":429,"o":"m 240 614 q 247 617 244 614 q 249 622 249 619 q 247 626 249 625 q 240 621 244 626 q 240 614 236 614 m -1 721 q 8 727 1 721 q 22 740 14 733 q 38 753 31 747 q 46 760 44 760 q 64 769 54 760 q 85 790 74 778 q 106 810 96 801 q 126 819 117 819 q 145 806 131 819 q 175 776 160 793 q 203 745 190 760 q 219 728 217 731 q 237 711 222 726 q 269 679 251 696 q 301 649 286 663 q 321 635 317 635 q 332 626 322 635 q 352 608 342 618 q 372 588 363 597 q 383 579 382 579 q 393 573 386 579 q 408 559 400 567 q 423 544 417 551 q 429 535 429 538 q 413 515 429 532 q 372 476 396 499 q 344 449 361 465 q 307 413 326 432 q 267 374 288 394 q 228 336 246 354 q 165 275 192 300 q 136 250 138 250 q 126 244 135 250 q 107 228 118 238 q 42 172 46 172 q 31 165 40 172 q 22 165 22 158 q 28 176 22 172 q 35 186 35 181 q 40 195 35 189 q 53 209 46 201 q 67 222 60 217 q 75 228 74 228 q 91 242 76 228 q 127 276 106 256 q 173 322 149 297 q 218 367 197 346 q 253 403 239 389 q 267 419 267 418 q 254 433 267 422 q 225 460 242 444 q 183 499 208 475 q 139 540 158 522 q 106 571 119 558 q 89 583 92 583 q 80 590 88 583 q 64 603 72 596 q 49 619 56 611 q 43 628 43 626 q 34 642 43 631 q 10 667 25 653 l -25 701 q -14 713 -21 706 q -1 721 -7 721 z "},"?":{"ha":608,"x_min":43,"x_max":600,"o":"m 269 447 q 276 451 272 447 q 275 456 281 456 q 268 451 272 456 q 269 447 264 447 m 188 381 q 192 396 188 393 q 197 408 197 399 q 220 448 197 419 q 299 533 243 476 q 351 588 329 565 q 374 613 374 610 q 381 624 374 619 q 399 645 389 631 q 418 680 408 660 q 434 723 428 700 q 440 767 440 746 q 416 851 440 818 q 354 901 392 885 q 313 919 324 915 q 294 922 303 922 q 280 926 283 922 q 261 931 276 931 q 249 929 253 931 q 242 926 244 928 q 235 924 239 925 q 225 922 232 922 q 188 912 207 922 q 155 885 169 901 q 131 847 140 868 q 121 807 121 826 q 117 784 121 790 q 107 778 114 778 q 88 787 99 778 q 67 808 76 796 q 50 830 57 819 q 43 842 43 840 q 56 861 43 847 q 75 875 69 875 q 87 884 76 875 q 109 905 97 893 q 131 926 121 917 q 142 935 140 935 q 150 941 143 935 q 165 954 157 947 q 179 967 172 961 q 188 974 186 974 q 199 983 192 974 q 211 992 207 992 q 224 997 215 992 q 252 1015 233 1006 q 291 1033 271 1025 q 330 1047 311 1042 q 360 1051 349 1051 q 383 1056 367 1051 q 410 1061 399 1061 q 425 1057 421 1061 q 447 1050 429 1053 q 498 1033 471 1047 q 546 1000 525 1019 q 560 985 554 992 q 567 976 567 979 q 577 957 567 971 q 590 936 588 943 q 596 913 592 932 q 600 878 600 894 q 598 865 600 869 q 594 856 596 860 q 590 849 592 853 q 588 838 588 844 q 576 802 588 826 q 550 761 564 778 q 540 748 544 754 q 536 740 536 742 q 512 709 536 736 q 435 628 488 682 q 385 576 406 599 q 364 551 364 554 q 356 538 364 546 q 347 522 347 529 q 341 503 347 511 q 335 485 335 496 q 356 437 335 463 q 408 393 376 411 q 417 386 417 388 q 400 368 417 385 q 363 333 383 351 q 326 299 343 314 q 306 283 308 283 q 292 274 303 283 q 271 265 282 265 q 247 271 260 265 q 222 285 233 276 q 204 305 211 294 q 197 325 197 315 q 192 346 197 326 q 188 381 188 365 m 350 82 q 353 86 357 82 q 347 90 350 90 q 343 86 343 90 q 350 82 343 82 m 417 78 q 411 65 417 74 q 398 48 406 57 q 383 33 390 39 q 371 26 375 26 q 361 19 369 26 q 343 3 353 11 q 326 -13 333 -6 q 315 -21 318 -21 q 299 -31 306 -21 q 282 -40 292 -40 q 265 -31 275 -40 q 250 -21 256 -21 q 238 -8 244 -21 q 225 8 232 4 q 207 22 219 13 q 183 44 194 32 q 163 65 172 56 q 154 76 154 75 q 160 94 154 83 q 169 104 167 104 q 183 110 175 104 q 201 126 192 117 q 219 143 211 135 q 233 156 228 151 q 270 187 257 175 q 294 199 283 199 q 323 182 303 199 q 364 144 343 165 q 401 104 385 124 q 417 78 417 85 z "},"@":{"ha":925,"x_min":-15,"x_max":904,"o":"m 249 222 q 256 224 253 219 q 251 228 258 228 q 249 222 242 228 m 215 281 q 218 274 215 276 q 223 272 221 272 q 226 273 225 271 q 221 279 226 275 q 215 281 215 283 m 117 515 q 111 519 117 519 q 107 513 107 519 q 112 509 107 506 q 117 515 117 513 m 503 532 q 498 541 507 536 q 489 539 489 546 q 494 530 489 532 q 503 532 499 528 m 504 657 q 506 648 499 649 q 510 657 513 647 q 504 657 508 663 m 365 550 q 369 539 365 540 q 374 528 374 538 q 381 508 374 517 q 396 499 389 499 q 415 513 399 499 q 451 546 432 528 q 485 580 469 564 q 501 600 501 596 q 490 617 501 606 q 463 640 478 628 q 435 660 449 651 q 418 669 421 669 q 397 660 407 669 q 386 640 386 651 q 383 626 386 638 q 376 601 379 615 q 369 574 372 588 q 365 550 365 560 m 528 686 q 521 692 528 692 q 517 687 514 692 q 524 682 521 682 q 528 686 528 682 m 758 860 q 754 867 758 867 q 750 864 750 867 q 752 858 750 861 q 756 856 754 856 q 758 860 758 856 m 651 969 q 649 974 651 974 q 640 970 640 974 q 642 964 640 967 q 648 961 644 961 q 651 969 651 961 m -15 454 q -14 469 -15 464 q -10 477 -12 474 q -6 485 -8 481 q -4 499 -4 489 q 0 517 -4 514 q 4 531 4 519 q 15 568 4 547 q 26 596 26 589 q 38 624 28 610 q 56 654 47 639 q 69 679 64 669 q 79 695 75 689 q 88 706 83 701 q 99 718 92 711 q 111 731 106 725 q 117 740 117 738 q 129 756 117 743 q 156 784 142 769 q 185 811 171 799 q 200 824 199 824 q 211 833 201 824 q 232 852 221 842 q 253 871 243 863 q 264 879 263 879 q 278 890 268 879 q 293 901 289 901 q 303 909 294 901 q 323 925 313 917 q 342 941 333 933 q 353 949 351 949 q 361 953 354 949 q 376 963 368 957 q 403 978 386 969 q 437 996 419 988 q 467 1010 454 1004 q 485 1017 481 1017 q 510 1024 496 1017 q 543 1036 524 1032 q 565 1039 553 1039 q 592 1039 578 1039 q 667 1035 629 1039 q 714 1024 706 1031 q 729 1017 721 1017 q 755 1004 740 1017 q 778 992 769 992 q 791 982 781 992 q 813 960 801 972 q 835 938 825 949 q 844 924 844 926 q 853 912 844 919 q 863 900 863 904 q 869 872 863 890 q 883 834 875 854 q 898 794 892 814 q 904 758 904 774 q 898 738 904 743 q 892 717 892 732 q 888 695 892 708 q 880 669 885 682 q 869 645 875 656 q 860 631 864 635 q 855 626 857 628 q 853 621 853 624 q 840 605 853 619 q 811 574 826 590 q 782 545 796 558 q 765 532 768 532 q 756 526 763 532 q 739 513 749 521 q 663 453 690 468 q 608 438 636 438 q 554 451 576 438 q 513 485 532 465 q 492 503 499 500 q 474 507 485 507 q 456 503 463 507 q 433 483 449 499 q 416 467 424 474 q 406 460 408 460 q 392 450 403 460 q 365 426 381 440 q 344 407 356 418 q 318 386 332 396 q 290 369 304 376 q 264 363 276 363 q 247 369 256 363 q 230 385 238 375 q 218 408 222 396 q 214 433 214 421 q 219 446 214 443 q 224 464 224 449 q 228 483 224 481 q 232 500 232 485 q 236 515 232 513 q 240 526 240 518 q 244 540 240 529 q 254 561 249 550 q 263 578 258 569 q 277 597 268 586 q 301 622 286 607 q 338 660 315 638 q 388 709 367 689 q 413 729 410 729 q 421 734 415 729 q 433 744 426 739 q 445 755 439 750 q 453 760 451 760 q 460 763 456 760 q 468 771 464 767 q 504 792 483 786 q 557 797 525 797 q 592 789 572 797 q 628 767 611 781 q 658 736 646 753 q 671 703 671 719 q 665 690 671 696 q 651 678 658 683 q 637 667 643 672 q 631 656 631 661 q 643 632 631 646 q 672 606 656 618 q 701 584 688 593 q 718 575 715 575 q 736 585 724 575 l 747 594 l 744 650 q 736 719 742 707 q 717 768 717 758 q 708 783 717 775 q 699 796 699 790 q 689 809 699 799 q 667 831 679 819 q 645 853 656 843 q 632 863 635 863 q 627 865 629 863 q 622 869 625 867 q 608 878 618 874 q 584 888 597 883 q 557 897 571 893 q 533 906 543 901 q 509 909 528 908 q 468 910 490 910 q 419 906 432 910 q 393 901 407 901 q 376 897 388 901 q 350 888 364 893 q 322 875 336 882 q 299 861 308 868 q 273 840 288 854 q 246 812 258 826 q 224 785 233 797 q 215 768 215 772 q 206 753 215 763 q 193 738 196 744 q 188 724 192 733 q 179 706 183 715 q 172 688 175 697 q 168 674 168 679 q 163 663 168 665 q 158 650 158 660 q 154 636 158 639 q 150 618 150 633 q 149 607 150 617 q 145 585 147 597 q 141 558 143 572 q 139 531 139 543 q 141 516 139 521 q 145 508 143 511 q 149 500 147 504 q 150 489 150 496 q 165 426 150 458 q 203 365 181 393 q 253 313 226 336 q 303 279 279 290 q 331 267 318 272 q 346 263 343 263 q 358 259 356 263 q 372 256 361 256 q 433 265 404 256 q 485 291 463 274 q 519 334 507 308 q 532 393 532 360 l 532 417 l 549 417 q 565 412 558 417 q 578 400 572 407 q 589 385 583 393 q 600 372 594 378 q 610 362 606 367 q 614 354 614 357 q 607 344 614 351 q 589 328 600 336 q 553 294 578 318 q 499 247 528 271 q 447 203 471 222 q 413 185 422 185 q 403 179 411 185 q 390 170 399 175 q 370 160 381 165 q 351 151 360 154 q 339 147 342 147 q 328 142 331 147 q 315 138 325 138 q 298 132 301 138 q 276 126 294 126 q 243 130 263 126 q 206 137 224 133 q 176 144 189 140 q 158 147 163 147 q 135 159 153 147 q 99 187 118 171 q 63 219 79 203 q 43 246 47 236 q 14 306 32 274 q -4 371 -4 339 q -10 403 -4 376 q -15 454 -15 431 z "},"A":{"ha":769,"x_min":-46,"x_max":797,"o":"m 154 397 q 150 422 154 408 q 140 447 146 435 q 126 467 133 458 q 111 475 118 475 q 97 485 107 475 l 88 494 l 97 510 q 149 563 122 546 q 201 606 175 579 q 222 640 215 619 q 233 681 229 660 q 242 726 238 703 q 251 769 246 749 q 256 799 254 781 q 264 825 258 818 q 269 840 267 828 q 275 866 272 851 q 280 892 278 881 q 282 907 282 904 q 267 922 282 922 q 212 894 233 922 q 186 842 190 867 q 171 832 185 833 q 158 834 161 831 q 146 854 154 838 q 138 875 139 869 q 140 886 136 881 q 210 947 179 921 q 258 990 236 971 q 282 1008 279 1008 q 292 1014 283 1008 q 313 1026 301 1019 q 367 1051 336 1042 q 428 1061 397 1061 q 483 1049 460 1061 q 522 1017 506 1038 q 550 973 539 997 q 568 924 561 949 q 578 899 574 907 q 582 875 582 892 q 586 858 582 861 q 590 840 590 856 q 594 821 590 824 q 605 789 600 818 q 615 725 610 760 q 624 658 619 690 q 633 618 629 626 q 635 606 633 617 q 638 583 636 596 q 642 560 640 571 q 649 544 644 549 q 651 525 651 542 q 653 511 651 515 q 656 503 654 507 q 658 494 657 500 q 660 475 660 488 q 670 382 660 432 q 686 279 681 332 q 690 255 688 264 q 694 239 692 246 q 697 226 696 232 q 699 214 699 221 q 706 191 699 208 q 724 155 713 174 q 747 120 735 136 q 769 100 760 104 q 785 92 772 99 q 797 83 797 86 q 792 76 797 82 q 781 65 788 71 q 769 53 775 58 q 761 49 764 49 q 751 41 760 49 q 733 25 742 33 q 715 9 724 17 q 706 1 707 1 q 697 -6 704 1 q 679 -20 689 -12 q 662 -35 669 -28 q 651 -42 654 -42 q 622 -28 639 -42 q 590 3 606 -15 q 563 42 574 22 q 553 72 553 61 q 549 83 553 79 q 542 99 544 88 q 533 154 535 138 q 531 189 531 171 q 528 221 531 199 q 520 266 525 243 q 510 307 515 289 q 499 325 504 325 q 485 323 490 325 q 475 319 481 321 q 461 315 469 317 q 440 313 453 313 q 410 313 428 313 q 375 315 393 314 q 341 317 357 317 q 315 318 325 318 q 278 307 292 318 q 263 260 265 296 q 260 242 261 247 q 256 232 258 236 q 253 223 254 228 q 251 208 251 218 q 247 190 251 192 q 243 171 243 188 q 248 152 243 160 q 276 122 253 144 q 303 96 294 106 q 311 78 311 86 q 297 55 311 71 q 266 22 283 39 q 233 -7 249 6 q 214 -19 217 -19 q 207 -24 213 -19 q 196 -33 201 -28 q 185 -42 190 -37 q 178 -46 181 -46 q 167 -38 175 -46 q 149 -22 158 -31 q 131 -6 139 -14 q 119 1 122 1 q 108 8 113 1 q 89 22 103 15 q 65 28 75 28 q 55 24 61 28 q 42 14 49 19 q 32 3 36 8 q 28 -6 28 -3 q 19 -18 28 -11 q 11 -31 11 -25 q 5 -44 11 -40 q -10 -47 -1 -47 q -34 -41 -22 -47 q -46 -24 -46 -35 q -43 -17 -46 -22 q -4 28 -29 10 q 46 67 21 47 q 91 110 71 86 q 115 174 111 135 q 119 191 117 186 q 122 200 121 196 q 125 209 124 204 q 126 225 126 214 q 128 240 126 236 q 131 248 129 244 q 133 256 132 251 q 135 268 135 260 q 136 282 135 278 q 140 290 138 286 q 143 299 142 293 q 144 315 144 304 q 149 352 144 331 q 154 397 154 374 m 375 901 q 385 901 379 899 q 381 904 392 904 q 375 901 369 904 m 383 436 q 398 444 390 436 q 417 451 406 451 q 443 447 429 451 q 468 443 457 443 q 485 465 485 443 q 483 494 485 486 q 480 508 482 501 q 474 524 478 514 q 468 561 471 535 q 464 594 467 574 q 457 637 461 615 q 449 677 453 658 q 440 704 444 696 q 438 712 439 707 q 436 721 436 717 q 432 734 436 732 q 428 746 428 736 q 417 783 428 763 q 406 810 406 803 q 403 818 406 818 q 394 809 399 818 q 389 793 389 800 q 378 754 389 779 q 368 714 368 729 q 359 683 368 697 q 350 651 350 669 q 347 631 350 643 q 340 607 344 619 q 333 583 336 594 q 328 563 329 571 q 320 517 324 529 q 314 497 317 506 q 309 475 311 489 q 303 425 307 461 q 299 403 301 415 q 297 382 297 390 q 301 372 297 372 q 315 381 306 372 q 326 389 324 389 q 338 397 329 389 q 355 413 346 404 q 373 428 364 421 q 383 436 382 436 m 518 754 q 511 758 518 758 q 508 754 504 758 q 514 750 511 750 q 518 754 518 750 m 522 679 q 518 688 522 686 q 514 679 514 690 q 518 670 514 668 q 522 679 522 672 m 560 656 q 560 647 554 647 q 564 656 567 646 q 560 656 563 660 m 568 578 q 573 579 576 571 q 567 589 569 588 q 561 588 561 592 q 568 578 561 583 m 165 496 q 171 490 165 485 q 171 501 176 496 q 165 496 165 507 m 526 471 q 519 475 526 475 q 514 471 514 475 q 519 465 514 465 q 526 471 526 465 m 518 432 q 511 436 518 436 q 506 432 506 436 q 511 428 506 428 q 518 432 518 428 m 247 75 q 240 79 247 79 q 235 75 235 79 q 240 71 235 71 q 247 75 247 71 m 629 32 q 625 38 629 35 q 621 33 621 40 q 625 28 621 28 q 629 32 629 28 z "},"B":{"ha":647,"x_min":18,"x_max":624,"o":"m 310 114 q 306 118 310 118 q 300 111 300 118 q 303 107 300 107 q 310 114 310 107 m 151 206 q 157 210 157 206 q 153 213 157 213 q 146 210 146 213 q 150 206 146 208 l 151 206 m 554 213 q 561 218 561 213 q 557 221 561 221 q 550 217 550 221 q 554 213 550 213 m 557 251 q 558 256 558 253 l 557 256 q 551 252 554 256 q 547 247 547 249 l 549 247 q 557 251 556 247 m 515 333 q 510 338 515 338 q 503 333 503 338 q 510 328 503 328 q 515 333 515 328 m 456 89 q 469 113 467 89 q 472 165 472 136 q 469 242 472 200 q 461 321 465 283 q 453 385 457 358 q 446 417 449 413 q 401 463 432 443 q 338 483 371 483 q 279 460 304 483 l 267 447 l 267 304 q 267 235 267 263 q 267 192 267 208 q 269 167 268 175 q 272 158 271 160 q 288 156 275 157 q 318 154 301 154 q 345 153 335 154 q 364 150 356 153 q 380 142 372 147 q 399 128 388 136 q 419 114 415 114 q 436 101 425 114 q 456 89 447 89 m 206 499 q 201 504 206 504 q 197 501 197 504 q 203 494 197 494 q 206 499 206 494 m 143 778 q 149 782 149 778 q 144 785 149 785 q 138 782 138 785 q 142 778 138 781 l 143 778 m 531 849 q 536 851 536 849 q 526 861 536 861 q 524 856 524 861 q 531 849 524 849 m 296 931 q 270 921 276 931 q 264 872 264 911 q 265 808 264 847 q 267 708 267 768 q 267 630 267 667 q 267 565 267 593 q 269 519 268 536 q 269 503 269 503 l 271 503 q 285 513 275 503 q 299 522 296 522 q 313 532 303 522 q 322 546 322 542 q 328 554 322 547 q 343 571 335 561 q 376 612 363 592 q 404 660 389 632 l 418 688 l 418 750 q 392 863 418 826 q 328 918 365 900 q 310 927 317 924 q 296 931 303 931 m 24 939 q 33 953 24 943 q 53 974 42 964 q 76 991 65 983 q 89 999 86 999 q 97 1004 92 999 q 110 1016 103 1010 q 123 1028 117 1022 q 131 1033 129 1033 q 149 1045 138 1033 q 172 1057 161 1057 q 200 1047 186 1057 q 225 1022 214 1036 q 244 992 236 1007 q 256 968 253 978 q 265 957 260 957 q 278 963 272 957 q 290 969 285 969 q 299 974 293 969 q 310 984 304 979 q 322 994 317 989 q 329 999 328 999 q 346 1012 333 999 q 363 1025 358 1025 q 378 1035 368 1025 q 396 1046 389 1046 q 419 1050 403 1046 q 453 1054 435 1054 q 490 1042 471 1054 q 524 1013 508 1031 q 552 976 540 994 q 565 942 564 957 q 572 906 567 932 q 578 856 578 881 q 566 795 578 825 q 539 744 554 765 q 528 728 532 735 q 524 718 524 721 q 519 711 524 717 q 511 701 515 706 q 503 691 507 696 q 499 685 499 686 q 489 668 499 682 q 467 639 479 654 q 456 621 456 625 q 478 617 456 617 q 509 611 490 617 q 544 599 528 606 q 573 583 561 592 q 585 568 585 575 q 593 554 585 563 q 608 519 604 543 q 613 436 611 494 q 615 388 614 401 q 619 364 617 374 q 622 341 621 354 q 624 294 624 328 q 622 236 624 264 q 618 203 621 208 q 608 190 615 199 q 593 174 601 182 q 578 159 585 165 q 569 153 572 153 q 549 138 567 153 q 496 88 532 122 q 478 75 483 75 q 469 67 476 75 q 451 51 461 60 q 434 35 442 43 q 424 28 426 28 q 415 22 422 28 q 400 8 408 15 q 385 -5 392 1 q 376 -11 379 -11 q 365 -17 371 -11 q 351 -28 358 -22 q 337 -40 344 -35 q 322 -46 329 -46 q 286 -24 307 -46 q 268 -11 274 -11 q 256 -6 264 -11 q 240 4 249 -1 q 224 15 232 10 q 208 19 215 19 q 197 24 200 19 q 182 28 194 28 q 162 19 174 28 q 140 0 150 11 q 121 -23 129 -11 q 108 -42 113 -35 q 100 -60 103 -53 q 90 -67 97 -67 q 69 -56 81 -67 q 58 -33 58 -46 q 69 -13 58 -24 q 85 -3 79 -3 q 90 3 90 -3 q 100 18 90 8 l 110 28 l 110 193 q 108 324 110 288 q 104 364 107 361 q 99 379 99 369 q 94 391 99 389 q 90 403 90 393 q 87 415 90 407 q 78 432 83 424 q 67 447 72 440 q 58 453 61 453 q 44 462 51 453 q 29 471 36 471 q 18 476 18 471 q 30 497 18 483 q 56 523 42 510 q 84 547 71 536 q 99 558 97 557 l 110 569 l 110 700 q 108 803 110 774 q 104 836 107 833 q 99 849 99 842 q 94 864 99 854 q 82 883 89 874 q 69 901 75 893 q 58 908 63 908 q 51 913 57 908 q 40 922 46 917 q 28 933 33 928 q 24 939 24 938 z "},"C":{"ha":649,"x_min":-26,"x_max":686,"o":"m 338 632 q 337 690 338 657 q 335 759 336 724 q 333 829 333 794 q 332 893 332 864 q 336 928 332 919 q 356 953 338 932 q 399 997 375 974 q 447 1038 424 1019 q 482 1056 471 1056 q 501 1051 489 1056 q 525 1042 513 1047 q 548 1033 538 1038 q 564 1029 558 1029 q 578 1025 576 1029 q 596 1021 581 1021 q 633 1056 626 1021 q 650 1068 635 1068 q 675 1060 664 1068 q 686 1040 686 1051 q 676 1024 686 1036 q 652 998 665 1011 q 626 975 639 985 q 607 965 613 965 q 599 960 607 965 l 569 932 q 561 926 561 926 q 552 922 558 926 q 539 913 546 918 q 526 903 532 908 q 515 899 519 899 q 505 895 508 897 q 498 892 501 893 q 489 890 494 890 q 472 889 483 889 q 442 882 449 889 q 439 842 440 881 q 437 744 438 804 q 435 608 436 683 q 435 458 435 533 q 435 335 435 394 q 437 228 436 275 q 440 151 438 181 q 443 119 442 122 q 463 103 450 110 q 486 96 476 96 q 503 92 493 96 q 525 88 513 88 q 545 93 533 88 q 569 106 557 99 q 588 120 581 113 q 596 133 596 128 l 594 133 q 603 150 599 142 q 610 163 607 157 q 614 172 613 169 q 625 197 621 192 q 642 203 629 203 q 663 194 649 203 q 676 167 676 185 q 649 133 676 160 q 587 75 621 106 q 522 21 553 44 q 485 -3 492 -3 q 476 -10 483 -3 q 459 -21 471 -15 q 434 -31 447 -26 q 408 -39 421 -36 q 386 -42 394 -42 q 359 -37 364 -42 q 343 -33 354 -33 q 317 -24 333 -33 q 290 -3 301 -14 q 274 10 278 10 q 267 14 272 10 q 255 23 261 18 q 244 33 249 28 q 240 40 240 39 q 233 54 240 44 q 217 75 226 64 q 199 95 207 86 q 188 108 190 104 q 174 132 185 114 q 153 172 164 150 q 133 213 142 193 q 125 238 125 232 q 124 245 125 240 q 121 253 122 250 q 105 294 111 272 q 96 338 99 317 q 93 352 94 347 q 90 360 92 357 q 88 367 89 363 q 86 378 86 371 q 76 410 86 394 q 49 438 65 425 q 13 460 32 450 q -25 475 -7 469 q -26 478 -26 475 q -20 489 -26 482 q -6 503 -14 496 q 8 515 1 510 q 15 519 15 519 q 31 530 19 519 q 55 555 43 540 q 76 584 67 569 q 86 607 86 599 q 90 623 86 619 q 96 642 93 626 q 103 687 99 661 q 111 719 108 713 q 126 753 115 731 q 150 798 138 775 q 172 839 163 821 q 185 860 182 857 q 193 872 193 867 q 206 890 193 875 q 233 922 218 906 q 262 952 249 939 q 278 965 275 965 q 287 972 281 965 q 301 985 293 978 q 315 998 308 992 q 324 1004 322 1004 q 341 1017 328 1004 q 358 1029 354 1029 q 363 1032 360 1029 q 369 1037 365 1035 q 375 1040 372 1039 q 378 1038 378 1040 q 372 1026 378 1031 q 365 1015 365 1021 q 356 1002 365 1010 q 347 990 347 994 q 344 981 347 989 q 333 965 340 974 q 309 924 322 949 q 285 874 296 899 q 266 827 274 849 q 258 796 258 806 q 253 783 258 785 q 249 768 249 781 q 247 756 249 760 q 244 750 246 753 q 242 742 243 747 q 240 726 240 738 q 239 706 240 713 q 235 695 238 700 q 232 683 233 690 q 231 661 231 676 q 233 608 231 639 q 240 547 236 576 q 246 497 243 518 q 249 472 249 476 q 250 456 249 461 q 253 447 251 451 q 256 438 254 443 q 260 422 258 433 q 267 393 263 407 q 285 351 272 379 q 288 338 288 343 q 294 320 288 335 q 310 289 301 306 q 327 259 319 272 q 336 246 335 246 q 339 276 339 246 q 339 347 339 306 l 339 449 l 310 479 q 288 503 297 492 q 279 517 279 514 q 288 532 279 521 q 308 556 297 543 q 327 578 318 568 q 338 593 336 589 q 338 606 339 596 q 338 632 338 617 m 390 850 q 386 854 390 854 q 381 850 383 854 q 385 846 378 846 q 390 850 390 846 m 164 631 q 160 641 164 638 q 156 633 156 644 q 160 622 156 622 q 164 631 164 622 m 128 550 q 127 544 125 546 q 133 544 129 543 q 137 547 136 544 q 133 551 138 549 q 128 550 129 553 m 146 508 q 142 513 146 511 q 136 511 139 514 q 140 507 135 507 q 146 508 146 507 m 215 292 q 208 297 215 297 q 203 292 203 297 q 208 288 203 288 q 215 292 215 288 m 331 218 q 325 225 331 232 q 327 215 324 222 q 331 218 331 207 m 331 39 q 324 46 331 43 q 322 42 317 50 q 331 39 331 32 z "},"D":{"ha":685,"x_min":13,"x_max":635,"o":"m 378 -1 q 374 3 378 3 q 368 -1 371 3 q 372 -6 365 -6 q 378 -1 378 -6 m 357 106 q 350 110 357 110 q 344 106 344 110 q 350 101 344 101 q 357 106 357 101 m 201 196 q 208 199 204 196 q 214 203 213 201 q 213 206 215 206 q 203 201 211 206 q 195 197 196 197 q 201 196 194 196 m 571 251 q 565 256 571 256 q 558 251 558 256 q 565 247 558 247 q 571 251 571 247 m 207 367 q 203 371 207 371 q 199 367 199 371 q 203 363 199 363 q 207 367 207 363 m 194 386 q 188 388 194 397 q 190 381 185 383 q 194 386 194 379 m 232 585 q 238 590 235 585 q 235 594 242 594 q 228 590 228 594 q 232 585 228 585 m 565 757 q 571 760 571 757 q 568 767 571 764 q 562 769 565 769 q 558 764 558 769 q 565 757 558 757 m 213 836 q 208 828 199 836 q 224 819 217 819 q 228 822 228 819 q 223 831 228 825 q 213 836 218 836 m 297 417 q 296 376 297 388 q 293 354 294 364 q 290 328 292 344 q 289 269 289 311 l 289 178 l 310 178 q 331 174 328 178 q 346 169 333 169 q 374 163 357 169 q 406 146 390 156 q 433 128 421 136 q 450 115 446 119 q 462 106 457 110 q 469 101 467 101 q 476 110 474 101 q 479 141 478 118 q 481 203 481 164 q 481 306 481 243 l 481 435 q 480 685 481 599 q 476 772 479 771 q 472 801 472 775 q 471 818 472 813 q 468 827 469 824 q 465 835 467 831 q 464 846 464 839 q 433 904 464 869 l 417 924 l 388 924 q 347 917 361 924 q 315 904 332 911 q 300 894 306 900 q 292 868 294 889 q 290 803 290 847 q 289 679 289 760 l 289 671 q 290 562 289 599 q 293 503 292 525 q 296 465 294 482 q 297 417 297 449 m 494 935 q 488 938 494 947 q 490 931 485 933 q 494 935 494 928 m 565 950 q 571 953 571 950 q 568 960 571 957 q 562 963 565 963 q 558 957 558 963 q 565 950 558 950 m 443 954 q 439 963 443 963 q 433 951 433 963 q 438 944 433 940 q 443 954 443 947 m 550 986 q 546 993 550 993 q 542 990 542 993 q 544 985 542 988 q 548 982 546 982 q 550 986 550 982 m 503 1022 q 496 1026 503 1026 q 490 1022 490 1026 q 496 1018 490 1018 q 503 1022 503 1018 m 93 -68 q 69 -53 78 -68 q 60 -32 60 -37 q 70 -6 60 -19 q 94 21 81 8 q 119 46 107 33 q 132 69 131 58 q 139 99 133 76 q 144 139 144 121 q 139 158 144 154 q 135 187 136 160 q 133 260 133 214 q 132 309 133 290 q 129 340 131 328 q 126 359 128 351 q 125 375 125 367 q 117 397 125 382 q 98 428 110 413 q 72 457 86 444 q 46 469 58 469 q 33 476 33 469 q 46 497 33 485 q 63 508 58 508 q 76 518 65 508 q 101 542 88 528 l 133 575 l 133 850 q 119 858 128 853 q 104 864 111 864 q 77 872 96 864 q 53 888 58 881 q 43 894 46 894 q 24 908 36 894 q 13 931 13 921 q 22 955 13 943 q 42 977 31 967 q 67 997 54 988 q 88 1013 79 1006 q 115 1040 103 1028 q 142 1051 128 1051 q 166 1039 151 1051 q 185 1026 181 1026 q 201 1018 192 1026 q 224 1003 211 1010 q 238 996 232 999 q 252 992 244 993 q 270 991 260 992 q 299 990 281 990 q 347 994 328 990 q 382 1004 367 999 q 413 1017 397 1010 q 449 1031 428 1025 q 490 1049 467 1036 q 535 1063 513 1063 q 560 1053 547 1063 q 585 1033 574 1044 q 603 1008 596 1021 q 610 989 610 996 q 614 977 610 979 q 618 964 618 975 q 619 951 618 956 q 623 941 621 946 q 626 928 625 936 q 629 907 628 921 q 631 866 631 899 q 631 785 631 833 q 633 677 632 736 q 634 556 633 618 q 635 435 635 494 q 635 325 635 375 q 635 231 635 267 q 633 192 635 194 q 623 176 632 188 q 603 153 614 165 q 583 132 593 142 q 571 122 574 122 q 563 116 569 122 q 546 101 556 110 q 467 32 471 32 q 455 24 465 32 q 433 6 444 17 q 388 -35 401 -25 q 364 -44 374 -44 q 338 -38 353 -44 q 317 -24 324 -32 q 304 -15 311 -15 q 288 -6 300 -15 q 258 13 275 3 q 222 32 240 24 q 190 40 204 40 q 147 17 164 40 q 118 -28 129 -6 q 102 -60 107 -51 q 93 -68 97 -68 z "},"E":{"ha":657,"x_min":-24,"x_max":679,"o":"m 474 582 q 496 577 482 582 q 524 566 510 572 q 552 554 539 560 q 572 549 565 549 q 615 582 601 549 q 623 599 619 592 q 628 606 626 606 q 635 601 631 606 q 644 590 639 596 q 653 578 650 583 q 657 569 657 572 q 647 549 657 563 q 629 536 636 536 q 619 529 629 536 l 585 496 q 575 489 575 489 q 562 480 572 489 q 538 460 551 471 q 511 438 521 446 q 494 426 501 431 q 478 422 486 422 q 458 421 471 421 q 436 419 443 421 q 422 411 429 417 q 417 403 418 407 q 414 388 415 400 q 413 351 413 375 q 413 281 413 326 q 413 213 413 238 q 413 174 413 189 q 416 153 414 160 q 421 138 418 146 q 457 101 431 114 q 513 89 483 89 q 558 97 536 89 q 590 124 579 106 q 606 144 597 133 q 614 167 614 156 q 624 190 615 182 q 644 197 633 197 q 660 192 653 197 q 667 175 667 186 q 653 139 667 158 q 629 119 639 119 q 621 113 628 119 q 606 100 614 107 q 591 87 597 93 q 582 81 585 81 q 574 74 581 81 q 559 61 567 68 q 545 48 551 54 q 538 42 539 42 q 526 33 533 42 q 451 -21 499 3 q 361 -44 404 -44 q 305 -28 332 -44 q 253 13 278 -11 q 210 63 229 38 q 178 107 190 89 q 158 141 172 115 q 131 196 144 167 q 106 252 117 225 q 94 292 94 279 q 92 313 94 299 q 85 344 89 328 q 76 374 81 360 q 68 396 72 389 q 65 402 67 399 q 64 408 64 406 q 57 422 64 413 q 42 442 50 432 q 25 460 33 453 q 14 468 17 468 q 2 474 7 468 q -10 481 -3 481 q -24 492 -24 481 q -19 505 -24 499 q -7 511 -14 511 q 25 533 11 524 q 46 552 36 543 q 56 564 56 561 q 64 578 56 571 q 72 594 72 586 q 76 617 72 603 q 83 649 79 632 q 91 680 88 665 q 94 700 94 694 q 99 720 94 708 q 110 744 104 732 q 120 765 115 756 q 125 778 125 774 q 131 798 125 785 q 145 825 138 811 q 161 851 153 839 q 174 867 169 863 q 181 876 181 871 q 203 903 181 879 q 253 956 225 928 q 308 1008 282 985 q 343 1031 335 1031 q 353 1037 349 1031 q 364 1043 358 1043 q 367 1042 367 1043 q 362 1032 367 1039 q 351 1018 357 1025 q 340 1004 344 1011 q 335 994 335 997 q 331 982 335 990 q 320 965 326 974 q 308 947 314 956 q 299 935 301 939 q 288 917 294 929 q 276 894 282 906 q 267 872 271 882 q 263 858 263 861 q 251 829 263 844 q 240 799 240 814 q 238 778 240 793 q 231 744 235 764 q 224 699 226 724 q 221 649 221 674 q 222 589 221 621 q 226 528 224 557 q 231 480 228 500 q 236 457 233 460 q 240 443 240 453 q 251 407 240 425 q 263 374 263 389 q 269 356 263 371 q 283 324 275 342 q 299 292 292 307 q 311 274 307 278 q 318 261 318 267 q 321 258 318 258 l 322 258 q 326 284 325 260 q 326 349 326 308 q 326 399 326 381 q 325 428 326 418 q 322 444 324 439 q 315 457 319 450 q 305 469 313 463 q 289 483 297 476 q 274 498 281 490 q 268 513 268 506 q 286 535 268 526 q 319 568 310 546 q 323 580 322 572 q 325 603 324 588 q 326 643 326 618 q 326 707 326 668 q 325 778 326 756 q 322 815 324 801 q 319 839 321 828 q 318 875 318 850 q 319 908 318 892 q 322 931 319 924 q 331 944 325 936 q 342 958 336 951 q 354 970 349 965 q 363 975 360 975 q 371 980 365 975 q 383 990 376 985 q 394 1001 389 996 q 401 1006 400 1006 q 417 1014 407 1006 q 437 1032 426 1022 q 457 1050 447 1042 q 475 1058 467 1058 q 500 1052 486 1058 q 528 1039 514 1046 q 558 1026 543 1032 q 588 1019 574 1019 q 613 1027 599 1019 q 628 1046 628 1035 q 638 1060 628 1050 q 653 1069 649 1069 q 668 1060 657 1069 q 679 1046 679 1051 q 667 1028 679 1042 q 637 1001 654 1015 q 602 972 619 986 q 574 949 585 957 q 533 916 549 928 q 504 898 517 904 q 479 890 492 892 q 449 889 467 889 l 428 889 q 411 886 414 889 q 408 872 408 883 l 408 842 q 408 785 408 818 q 410 717 408 753 l 414 553 q 433 562 425 557 q 447 571 440 567 q 459 578 453 575 q 474 582 465 582 m 550 964 l 549 965 q 542 960 546 965 q 538 953 538 956 l 539 954 q 543 957 540 954 q 550 964 550 961 m 365 775 q 361 782 365 782 q 357 775 357 782 q 361 768 357 768 q 365 775 365 768 m 181 618 q 188 624 188 618 q 182 626 188 626 q 176 622 176 626 q 181 618 176 618 m 464 532 q 454 528 461 531 q 447 524 447 526 q 450 519 447 519 q 458 525 453 519 q 464 532 463 531 m 119 460 q 115 464 119 464 q 111 457 111 464 q 114 453 111 453 q 119 460 119 453 m 344 238 l 346 238 q 349 236 349 236 q 353 238 351 236 q 354 238 353 238 l 353 239 l 350 239 q 344 238 344 239 m 314 111 q 310 115 314 115 q 301 112 306 115 q 297 106 297 108 l 297 104 q 301 103 299 103 q 310 106 306 103 q 314 111 314 108 m 279 97 q 272 101 279 101 q 267 97 267 101 q 272 93 267 93 q 279 97 279 93 m 371 82 q 374 81 372 81 q 381 83 381 81 l 379 85 l 376 85 q 371 83 371 85 l 371 82 z "},"F":{"ha":638,"x_min":28,"x_max":629,"o":"m 338 47 q 342 46 339 46 q 346 51 346 46 q 343 63 346 57 q 338 69 340 69 l 336 68 q 333 58 333 65 q 338 47 333 50 m 197 193 q 203 197 203 193 q 199 200 203 200 q 192 197 192 200 q 196 193 192 196 l 197 193 m 189 342 q 193 344 193 342 q 186 350 193 350 q 182 346 182 350 q 189 342 182 342 m 408 515 q 414 521 411 515 q 417 529 417 526 q 415 531 417 531 q 409 526 413 531 q 406 518 406 522 q 407 515 406 517 l 408 515 m 169 608 q 165 613 169 613 q 158 607 158 613 q 163 604 158 604 q 169 608 169 604 m 197 611 q 197 621 196 617 q 192 625 197 625 q 186 621 186 625 q 190 612 186 617 q 196 607 193 607 q 197 608 197 607 l 197 611 m 463 1003 q 460 1008 463 1004 q 456 1011 458 1011 q 454 1008 454 1011 q 456 1003 454 1007 q 461 1000 458 1000 q 463 1003 463 1000 m 31 929 q 35 940 31 938 q 40 951 40 943 q 49 972 40 960 q 68 995 57 985 q 90 1013 79 1006 q 107 1021 101 1021 q 132 1026 118 1021 q 160 1036 146 1031 q 190 1047 175 1042 q 217 1051 204 1051 q 229 1053 225 1051 q 237 1056 233 1054 q 244 1058 240 1057 q 257 1060 249 1060 q 276 1062 260 1060 q 315 1066 292 1064 q 365 1069 339 1068 q 413 1071 392 1071 q 437 1069 429 1071 q 450 1066 444 1068 q 461 1062 456 1064 q 479 1060 467 1060 q 493 1058 489 1060 q 501 1056 497 1057 q 508 1053 504 1054 q 518 1051 511 1051 q 556 1041 536 1051 q 592 1013 575 1031 q 619 974 608 996 q 629 932 629 953 q 626 907 629 915 q 616 893 622 899 q 602 883 610 888 q 585 869 594 878 q 567 855 575 861 q 558 849 560 849 q 545 835 558 849 q 513 806 532 822 q 475 777 494 790 q 442 764 456 764 q 431 767 436 764 q 425 779 425 771 q 431 790 425 785 q 446 802 438 796 q 460 817 454 808 q 467 836 467 825 q 456 869 467 850 q 439 888 446 888 q 427 892 435 888 q 411 903 419 897 q 394 913 403 908 q 379 918 386 918 q 366 921 376 918 q 342 926 356 924 q 312 932 328 929 q 279 935 296 935 q 267 930 271 935 q 260 910 263 925 q 256 866 257 894 q 256 789 256 838 l 256 706 l 256 615 q 257 515 256 540 q 265 489 258 489 q 289 501 274 489 q 336 542 304 513 q 382 582 368 571 q 406 593 396 593 q 419 589 411 593 q 438 579 428 585 q 460 569 449 574 q 479 565 471 565 q 493 561 488 565 q 507 557 499 557 q 523 562 514 557 q 540 574 532 567 q 555 587 549 581 q 561 596 561 593 q 568 609 561 601 q 582 617 575 617 q 597 610 592 617 q 601 596 601 604 q 588 569 601 578 q 560 549 576 563 q 528 521 543 535 q 489 488 508 506 q 472 475 485 488 q 368 432 429 432 q 292 451 328 432 q 268 460 278 460 q 254 417 254 460 q 255 388 254 404 q 256 350 256 371 q 249 236 256 275 q 243 183 243 197 q 238 169 243 181 q 233 149 233 158 q 240 139 233 139 q 256 144 249 139 q 283 149 263 149 q 388 104 342 149 q 403 88 399 93 q 407 79 407 83 q 406 72 407 75 q 396 63 401 63 q 387 56 394 63 q 372 43 379 50 q 357 30 364 36 q 349 24 350 24 q 336 15 346 24 q 313 -7 326 6 q 264 -36 282 -36 q 236 -23 249 -36 q 200 1 224 -10 q 150 14 174 14 q 85 -28 104 14 q 69 -53 78 -43 q 54 -62 61 -62 q 37 -52 46 -62 q 28 -31 28 -42 q 35 -17 28 -26 q 49 1 42 -8 q 64 18 57 10 q 71 29 71 26 q 78 42 71 35 q 90 74 88 53 q 101 103 93 94 q 104 137 104 106 q 104 213 104 168 q 103 279 104 244 q 102 343 103 314 q 101 393 101 372 q 99 419 100 414 q 87 435 97 424 q 64 462 76 447 q 42 488 51 476 q 32 504 32 500 q 42 519 32 508 q 64 543 51 531 q 87 566 76 556 q 99 579 97 576 q 101 591 100 583 q 103 613 103 599 q 105 651 104 628 q 106 711 106 675 q 105 761 106 740 q 104 797 104 782 q 106 825 104 814 q 111 845 107 836 q 123 863 115 854 q 143 882 131 871 q 162 901 157 893 q 167 911 167 908 q 164 913 167 913 q 148 908 158 913 q 125 897 138 904 q 101 883 113 890 q 81 868 89 875 q 68 857 74 861 q 61 853 63 853 q 49 869 57 853 q 40 893 40 885 q 35 908 40 897 q 31 929 31 919 z "},"G":{"ha":714,"x_min":-22,"x_max":694,"o":"m 578 1025 q 610 1033 593 1025 q 626 1053 626 1042 q 632 1063 626 1058 q 643 1068 638 1068 q 660 1058 650 1068 q 669 1040 669 1047 q 663 1028 669 1036 q 649 1011 657 1019 q 634 997 642 1003 q 624 990 626 990 q 615 984 622 990 q 601 971 608 978 q 586 958 593 964 q 578 951 579 951 q 569 947 575 951 q 556 936 563 943 q 527 911 538 919 q 508 899 517 903 q 490 894 500 894 q 464 893 481 893 q 414 885 422 892 q 410 873 411 883 q 408 826 408 863 q 407 718 407 790 q 407 519 407 646 q 408 251 407 342 q 411 158 408 160 q 415 147 415 157 q 424 128 415 139 q 447 107 433 117 q 475 90 460 97 q 503 83 490 83 q 524 88 515 83 q 532 104 532 93 q 533 115 532 111 q 535 126 535 119 q 538 142 536 132 q 539 171 539 153 l 539 231 q 535 342 538 301 q 529 406 533 383 q 517 441 525 429 q 494 465 510 453 q 462 494 469 488 q 444 506 454 500 q 433 518 433 513 q 444 535 433 522 q 460 547 456 547 q 469 553 463 547 q 486 568 476 560 q 523 601 508 588 q 548 621 538 614 q 565 631 558 628 q 575 633 571 633 q 599 628 586 633 q 619 613 611 622 q 632 604 628 604 q 651 589 639 604 q 674 553 663 574 q 681 537 678 543 q 685 523 683 531 q 686 504 686 515 q 686 474 686 493 q 688 433 686 444 q 690 415 689 422 q 693 395 692 407 q 694 353 694 383 q 693 312 694 324 q 690 292 692 300 q 688 274 689 285 q 686 239 686 264 q 681 178 686 190 q 658 151 678 172 q 616 107 639 129 q 574 67 593 85 q 550 49 554 49 q 544 44 549 49 q 534 36 539 40 q 524 28 529 32 q 517 24 519 24 q 502 13 513 24 q 486 1 492 1 q 474 -7 482 1 q 463 -15 467 -15 q 442 -26 457 -15 q 421 -37 428 -37 q 398 -42 418 -37 q 360 -47 378 -47 q 344 -42 347 -47 q 331 -37 340 -37 q 299 -22 321 -37 q 256 12 278 -7 q 217 48 233 31 q 200 69 200 65 q 195 80 200 71 q 183 99 190 89 q 171 118 176 110 q 163 128 165 126 q 147 154 158 131 q 123 207 135 178 q 102 263 111 236 q 93 299 93 290 q 90 312 93 310 q 83 325 86 314 q 55 424 72 388 q -4 476 38 461 q -17 483 -11 479 q -22 490 -22 488 q -15 501 -22 493 q 1 519 -8 510 q 22 538 11 529 q 38 549 32 546 q 63 581 50 556 q 76 624 76 606 q 78 635 76 632 q 81 642 79 639 q 83 649 82 644 q 85 661 85 653 q 94 703 85 675 q 117 763 104 732 q 142 818 129 793 q 164 849 156 843 q 171 860 171 853 q 181 875 171 865 q 192 889 192 885 q 206 906 192 892 q 236 938 219 921 q 268 968 253 954 q 285 982 283 982 q 294 988 288 982 q 308 1001 300 994 q 324 1015 317 1008 q 332 1021 331 1021 q 339 1026 333 1021 q 351 1036 344 1031 q 363 1047 357 1042 q 374 1051 369 1051 q 376 1046 376 1051 q 372 1037 376 1043 q 363 1024 368 1031 q 352 1013 357 1018 q 346 1004 347 1007 q 325 971 339 993 q 297 925 311 949 q 272 881 282 901 q 261 853 261 861 q 256 833 261 846 q 246 806 251 821 q 235 775 240 790 q 231 747 231 760 q 229 729 231 747 q 226 685 228 711 q 222 630 224 660 q 219 576 219 600 q 222 549 219 557 q 226 535 224 540 q 229 523 228 529 q 231 501 231 517 q 235 467 231 486 q 246 428 240 447 q 256 393 251 410 q 261 368 261 376 q 265 357 261 360 q 269 347 269 354 q 276 328 269 343 q 290 299 282 314 q 306 271 297 283 q 318 258 314 258 q 324 274 322 258 q 325 311 325 289 q 325 363 325 336 q 323 410 325 389 q 318 444 321 431 q 308 457 315 457 q 298 462 306 457 q 283 474 290 467 q 269 489 275 481 q 263 506 263 497 q 265 513 263 507 q 288 551 278 538 q 304 574 297 564 q 316 597 311 585 q 324 630 321 608 q 328 688 326 651 q 329 782 329 724 l 329 793 q 330 888 329 854 q 333 938 331 921 q 343 960 336 954 q 363 975 350 967 q 387 994 371 981 q 421 1023 403 1008 q 455 1049 439 1038 q 479 1060 471 1060 q 498 1054 486 1060 q 510 1046 510 1049 q 532 1032 510 1039 q 578 1025 554 1025 m 132 681 q 128 687 132 683 q 124 683 124 690 q 128 676 124 676 q 132 681 132 676 m 563 444 q 556 449 563 449 q 552 444 549 449 q 558 440 556 440 q 563 444 563 440 m 647 401 q 653 406 650 401 q 650 410 657 410 q 643 406 643 410 q 647 401 643 401 m 368 161 q 364 165 368 165 q 358 161 361 165 q 361 157 354 157 q 368 161 368 157 m 424 17 q 419 24 424 24 q 415 17 415 24 q 419 10 415 10 q 424 17 424 10 z "},"H":{"ha":679,"x_min":13,"x_max":704,"o":"m 435 794 q 436 815 435 808 q 438 825 438 821 q 440 833 439 829 q 442 844 442 836 q 432 881 442 869 q 407 900 422 893 q 373 913 392 907 q 338 928 354 918 l 317 940 l 336 961 q 351 976 344 969 q 361 982 358 982 q 380 995 364 982 q 431 1040 396 1008 q 467 1060 451 1060 q 495 1055 482 1060 q 522 1044 508 1050 q 549 1034 535 1039 q 582 1029 564 1029 l 613 1029 l 639 1057 q 659 1076 650 1068 q 671 1085 668 1085 q 691 1074 678 1085 q 704 1057 704 1063 q 690 1038 704 1051 q 656 1008 675 1024 q 620 977 638 993 q 597 950 603 961 q 591 932 593 942 q 589 886 589 922 q 590 813 589 857 q 591 717 590 768 q 593 610 592 665 q 596 506 594 556 q 598 415 597 456 q 599 351 599 375 q 601 293 599 315 q 605 256 603 271 q 608 229 607 240 q 610 206 610 218 q 614 187 610 190 q 618 175 618 183 q 623 159 618 171 q 635 134 628 147 q 651 109 643 121 q 664 90 658 97 l 679 75 l 667 61 q 650 49 654 49 q 642 42 649 49 q 626 29 635 36 q 612 16 618 22 q 603 10 606 10 q 576 -11 597 10 q 547 -36 561 -26 q 525 -46 533 -46 q 511 -34 521 -46 q 490 -6 501 -22 q 471 28 479 11 q 463 54 463 44 q 461 63 463 60 q 458 71 460 67 q 456 82 457 75 q 454 101 454 89 q 453 137 454 124 q 449 165 451 150 q 446 203 447 181 q 444 265 444 225 q 445 307 444 285 q 446 350 446 329 q 440 419 446 390 q 411 447 433 447 q 376 444 394 447 q 322 440 358 440 l 281 440 q 256 435 261 440 q 251 410 251 431 q 252 394 251 403 q 253 375 253 386 q 252 338 253 349 q 250 321 251 328 q 247 306 249 314 q 243 274 244 297 q 235 237 240 246 q 231 215 231 228 q 226 198 231 207 q 216 181 221 189 q 206 165 211 172 q 201 151 201 157 q 210 147 201 147 q 243 152 221 147 q 281 157 265 157 q 294 152 292 157 q 308 147 297 147 q 328 140 317 147 q 351 124 340 133 q 369 106 361 114 q 376 93 376 97 q 358 71 376 90 q 315 30 339 51 q 267 -10 290 8 q 233 -28 243 -28 q 207 -11 222 -28 q 138 24 174 24 q 99 5 114 24 q 74 -32 83 -14 q 62 -50 67 -46 q 50 -54 57 -54 q 19 -32 19 -54 q 28 -1 19 -19 q 48 35 38 17 q 67 68 58 53 q 76 92 76 83 q 81 103 76 101 q 85 117 85 106 q 90 133 85 128 q 93 196 92 164 q 94 253 93 222 q 94 311 94 283 q 94 360 94 342 q 94 391 94 379 q 92 408 93 403 q 89 418 92 414 q 65 449 82 433 q 28 475 47 465 q 13 492 13 483 q 19 506 13 499 q 33 519 25 513 q 50 531 42 525 q 64 543 58 538 l 93 571 l 93 690 q 92 754 93 732 q 89 790 90 776 q 86 813 88 803 q 85 840 85 824 q 81 863 85 860 q 76 878 76 867 q 69 888 76 881 q 55 905 63 896 q 40 922 47 914 q 33 932 33 931 q 45 948 33 936 q 61 960 57 960 q 73 969 63 960 q 97 989 83 978 q 123 1010 111 1000 q 139 1025 135 1021 q 182 1049 163 1049 q 208 1035 197 1049 q 229 1001 219 1021 l 240 979 l 243 772 q 244 691 243 729 q 245 624 244 653 q 247 577 246 594 q 249 560 247 560 q 279 567 254 560 q 325 574 304 574 q 353 575 344 574 q 367 578 361 576 q 379 581 372 579 q 403 582 386 582 q 433 587 426 582 q 440 615 440 592 q 440 666 440 639 q 438 718 439 693 q 435 764 436 743 q 435 794 435 785 m 454 907 q 450 913 454 913 q 446 907 446 913 q 450 900 446 900 q 454 907 454 900 m 465 672 q 474 676 472 672 q 465 681 476 681 q 456 676 454 681 q 465 672 458 672 m 150 582 q 151 587 151 582 q 151 597 151 592 q 149 608 150 603 q 147 613 147 613 q 139 608 140 613 q 140 597 138 603 q 145 587 142 592 q 150 582 149 582 m 97 461 q 92 465 97 465 q 85 461 85 465 q 92 457 85 457 q 97 461 97 457 m 518 260 q 527 265 525 260 q 529 274 529 269 q 526 280 529 278 q 518 278 522 282 q 515 267 515 275 q 518 260 515 260 z "},"I":{"ha":315,"x_min":8,"x_max":313,"o":"m 244 800 q 245 716 244 746 q 247 668 246 686 q 249 639 247 650 q 251 609 250 628 q 252 559 251 590 q 253 471 253 528 q 253 406 253 438 q 252 349 253 374 q 251 308 251 324 q 249 293 250 293 q 244 274 244 292 q 243 262 244 265 q 240 256 242 258 q 236 249 238 253 q 233 239 235 246 q 218 197 231 219 q 206 156 206 174 q 238 144 206 144 q 280 137 260 144 q 300 121 300 129 q 306 108 300 114 q 313 92 313 103 q 294 62 313 83 q 252 17 275 40 q 210 -23 229 -6 q 188 -40 190 -40 q 178 -35 185 -40 q 164 -22 171 -29 q 137 -1 151 -10 q 107 7 122 7 q 69 -18 81 7 q 56 -36 64 -28 q 44 -44 49 -44 q 29 -33 38 -44 q 21 -15 21 -22 q 33 21 21 4 q 58 61 46 38 q 91 161 85 114 q 97 267 97 208 l 97 326 q 96 382 97 358 q 88 423 94 406 q 70 453 82 440 q 38 475 58 465 q 15 485 22 482 q 8 493 8 489 q 28 517 8 500 q 61 543 49 536 q 80 558 74 550 q 88 581 86 565 q 89 633 89 596 l 89 711 q 88 777 89 751 q 85 821 88 803 q 82 851 83 839 q 78 876 81 864 q 70 890 76 882 q 57 908 64 899 q 44 925 50 917 q 38 938 38 933 q 53 960 38 944 q 89 993 69 976 q 125 1022 108 1010 q 143 1035 142 1035 q 160 1046 151 1035 q 181 1057 169 1057 q 217 1030 200 1057 q 235 971 235 1003 q 236 947 235 958 q 240 919 238 936 q 243 874 242 901 q 244 800 244 846 m 154 751 q 149 756 154 756 q 144 749 144 756 q 147 744 144 744 q 154 751 154 744 m 131 418 q 135 421 135 418 q 131 424 135 424 q 124 422 124 424 q 128 418 124 421 l 131 418 z "},"J":{"ha":506,"x_min":28,"x_max":499,"o":"m 431 350 q 433 344 431 342 q 433 353 436 347 q 431 350 431 361 m 65 839 q 63 841 65 842 q 57 838 60 840 q 54 835 54 836 q 58 835 54 833 q 65 839 65 838 m 160 943 q 156 949 160 946 q 151 946 151 953 q 156 939 151 939 q 160 943 160 939 m 329 193 q 327 230 329 217 q 322 253 325 243 q 316 274 318 264 q 314 297 314 283 q 313 313 314 308 q 310 320 311 317 q 307 328 308 324 q 306 342 306 332 q 304 363 306 356 q 301 379 303 371 q 297 399 299 388 q 294 431 296 410 q 291 477 293 463 q 288 507 289 492 q 285 545 286 522 q 285 617 285 568 q 286 692 285 667 q 289 735 288 718 q 292 769 290 753 q 293 815 293 785 l 293 835 q 292 861 293 851 q 283 876 290 871 q 263 882 276 881 q 224 883 249 883 l 196 883 q 162 884 176 883 q 136 885 147 885 q 101 880 113 885 q 89 858 89 875 q 92 840 89 851 q 94 819 94 829 q 85 792 94 803 q 63 781 75 781 q 38 797 47 781 q 28 836 28 813 q 38 908 28 874 q 65 970 49 942 q 101 1019 82 999 q 139 1050 121 1040 q 165 1057 146 1054 q 203 1060 185 1060 q 227 1058 219 1060 q 242 1056 235 1057 q 263 1053 250 1054 q 306 1051 276 1051 q 329 1053 314 1051 q 364 1056 344 1054 q 405 1058 383 1057 q 444 1060 426 1060 q 483 1057 468 1060 q 499 1046 499 1054 q 492 1037 499 1044 q 479 1021 486 1029 q 466 1005 472 1013 q 460 994 460 997 q 456 983 460 986 q 451 965 451 979 q 450 951 451 956 q 447 942 449 946 q 444 931 446 938 q 443 910 443 924 q 442 876 443 888 q 440 853 440 865 q 438 824 439 842 q 436 768 436 806 q 444 592 436 653 q 451 501 451 531 q 453 485 451 490 q 456 476 454 479 q 458 469 457 474 q 460 456 460 465 q 460 443 460 449 q 464 435 461 438 q 469 417 467 432 q 475 380 472 401 q 479 334 478 358 q 481 289 481 310 q 475 228 481 251 q 458 181 469 204 q 451 161 451 167 q 435 131 451 153 q 393 83 419 110 q 335 26 367 56 q 269 -29 303 -3 q 204 -56 238 -56 q 156 -37 182 -56 q 106 7 129 -18 q 68 57 83 32 q 53 94 53 82 q 48 123 53 96 q 43 172 43 150 q 48 192 43 189 q 53 208 53 196 q 59 222 53 217 q 65 233 65 226 q 71 243 65 236 q 83 257 76 250 q 97 269 90 264 q 107 275 104 275 q 122 285 111 275 q 136 296 132 296 q 147 305 138 296 q 169 324 157 314 q 192 343 181 335 q 208 351 203 351 q 213 347 213 351 q 206 328 213 343 q 199 303 199 314 q 194 287 199 299 q 189 264 189 275 q 194 251 189 254 q 199 238 199 249 q 202 223 199 233 q 211 201 206 213 q 222 180 217 189 q 231 168 226 171 q 238 158 238 161 q 247 144 238 156 q 269 122 257 133 q 292 100 281 110 q 306 90 303 90 q 317 99 313 90 q 324 123 321 108 q 328 156 326 138 q 329 193 329 175 z "},"K":{"ha":683,"x_min":10,"x_max":699,"o":"m 97 328 q 96 358 97 347 q 94 374 94 368 q 92 385 93 381 q 90 399 90 390 q 73 435 90 415 q 31 467 56 454 q 14 477 18 474 q 11 485 10 481 q 20 499 14 492 q 31 507 26 507 q 42 515 33 507 q 63 533 51 522 l 90 560 l 90 690 q 90 758 90 732 q 88 804 89 785 q 83 838 86 824 q 78 868 81 851 q 70 881 76 872 q 57 897 64 889 q 44 913 50 906 q 39 925 39 921 q 58 949 39 929 q 103 990 78 968 q 151 1030 128 1013 q 181 1047 174 1047 q 189 1043 183 1047 q 201 1032 194 1039 q 236 953 236 1001 q 238 923 236 935 q 240 894 239 911 q 243 850 242 878 q 244 772 244 822 q 245 667 244 711 q 247 622 246 622 q 259 631 250 622 q 277 651 268 640 q 293 672 286 663 q 300 683 300 682 q 304 692 300 686 l 326 719 q 331 728 331 726 q 339 740 331 732 q 347 753 347 747 q 358 768 347 758 q 368 783 368 778 q 377 796 368 788 q 386 808 386 804 q 392 818 386 807 l 419 850 q 428 867 422 856 q 433 885 433 879 q 418 893 433 893 q 397 898 410 893 q 371 911 383 903 q 349 930 358 919 q 339 950 339 940 q 342 960 339 956 q 347 965 344 965 q 356 971 347 965 l 385 994 q 393 1000 393 1000 q 403 1007 396 1000 q 420 1022 411 1014 q 438 1038 429 1031 q 447 1047 446 1046 q 457 1053 453 1050 l 483 1068 l 500 1054 q 535 1031 515 1042 q 564 1021 554 1021 q 577 1017 569 1021 q 589 1017 585 1014 q 599 1022 594 1021 q 608 1025 604 1024 q 617 1030 613 1026 q 626 1043 621 1033 q 638 1065 632 1053 q 651 1076 644 1076 q 667 1071 657 1076 q 678 1063 678 1065 q 683 1049 678 1051 q 688 1042 688 1046 q 669 1021 688 1039 q 629 983 651 1003 q 587 947 607 963 q 564 931 567 931 q 553 922 563 931 q 533 904 543 914 q 514 885 522 894 q 506 874 506 876 q 496 858 506 868 q 484 844 492 853 q 470 825 476 835 q 459 808 464 815 q 454 799 454 800 q 446 788 454 794 q 438 775 438 781 q 427 757 438 771 q 403 726 417 743 q 380 697 390 710 q 369 681 369 683 q 433 674 369 674 q 480 669 465 674 q 501 665 494 665 l 504 665 l 510 667 q 549 650 533 667 q 576 607 565 633 q 594 548 588 581 q 603 483 600 515 q 608 424 607 451 q 608 379 608 396 q 610 327 608 342 q 613 303 611 313 q 615 283 614 294 q 618 244 617 272 q 623 200 619 218 q 633 167 626 182 q 650 140 640 153 q 674 114 660 128 q 692 94 685 103 q 699 82 699 85 q 688 65 699 76 q 672 53 676 53 q 663 47 669 53 q 646 33 656 42 q 586 -18 606 -3 q 554 -33 567 -33 q 538 -26 546 -33 q 518 -8 529 -19 q 480 51 492 19 q 464 138 468 82 q 460 168 463 158 q 457 188 458 178 q 455 216 456 199 q 454 267 454 233 q 453 318 454 301 q 450 344 451 335 q 447 362 449 353 q 446 390 446 371 q 444 408 446 401 q 442 418 443 414 q 439 426 440 422 q 438 436 438 429 q 428 476 438 457 q 401 512 418 496 q 359 537 383 528 q 307 546 335 546 l 290 546 q 269 544 276 546 q 258 533 261 542 q 253 506 254 524 q 253 456 253 488 l 253 417 q 251 355 253 376 q 249 321 250 333 q 246 298 247 308 q 244 271 244 288 q 240 247 244 251 q 236 231 236 243 q 232 218 236 221 q 228 208 228 215 q 218 173 228 192 q 208 147 208 154 q 213 142 208 143 q 222 140 218 140 q 251 145 235 140 q 283 150 268 150 q 309 143 294 150 q 338 126 324 136 q 363 106 353 117 q 372 85 372 94 q 351 57 372 71 q 324 35 339 50 q 292 4 308 19 q 262 -22 276 -11 q 235 -33 247 -33 q 222 -28 228 -33 q 208 -15 217 -24 q 143 17 178 17 q 128 14 138 17 q 111 6 119 11 q 97 -5 103 1 q 90 -17 90 -11 q 76 -40 90 -25 q 54 -56 63 -56 q 32 -47 43 -56 q 21 -28 21 -37 q 25 -15 21 -25 q 34 7 29 -4 q 44 27 39 18 q 51 38 50 36 q 58 47 54 39 q 67 65 63 54 q 76 86 72 75 q 82 106 81 97 q 94 201 90 146 q 97 328 97 257 m 193 992 q 189 996 193 996 q 185 989 185 996 q 189 985 185 982 q 193 992 193 989 m 206 883 q 212 888 214 883 q 206 893 210 893 q 199 888 201 893 q 206 883 197 883 m 214 713 q 210 719 214 715 q 206 715 206 722 q 210 708 206 708 q 214 713 214 708 m 206 650 q 201 657 206 657 q 197 654 197 657 q 199 649 197 651 q 203 646 201 646 q 206 650 206 646 m 221 524 q 222 515 215 515 q 226 525 229 515 q 221 524 225 529 m 193 424 q 189 433 193 431 q 185 424 185 435 q 189 415 185 413 q 193 424 193 417 m 146 267 q 142 271 146 271 q 138 264 138 271 q 142 260 138 257 q 146 267 146 264 m 153 204 q 158 212 157 204 q 153 219 160 219 q 147 212 146 219 q 153 204 149 204 z "},"L":{"ha":432,"x_min":-6,"x_max":457,"o":"m 63 582 q 61 605 63 594 q 58 628 60 615 q 53 660 56 642 q 51 706 51 678 q 53 780 51 751 q 61 828 56 808 q 76 867 67 849 q 100 910 86 885 q 110 924 103 915 q 124 940 117 932 q 139 953 132 947 q 147 958 146 958 q 158 966 150 958 q 175 982 165 974 q 193 998 185 990 q 203 1006 201 1006 q 216 1013 208 1006 q 232 1027 224 1019 q 249 1042 240 1035 q 264 1049 257 1049 q 303 1038 281 1049 q 346 1026 326 1026 q 378 1033 369 1026 q 401 1064 388 1039 q 417 1082 411 1082 q 435 1068 422 1082 q 449 1049 449 1054 q 390 993 417 1017 q 346 953 367 971 q 317 936 325 936 q 300 924 313 936 q 282 911 288 911 q 261 904 274 911 q 239 897 249 897 q 203 880 213 897 q 193 835 193 863 q 197 792 193 814 q 205 748 200 769 q 213 708 210 726 q 217 679 217 690 q 218 663 217 668 q 222 654 219 658 q 225 644 224 650 q 228 628 226 639 q 238 549 233 572 q 244 515 242 526 q 247 494 246 504 q 247 454 247 485 q 253 415 247 442 q 260 367 260 388 q 258 351 260 356 q 253 342 256 346 q 249 331 251 338 q 247 311 247 325 q 247 291 247 297 q 244 281 246 285 q 241 272 243 276 q 238 254 239 267 q 234 236 238 249 q 225 210 231 224 q 213 181 219 196 q 199 156 206 167 q 196 147 196 153 q 203 143 196 143 q 235 149 214 143 q 264 156 256 156 q 280 157 275 156 q 289 160 285 158 q 297 163 293 161 q 311 164 301 164 q 359 160 340 164 q 397 147 378 156 q 415 136 404 143 q 435 121 425 129 q 451 105 444 113 q 457 94 457 97 q 448 83 457 93 q 428 61 439 72 q 408 41 418 50 q 396 32 399 32 q 387 26 394 32 q 372 13 379 19 q 357 -1 364 6 q 347 -7 350 -7 q 333 -17 343 -7 q 319 -28 322 -28 q 311 -24 318 -28 q 297 -15 304 -21 q 283 -6 289 -10 q 275 1 276 -1 q 235 23 268 13 q 168 33 203 33 q 100 20 131 33 q 60 -25 69 7 q 40 -50 51 -50 q 8 -31 31 -50 l -6 -18 l 17 4 q 74 91 54 43 q 93 174 93 139 q 99 210 93 179 q 104 268 104 242 q 103 286 104 281 q 99 297 101 292 q 95 310 97 303 q 93 335 93 318 q 78 413 93 381 q 19 474 63 446 q 6 492 6 482 q 13 508 6 500 q 29 522 19 515 q 47 535 39 529 q 57 544 56 540 q 61 560 60 550 q 63 582 63 571 m 132 142 q 139 143 136 139 q 135 147 142 147 q 132 142 125 147 m 372 106 q 364 121 372 113 q 358 124 360 125 q 358 117 357 122 q 361 108 360 113 q 363 101 363 103 q 368 96 363 96 q 372 106 372 96 z "},"M":{"ha":921,"x_min":10,"x_max":929,"o":"m 739 263 q 735 267 739 267 q 728 261 728 267 q 732 258 728 258 q 739 263 739 258 m 182 276 q 185 275 183 275 q 192 278 192 275 l 190 279 l 188 279 q 182 278 182 279 l 182 276 m 204 431 q 207 429 206 429 q 214 432 214 429 l 213 433 l 210 433 q 204 432 204 433 l 204 431 m 121 456 q 117 460 121 460 q 113 456 113 460 q 117 451 113 451 q 121 456 121 451 m 458 460 q 464 465 461 460 q 467 472 467 469 q 463 468 464 469 q 457 461 457 463 q 458 460 457 460 m 133 508 q 140 510 138 508 q 143 510 142 510 l 136 510 l 128 510 q 129 508 128 508 l 133 508 m 764 551 q 760 558 764 558 q 756 551 756 558 q 760 546 756 546 q 764 551 764 546 m 185 608 q 176 614 181 614 q 172 610 172 614 q 182 604 172 607 q 185 603 185 604 q 186 603 185 603 l 188 604 l 186 606 q 185 608 186 607 m 756 675 q 749 682 756 682 q 743 679 743 682 q 753 669 743 669 q 756 675 756 669 m 388 846 q 383 850 388 850 q 378 843 378 850 q 381 839 378 839 q 388 846 388 839 m 119 1000 q 131 1006 122 1000 q 148 1021 139 1013 q 167 1035 157 1029 q 182 1042 176 1042 q 217 1017 203 1042 q 238 968 231 993 q 256 942 244 942 q 269 948 263 942 q 281 962 275 954 q 294 976 288 969 q 308 982 301 982 q 320 991 313 982 q 333 1000 328 1000 q 348 1010 338 1000 q 363 1021 358 1021 q 378 1027 368 1021 q 399 1040 388 1033 q 422 1053 411 1047 q 438 1060 432 1060 q 447 1055 440 1060 q 460 1044 454 1050 q 472 1031 467 1038 q 476 1022 476 1025 q 481 1010 476 1018 q 492 994 486 1003 q 504 976 499 985 q 513 964 510 968 l 521 953 l 539 965 q 560 985 547 971 q 581 1000 574 1000 q 593 1007 583 1000 q 614 1025 603 1014 q 649 1050 635 1043 q 675 1057 664 1057 q 699 1050 688 1057 q 722 1035 710 1043 q 751 1019 735 1026 q 792 1013 768 1013 q 826 1019 815 1013 q 849 1050 838 1026 q 864 1072 858 1072 q 867 1071 865 1072 q 889 1040 889 1054 q 883 1024 889 1032 q 869 1006 876 1015 q 856 988 863 997 q 850 968 850 979 q 846 954 850 957 q 844 930 844 954 q 842 867 843 906 q 842 782 842 829 q 842 686 842 735 q 842 608 842 646 q 842 540 842 569 q 842 493 842 511 q 844 475 843 475 q 848 436 847 474 q 849 349 849 399 q 854 249 850 299 q 867 171 858 199 q 892 119 879 131 q 901 107 901 113 q 906 99 901 104 q 915 88 910 94 l 929 74 l 901 46 q 881 26 890 35 q 869 18 872 18 q 858 10 867 18 q 838 -8 849 3 q 803 -36 815 -28 q 782 -44 792 -44 q 757 -32 771 -44 q 743 -14 743 -19 q 730 9 743 -4 q 717 35 717 22 q 713 47 717 43 q 704 112 708 51 q 697 267 700 172 q 695 322 696 301 q 693 360 694 343 q 691 393 692 376 q 690 436 690 410 q 688 503 689 463 q 688 610 688 544 l 688 864 q 672 878 679 874 q 646 883 665 883 q 609 890 625 883 q 581 904 593 896 q 558 919 568 913 q 536 925 547 925 q 526 910 528 925 q 524 851 524 896 q 524 805 524 822 q 526 774 525 788 q 528 749 528 761 q 531 714 529 736 q 533 657 532 692 q 533 567 533 622 q 534 407 533 463 q 538 350 535 351 q 542 335 542 349 q 550 319 542 331 q 567 296 558 308 q 585 272 576 283 q 593 257 593 261 q 581 238 593 251 q 551 210 568 225 q 517 182 533 196 q 492 160 500 168 q 479 147 485 153 q 471 142 474 142 q 458 137 460 142 q 451 132 456 132 q 443 137 449 132 q 431 147 438 142 q 421 158 425 153 q 417 165 417 164 q 403 183 417 168 q 371 217 390 197 l 325 263 l 347 285 q 374 324 368 306 q 379 378 379 342 q 378 423 379 397 q 378 485 378 449 q 377 580 378 531 q 376 672 376 629 q 374 744 375 714 q 371 785 372 775 q 356 845 365 819 q 338 879 347 871 q 331 889 331 886 q 326 897 331 892 q 316 908 322 903 q 304 918 310 914 q 294 922 299 922 q 254 901 269 922 q 239 856 239 881 q 242 783 239 832 q 246 667 246 733 q 247 526 246 575 q 250 475 247 476 q 256 460 254 472 q 257 431 257 449 q 255 382 257 408 q 251 331 253 356 q 247 291 249 307 q 244 274 244 275 q 235 223 242 246 q 217 175 229 200 q 204 147 204 153 q 210 139 204 144 q 240 133 218 133 q 285 121 268 133 q 313 90 303 108 q 315 82 315 85 q 310 73 315 78 q 293 57 306 68 q 260 28 278 43 q 226 -1 242 13 q 199 -25 211 -15 q 183 -36 188 -35 q 176 -39 178 -39 q 157 -25 171 -39 q 130 -3 144 -12 q 104 6 115 6 q 87 -4 93 6 q 76 -26 81 -14 q 66 -47 71 -37 q 53 -57 61 -57 q 33 -45 43 -57 q 22 -22 22 -33 q 31 7 22 -8 q 51 38 40 22 q 69 67 61 53 q 78 94 78 82 q 83 114 78 106 q 92 144 89 122 q 99 214 96 178 q 101 285 101 250 q 94 379 101 338 q 71 439 88 421 q 58 448 68 442 q 38 460 49 454 q 18 473 26 467 q 10 482 10 479 q 22 499 10 488 q 38 511 33 511 q 65 535 44 511 l 89 558 l 89 699 l 89 763 q 88 817 89 796 q 83 853 88 838 q 72 881 79 869 q 49 907 64 893 l 31 924 l 49 943 q 63 956 56 950 q 72 961 69 961 q 81 967 75 961 q 96 981 88 974 q 111 994 104 988 q 119 1000 118 1000 z "},"N":{"ha":853,"x_min":-10,"x_max":871,"o":"m 117 57 q 124 63 124 57 q 119 65 124 65 q 113 61 113 65 q 117 57 113 57 m 204 132 q 206 133 206 132 q 203 139 206 136 q 200 142 201 142 q 199 138 199 142 q 203 132 199 135 l 204 132 m 626 215 q 615 225 626 225 q 610 221 610 225 q 611 215 610 218 q 619 211 614 211 q 626 215 626 211 m 696 239 q 690 243 696 243 q 685 240 688 243 l 685 239 q 689 236 685 236 q 696 239 696 236 m 511 342 q 507 349 511 349 q 503 346 503 349 q 504 340 503 343 q 508 338 506 338 q 511 342 511 338 m 606 382 q 601 386 606 386 q 597 381 597 386 q 600 375 597 375 q 606 382 606 375 m 733 531 q 724 532 733 532 q 717 529 717 532 q 726 524 717 524 q 733 531 733 524 m 224 824 q 217 828 224 828 q 213 825 213 828 q 219 819 213 819 q 224 824 224 819 m 301 997 q 299 1004 301 1004 q 294 1000 297 1004 l 294 999 q 299 993 294 993 q 301 997 301 993 m 268 1063 q 284 1057 281 1063 q 299 1051 288 1051 q 312 1044 303 1051 q 331 1028 321 1038 q 349 1010 342 1018 q 357 997 357 1001 q 367 970 357 985 q 389 940 376 956 q 411 910 401 925 q 421 882 421 896 q 435 847 421 875 q 457 799 450 814 q 464 781 464 785 q 478 746 464 774 q 499 699 490 719 q 515 660 507 679 q 531 624 522 642 q 550 582 539 606 q 562 556 557 567 q 567 544 567 546 q 570 535 567 543 q 577 517 574 526 q 584 500 581 508 q 588 490 588 492 q 594 474 588 488 q 619 421 600 460 q 631 397 626 407 q 635 385 635 388 q 641 367 635 378 q 651 357 647 357 q 656 370 654 357 q 657 428 657 383 q 657 499 657 456 q 656 604 657 542 q 653 750 654 697 q 650 828 653 803 q 642 860 647 854 q 628 867 638 867 l 618 867 q 563 876 594 867 q 517 897 531 885 q 504 906 508 906 q 488 918 500 906 l 475 932 l 511 965 q 535 986 528 981 q 547 995 542 992 q 558 1003 551 999 q 576 1019 564 1007 q 622 1051 611 1051 q 647 1038 629 1051 q 703 1007 675 1018 q 753 996 732 996 q 775 1002 764 996 q 797 1017 786 1008 q 813 1036 807 1026 q 819 1053 819 1046 q 831 1076 819 1076 q 843 1070 836 1076 q 856 1056 850 1064 q 867 1038 863 1047 q 871 1019 871 1028 q 856 1004 871 1004 q 840 994 851 1004 q 816 971 829 985 q 792 944 803 957 q 778 924 781 931 q 774 906 775 918 q 772 855 772 893 q 770 742 771 817 q 769 535 769 667 l 769 410 q 769 307 769 354 q 769 224 769 260 q 770 168 769 189 q 771 144 771 147 q 787 127 774 135 q 815 113 800 119 q 842 101 829 107 q 854 88 854 94 q 833 60 854 81 q 761 -4 813 40 l 728 -33 l 704 -32 q 681 -27 693 -31 q 658 -19 668 -24 q 636 -3 650 -15 q 608 22 622 8 q 585 47 594 35 q 575 63 575 58 q 565 85 575 67 q 543 124 556 103 q 521 163 531 144 q 511 188 511 182 q 508 197 511 189 q 500 213 504 204 q 492 230 496 222 q 489 239 489 238 q 482 265 489 250 q 466 296 475 281 q 450 326 457 311 q 443 353 443 342 q 440 363 443 356 q 432 379 436 371 q 424 396 428 388 q 421 406 421 404 q 417 417 421 408 q 408 435 413 425 q 400 453 404 444 q 396 464 396 463 q 388 485 396 467 q 370 527 381 504 q 351 572 360 550 q 338 599 342 593 q 330 614 333 607 q 326 624 326 621 q 322 636 326 626 q 312 658 317 646 q 302 680 307 669 q 297 692 297 690 q 292 704 297 693 q 281 731 288 715 q 265 763 274 746 q 250 793 257 779 q 244 804 247 799 q 238 810 240 810 q 235 793 236 810 q 233 739 233 776 q 232 640 232 701 q 232 492 232 579 l 232 171 q 244 158 238 164 q 263 151 251 151 q 276 147 274 151 q 289 142 279 142 q 308 135 294 142 q 334 120 321 129 q 358 102 347 111 q 368 89 368 93 q 338 50 368 79 q 269 -12 294 10 q 225 -35 243 -35 q 201 -22 213 -35 q 183 -8 196 -15 q 156 6 171 0 q 128 15 142 11 q 104 18 114 18 q 67 -1 83 18 q 43 -36 50 -21 q 35 -50 39 -50 q 22 -45 29 -50 q 7 -34 14 -40 q -5 -21 0 -28 q -10 -8 -10 -14 q 2 13 -10 0 q 19 26 14 26 q 40 42 22 26 q 76 76 57 57 q 110 111 94 94 q 125 131 125 128 q 126 140 125 131 q 130 165 128 150 q 133 195 132 179 q 135 225 135 211 q 129 251 135 247 q 126 277 126 253 q 125 343 125 301 l 125 432 l 111 446 q 91 458 103 454 q 69 465 79 463 q 51 472 58 468 q 43 483 43 475 q 47 495 43 488 q 56 511 51 503 q 67 526 61 519 q 74 532 72 532 q 95 548 81 532 q 117 576 110 564 q 122 590 119 583 q 124 615 124 597 q 125 664 125 632 q 125 751 125 696 l 125 844 q 124 895 125 876 q 115 914 122 914 q 98 902 107 914 q 81 877 89 890 q 63 852 72 864 q 44 840 54 840 q 15 875 31 840 l 8 890 l 49 928 q 74 949 65 943 q 88 960 82 956 q 99 968 93 964 q 117 985 106 972 q 140 1004 136 1004 q 152 1010 144 1004 q 169 1022 160 1015 q 188 1036 178 1029 q 204 1046 197 1043 q 230 1056 208 1049 q 268 1063 251 1063 z "},"O":{"ha":728,"x_min":8,"x_max":700,"o":"m 8 536 q 10 563 8 554 q 15 576 13 571 q 18 588 17 582 q 19 606 19 593 q 21 619 19 615 q 24 627 22 624 q 28 635 26 631 q 29 647 29 639 q 40 685 29 665 q 50 719 50 704 q 62 750 50 731 q 76 781 74 769 q 85 796 78 785 q 99 819 92 807 q 113 843 107 832 q 119 857 119 854 q 124 863 119 858 q 132 873 128 868 q 140 883 136 878 q 144 890 144 889 q 160 910 144 894 q 196 942 175 925 q 236 975 217 960 q 264 996 256 990 l 293 1024 q 301 1029 301 1029 q 313 1036 304 1029 q 331 1051 321 1043 q 351 1065 342 1058 q 364 1072 360 1072 q 383 1064 372 1072 q 400 1042 393 1056 q 414 1033 403 1033 q 449 1047 429 1033 q 479 1060 468 1060 q 507 1053 492 1060 q 529 1039 522 1047 q 542 1029 536 1029 q 561 1015 547 1029 q 590 981 575 1000 q 618 942 606 961 q 631 917 631 924 q 635 910 631 917 q 644 892 639 903 q 653 871 649 882 q 657 849 657 860 q 662 819 657 835 q 672 786 667 803 q 681 753 676 769 q 686 724 686 738 q 688 704 686 711 q 693 690 690 697 q 698 672 696 682 q 700 642 700 661 q 698 580 700 614 q 693 515 696 546 q 688 464 690 485 q 686 440 686 443 q 685 426 686 431 q 682 419 683 422 q 679 412 681 415 q 678 401 678 408 q 674 387 678 389 q 669 374 669 385 q 665 360 669 363 q 661 347 661 358 q 652 316 661 338 q 631 270 643 294 q 608 226 619 246 q 589 197 596 206 q 576 180 582 188 q 571 171 571 172 q 563 160 571 169 q 544 141 554 151 q 524 122 533 131 q 513 114 514 114 q 493 101 508 114 q 460 74 478 89 q 428 44 443 58 q 408 26 413 29 q 394 14 403 22 q 376 -3 385 6 q 358 -17 367 -11 q 343 -24 349 -24 q 328 -33 336 -24 q 307 -42 319 -42 q 288 -39 299 -42 q 268 -32 278 -36 q 250 -23 258 -28 q 239 -14 242 -18 q 234 -9 236 -11 q 229 -7 232 -7 q 213 6 226 -7 q 185 33 200 18 q 157 62 169 49 q 144 78 144 75 q 138 89 144 85 q 119 113 132 93 q 92 156 106 132 q 69 201 79 179 q 58 231 58 222 q 53 245 58 235 q 44 269 49 256 q 34 299 39 282 q 29 332 29 315 q 28 342 29 339 q 24 349 26 346 q 21 355 22 351 q 19 367 19 358 q 18 385 19 367 q 15 428 17 403 q 10 483 13 454 q 8 536 8 513 m 319 811 q 319 842 319 832 q 317 858 318 851 q 316 869 317 864 q 315 888 315 875 q 324 942 315 922 q 356 975 332 963 q 367 989 367 981 q 357 999 367 999 q 341 994 350 999 q 329 990 332 990 q 301 979 318 990 q 269 953 285 968 q 242 922 253 938 q 231 894 231 906 q 223 864 231 881 q 207 830 215 847 q 191 795 199 813 q 183 761 183 778 q 179 744 183 746 q 175 726 175 742 q 172 706 175 722 q 166 669 169 690 q 160 624 163 647 q 157 585 157 601 q 158 568 157 574 q 162 558 160 563 q 165 549 164 554 q 167 531 167 543 q 168 513 167 518 q 171 504 169 508 q 174 495 172 500 q 175 479 175 490 q 177 458 175 467 q 182 443 179 450 q 188 428 185 436 q 194 404 192 419 q 211 359 197 393 q 243 289 225 325 q 280 224 261 253 q 311 196 299 196 q 319 207 318 196 q 321 254 321 218 l 321 299 q 321 352 321 332 q 319 384 321 372 q 317 402 318 396 q 313 414 315 408 q 285 444 304 429 q 235 458 267 458 q 217 459 224 458 q 210 461 210 460 q 217 472 210 464 q 232 488 224 479 q 249 503 240 496 q 258 510 257 510 q 270 517 261 510 q 290 536 279 525 l 315 564 l 319 713 l 319 811 m 550 500 q 549 520 550 514 q 545 531 547 526 q 542 543 543 536 q 540 565 540 550 q 539 584 540 578 q 536 594 538 590 q 533 603 535 599 q 532 617 532 607 q 527 644 532 628 q 517 676 522 660 q 506 707 511 693 q 501 729 501 721 q 499 742 501 735 q 493 757 496 750 q 488 770 490 764 q 485 778 485 776 q 475 801 485 785 q 453 835 465 818 q 428 866 440 853 q 410 879 415 879 q 408 838 408 879 q 407 736 407 796 l 407 636 q 410 589 407 600 q 428 578 414 578 q 441 570 432 578 q 460 552 450 563 q 478 531 469 542 q 492 513 488 519 l 501 492 l 476 468 q 451 444 465 458 q 425 419 436 431 l 399 396 l 397 254 q 397 203 397 225 q 396 167 396 182 q 401 108 396 122 q 428 94 407 94 q 450 108 439 94 q 471 138 461 121 q 487 170 481 154 q 493 192 493 186 q 499 216 493 200 q 513 251 506 232 q 526 291 519 271 q 532 325 532 311 q 535 349 532 329 q 541 394 538 368 q 547 450 544 421 q 550 500 550 479 m 626 742 q 621 749 626 749 q 618 744 618 749 q 622 738 618 738 q 626 742 626 738 m 90 726 q 88 731 90 731 q 85 726 85 731 q 86 719 85 719 q 90 724 89 719 l 90 726 m 636 700 q 629 710 636 710 q 626 706 626 710 q 632 696 626 696 q 636 699 633 696 l 636 700 m 631 651 q 624 656 631 656 q 618 649 618 656 q 621 644 618 644 q 631 651 631 644 m 71 644 l 69 646 q 64 641 68 646 q 58 633 60 636 l 60 635 q 64 638 61 635 q 71 644 71 642 m 85 604 q 81 608 85 608 q 76 601 76 608 q 79 597 76 597 q 85 604 85 597 m 290 492 q 285 496 290 496 q 278 492 278 496 q 285 488 278 488 q 290 492 290 488 m 90 435 q 88 439 90 439 q 85 435 85 439 q 86 428 85 428 q 90 432 89 428 l 90 435 m 651 419 q 654 421 654 419 q 647 426 654 424 q 635 429 640 429 q 632 428 632 429 l 632 426 q 647 419 632 419 l 651 419 m 86 342 q 94 344 94 342 q 86 350 94 350 q 78 344 78 350 q 86 342 78 342 z "},"P":{"ha":657,"x_min":13,"x_max":613,"o":"m 235 397 q 231 403 235 400 q 226 400 226 407 q 231 393 226 393 q 235 397 235 393 m 564 488 q 556 490 561 492 q 548 484 551 488 q 546 478 544 481 q 556 479 547 475 q 564 488 567 485 m 201 733 q 194 738 201 738 q 191 733 188 738 q 197 728 194 728 q 201 733 201 728 m 164 789 q 163 796 167 793 q 158 792 158 799 q 164 789 158 782 m 288 819 q 289 781 288 793 q 292 753 290 768 q 294 710 293 738 q 296 629 296 683 q 297 514 296 543 q 304 485 299 485 q 309 488 307 485 q 315 493 311 490 q 335 507 321 499 q 366 524 349 515 q 401 538 383 532 q 433 544 419 544 l 457 546 l 457 679 q 456 778 457 735 q 453 829 454 822 q 444 855 451 840 q 428 884 438 869 q 407 908 419 899 q 382 918 394 918 q 360 913 374 918 q 331 899 346 907 q 306 884 317 892 q 292 871 294 876 q 288 851 289 865 q 288 819 288 836 m 171 915 q 164 918 171 928 q 166 911 161 914 q 171 915 171 908 m 129 919 q 138 919 132 917 q 135 921 143 921 q 129 919 128 921 m 501 922 q 508 926 504 922 q 504 931 511 931 q 497 926 497 931 q 501 922 497 922 m 278 922 q 284 926 281 922 q 281 931 288 931 q 274 926 274 931 q 278 922 274 922 m 504 974 q 506 965 499 965 q 510 974 513 964 q 504 974 508 979 m 13 939 q 19 956 13 946 q 33 976 25 965 q 49 993 40 986 q 61 1000 57 1000 q 72 1008 64 1000 q 89 1024 79 1015 q 107 1040 99 1032 q 117 1047 115 1047 q 131 1055 124 1047 q 147 1063 139 1063 q 169 1056 158 1063 q 192 1040 181 1049 q 213 1024 203 1031 q 229 1017 222 1017 q 252 1008 236 1017 q 276 1000 268 1000 q 287 999 283 1000 q 294 995 290 997 q 303 992 297 993 q 319 990 308 990 q 374 994 344 990 q 410 1006 403 999 q 419 1008 413 1008 q 439 1015 428 1008 q 461 1028 450 1021 q 483 1041 472 1035 q 500 1047 493 1047 q 511 1049 508 1047 q 517 1051 514 1050 q 524 1051 519 1051 q 538 1044 528 1050 q 585 1007 569 1029 q 607 943 600 985 q 610 906 608 935 q 612 838 611 878 q 613 751 613 797 q 613 664 613 706 q 609 567 613 596 q 606 521 606 539 q 601 508 606 510 q 596 496 596 506 q 592 486 596 493 q 584 471 589 479 q 574 456 579 463 q 564 444 568 449 q 558 435 558 439 q 545 419 558 431 q 496 375 532 407 q 483 363 489 368 q 474 358 476 358 q 456 349 467 358 q 438 335 446 339 q 418 323 426 329 q 403 310 410 317 l 392 319 q 382 333 382 329 q 378 340 382 335 q 369 353 374 346 q 360 365 364 360 q 356 372 356 371 q 350 376 356 376 q 338 384 346 376 q 325 392 331 392 q 313 367 317 392 q 308 310 310 342 q 303 251 306 279 q 290 218 300 224 q 288 208 288 217 q 285 200 288 207 q 278 185 282 193 q 271 169 274 176 q 268 160 268 163 q 279 157 268 157 q 303 157 290 157 q 320 156 314 157 q 331 153 326 154 q 338 150 335 151 q 347 149 342 149 q 365 142 354 149 q 385 124 375 135 q 403 104 396 114 q 411 88 411 94 q 403 68 411 79 q 388 57 394 57 q 379 51 386 57 q 364 38 372 46 q 349 25 356 31 q 340 19 343 19 q 318 3 332 19 q 294 -21 304 -12 l 272 -37 l 249 -14 q 218 13 229 6 q 197 19 207 19 q 182 24 190 19 q 164 28 174 28 q 142 17 150 28 q 128 -6 135 7 q 117 -30 122 -19 q 101 -40 111 -40 q 82 -31 92 -40 q 72 -12 72 -22 q 85 13 72 0 q 99 31 92 19 q 113 55 107 42 q 124 81 119 68 q 131 103 129 94 q 134 125 132 115 q 138 149 136 135 q 140 183 139 163 q 140 239 140 204 l 140 353 l 126 381 q 114 400 122 389 q 95 421 106 411 q 74 438 85 431 q 51 444 63 444 q 36 451 36 444 q 49 472 36 458 q 79 498 63 485 q 110 522 96 511 q 125 533 124 532 q 135 549 132 539 q 139 593 139 560 q 138 657 139 617 q 133 760 136 697 q 131 804 132 789 q 129 828 131 819 q 125 842 128 838 q 117 854 122 847 q 88 884 100 876 q 47 906 75 892 q 13 939 13 924 z "},"Q":{"ha":726,"x_min":11,"x_max":700,"o":"m 503 -33 q 506 -32 510 -36 q 500 -28 503 -28 q 503 -33 489 -28 m 319 14 q 315 19 319 19 q 311 14 311 19 q 315 7 311 7 q 319 14 319 7 m 381 26 q 383 28 383 25 q 381 33 382 31 q 378 38 379 36 q 376 33 376 39 q 381 26 376 29 m 225 90 q 221 97 225 97 q 217 94 217 97 q 219 89 217 92 q 223 86 221 86 q 225 90 225 86 m 88 263 q 83 269 88 269 q 79 263 79 269 q 83 257 79 257 q 88 263 88 257 m 135 375 q 126 376 135 376 q 119 374 119 376 q 123 372 119 372 q 131 371 126 371 q 135 375 135 371 m 581 422 q 584 424 588 419 q 578 428 581 428 q 581 422 567 428 m 114 517 q 121 515 122 507 q 113 522 119 522 q 114 517 110 522 m 514 247 q 519 283 514 261 q 531 328 525 304 q 542 378 538 353 q 547 424 547 403 q 545 472 547 446 q 540 522 543 499 q 535 563 538 546 q 533 581 533 579 q 531 608 533 589 q 525 646 528 626 q 517 682 522 665 q 508 701 513 699 q 506 714 506 704 q 498 745 506 725 q 480 785 490 765 q 460 821 469 804 q 444 843 450 838 q 436 856 436 851 q 422 875 436 861 q 403 889 408 889 q 399 857 400 889 q 397 739 397 825 l 397 589 q 421 573 407 585 q 442 561 435 561 q 455 552 446 561 q 473 532 464 543 q 489 509 482 521 q 496 492 496 497 q 492 481 496 488 q 483 469 489 475 q 472 458 478 463 q 464 454 467 454 q 456 448 463 454 q 440 435 449 442 q 426 422 432 428 q 417 415 419 415 q 401 398 404 415 q 397 340 397 381 l 397 249 q 397 183 397 210 q 396 139 396 157 q 402 100 396 107 q 429 93 408 93 q 456 108 446 93 q 474 143 467 124 q 488 181 482 163 q 501 207 494 200 q 504 213 503 210 q 506 221 506 217 q 510 234 506 232 q 514 247 514 236 m 318 183 q 324 194 322 183 q 327 221 326 204 q 328 258 328 238 q 329 300 329 279 q 328 360 329 333 q 325 390 326 388 q 319 406 319 399 q 312 422 319 414 q 292 438 304 431 q 265 449 279 444 q 236 454 250 454 q 217 456 221 454 q 213 463 213 457 q 219 477 213 469 q 232 485 226 485 q 240 490 233 485 q 255 503 247 496 q 270 517 263 511 q 279 522 278 522 q 296 535 283 522 q 315 560 308 549 q 318 576 317 563 q 320 611 319 590 q 321 657 321 632 q 321 707 321 682 q 319 783 321 750 q 315 818 318 817 q 310 843 310 822 q 311 871 310 856 q 315 900 313 886 q 319 931 317 915 q 338 955 319 936 q 379 990 357 974 q 389 1003 389 999 q 382 1010 389 1007 q 365 1013 375 1013 q 313 997 339 1013 q 267 956 288 981 q 233 906 247 932 q 214 858 218 879 q 208 844 211 847 q 204 831 204 842 q 196 799 204 821 q 182 769 188 778 q 175 744 178 764 q 170 696 172 724 q 167 637 168 668 q 167 576 167 606 q 169 528 167 554 q 176 480 172 503 q 183 440 181 457 q 186 415 186 422 q 191 401 186 404 q 196 389 196 399 q 200 369 196 376 q 210 347 204 361 q 235 292 219 321 q 266 239 250 263 q 297 199 282 215 q 318 183 311 183 m 482 1056 q 492 1051 489 1056 q 503 1047 494 1047 q 524 1037 511 1047 q 543 1026 538 1026 q 576 1000 556 1026 q 616 938 596 974 q 650 865 636 903 q 664 807 664 828 q 668 794 664 797 q 672 776 672 792 q 677 758 672 760 q 682 739 682 756 q 685 713 682 735 q 691 661 688 690 q 697 600 694 632 q 700 543 700 568 q 699 520 700 528 q 695 507 697 513 q 692 495 693 501 q 690 475 690 489 q 687 444 690 461 q 678 410 683 426 q 669 378 674 393 q 663 353 664 364 q 651 318 661 342 q 631 269 642 294 q 608 224 619 244 q 592 199 597 204 q 582 185 582 192 q 572 172 582 183 q 546 145 561 161 q 512 112 531 129 q 476 80 493 94 q 448 56 460 65 q 433 46 436 46 q 429 40 431 46 q 429 29 428 35 q 433 21 431 24 q 442 24 436 18 q 474 33 451 33 q 506 30 489 33 q 538 22 524 26 q 564 14 553 18 q 576 7 575 10 q 589 -1 585 -1 q 602 -10 594 -1 q 614 -19 610 -19 q 624 -24 618 -19 q 637 -36 631 -29 q 647 -50 643 -43 q 651 -61 651 -57 q 638 -83 651 -68 q 588 -133 624 -99 q 542 -177 561 -158 q 519 -196 522 -196 q 511 -190 518 -196 q 496 -176 504 -183 q 481 -163 488 -169 q 472 -157 475 -157 q 460 -152 468 -157 q 445 -142 453 -147 q 430 -131 438 -136 q 415 -126 422 -126 q 385 -117 410 -126 q 342 -108 360 -108 q 327 -113 331 -108 q 313 -118 324 -118 q 276 -134 294 -118 q 244 -178 258 -150 q 214 -204 232 -204 q 206 -203 213 -204 q 194 -198 200 -201 q 182 -190 188 -194 q 176 -181 176 -186 q 192 -153 176 -171 q 228 -117 208 -136 q 263 -81 247 -99 q 279 -51 279 -64 q 271 -40 279 -44 q 238 -16 261 -35 q 189 24 214 3 q 145 66 164 46 q 126 94 126 86 q 113 126 126 104 q 83 175 100 149 q 53 228 67 201 q 40 274 40 256 q 30 320 40 293 q 19 376 19 347 q 18 397 19 392 q 15 408 17 403 q 13 422 14 414 q 11 449 11 431 q 13 507 11 474 q 16 571 14 540 q 22 624 18 601 q 28 653 25 647 q 32 669 32 660 q 36 681 32 679 q 40 692 40 682 q 44 703 40 694 q 51 722 47 713 q 59 739 56 731 q 63 750 63 747 q 67 763 63 753 q 78 786 72 774 q 92 811 85 799 q 104 829 100 824 q 114 841 110 836 q 118 847 118 846 q 135 871 118 851 q 172 912 151 890 q 210 951 192 933 q 232 969 228 969 q 242 976 235 969 q 258 990 249 982 q 286 1017 271 1003 q 317 1043 301 1031 q 345 1064 332 1056 q 368 1072 358 1072 q 384 1061 372 1072 q 411 1032 396 1050 q 414 1031 413 1031 q 427 1035 418 1031 q 447 1043 436 1039 q 467 1051 457 1047 q 482 1056 476 1056 z "},"R":{"ha":714,"x_min":17,"x_max":731,"o":"m 500 522 q 501 518 500 519 q 501 517 501 517 l 503 518 l 503 522 q 502 525 503 524 q 501 528 501 526 q 500 529 500 529 l 500 522 m 201 576 q 200 579 201 579 q 194 576 197 579 q 192 572 192 574 l 192 571 l 193 571 q 196 572 196 572 q 201 576 201 574 m 249 813 q 244 817 249 817 q 239 814 242 817 l 239 813 q 243 810 239 810 q 249 813 249 810 m 508 890 q 518 897 518 890 q 514 900 518 900 q 504 894 504 900 q 507 890 504 893 l 508 890 m 128 889 q 135 892 131 889 q 140 899 140 896 q 136 900 140 900 q 125 892 125 900 q 126 889 125 890 l 128 889 m 443 718 q 444 747 443 738 q 448 763 446 757 q 451 775 450 769 q 453 792 453 781 q 450 820 453 804 q 444 851 447 836 q 437 878 440 865 q 431 894 433 890 l 418 915 l 393 917 l 388 917 q 317 894 346 917 q 288 822 288 871 q 289 785 288 797 q 292 759 290 774 q 294 720 293 744 q 296 644 296 696 q 297 549 296 588 q 300 510 297 510 q 326 525 307 510 q 369 563 346 540 q 409 603 394 586 q 431 637 424 621 q 441 672 439 653 q 443 718 443 690 m 421 967 q 415 975 421 975 q 413 967 413 975 q 415 958 413 958 q 421 967 421 958 m 115 982 q 110 986 115 986 q 106 983 106 986 q 113 978 106 978 q 115 982 115 978 m 414 88 q 397 65 414 83 q 356 24 379 46 q 310 -14 333 3 q 275 -31 288 -31 q 263 -23 272 -31 q 241 -6 253 -15 q 219 10 229 3 q 207 18 210 18 q 192 24 193 21 q 175 28 190 28 q 149 16 158 28 q 132 -11 139 4 q 117 -38 125 -26 q 97 -50 110 -50 q 88 -47 93 -50 q 76 -39 82 -43 l 65 -28 l 75 -8 q 91 19 83 7 q 106 42 99 31 q 120 68 113 54 q 133 100 128 82 l 144 133 l 142 249 q 140 316 140 292 q 138 353 139 340 q 134 372 136 365 q 128 386 132 378 q 110 413 118 403 q 97 424 103 424 q 88 427 97 424 q 66 435 78 431 q 45 444 54 439 q 36 450 36 449 q 43 461 36 453 q 58 478 50 469 q 74 493 67 486 q 85 500 82 500 q 96 507 88 500 q 113 523 104 514 q 130 542 122 532 q 138 560 138 553 q 138 610 138 582 q 139 668 139 638 q 138 740 139 704 q 132 804 136 775 q 119 853 128 833 q 97 879 111 874 q 78 888 92 882 q 51 903 64 894 q 27 923 38 913 q 17 944 17 933 q 30 974 17 958 q 61 1006 43 990 q 97 1033 79 1021 q 125 1053 115 1046 q 150 1064 140 1064 q 174 1051 161 1064 q 358 992 232 992 q 379 998 375 992 q 393 1004 383 1004 q 429 1017 413 1004 q 460 1036 446 1029 q 482 1042 469 1040 q 521 1044 494 1044 q 562 1042 553 1044 q 578 1033 571 1040 q 597 1006 589 1024 q 606 978 606 989 q 607 963 606 969 q 610 949 608 957 q 613 928 611 940 q 614 894 614 915 l 614 854 q 613 792 614 817 q 605 747 611 767 q 585 708 599 726 q 547 663 571 689 q 522 633 532 646 q 511 619 511 621 q 522 617 511 617 q 559 605 540 617 q 593 576 578 593 q 618 536 608 558 q 628 493 628 514 q 629 473 628 479 q 632 460 631 467 q 635 442 633 453 q 636 410 636 432 q 638 367 636 378 q 640 347 639 356 q 643 324 642 339 q 644 271 644 310 q 646 231 644 246 q 649 207 647 217 q 651 190 650 197 q 653 176 653 183 q 658 158 653 169 q 669 133 663 146 q 686 108 676 121 q 706 85 696 94 q 731 49 731 60 q 725 44 731 44 q 712 36 719 44 q 700 28 704 28 q 672 16 689 28 q 638 -9 656 4 q 603 -34 621 -22 q 574 -46 586 -46 q 558 -40 568 -46 q 540 -25 549 -33 q 526 -10 532 -17 q 519 -1 519 -3 q 510 18 519 7 q 494 44 501 29 l 479 72 l 478 172 q 476 232 478 214 q 472 262 474 250 q 469 286 471 274 q 468 329 468 299 q 467 357 468 347 q 464 373 465 367 q 461 385 463 379 q 460 399 460 390 q 429 472 460 442 q 356 501 399 501 q 306 490 328 501 l 306 368 q 304 310 306 333 q 301 272 303 288 q 297 249 299 257 q 296 233 296 240 q 294 221 296 229 q 290 203 292 213 q 285 186 288 193 q 279 176 282 179 q 275 168 275 172 q 299 161 275 161 q 332 154 313 161 q 369 137 351 147 q 401 113 388 126 q 414 88 414 100 z "},"S":{"ha":607,"x_min":17,"x_max":604,"o":"m 536 207 q 531 213 532 210 q 524 214 524 217 q 530 208 524 211 q 536 207 536 206 m 143 214 q 144 205 138 206 q 149 214 151 204 q 143 214 147 219 m 458 404 q 453 407 458 414 q 454 400 450 403 q 458 404 458 397 m 138 889 q 142 890 139 886 q 147 899 144 894 q 148 906 149 904 q 140 900 147 907 q 138 889 135 894 m 500 961 q 503 966 507 961 q 497 971 500 971 q 493 965 493 971 q 500 961 493 961 m 481 996 q 474 1000 481 1000 q 467 996 467 1000 q 474 992 467 992 q 481 996 481 992 m 457 233 q 451 253 457 242 q 438 276 446 264 q 425 299 431 288 q 419 318 419 310 q 403 346 419 329 q 367 379 388 363 q 329 408 347 396 q 308 419 311 419 q 297 428 304 419 q 285 438 289 438 q 269 444 281 438 q 244 460 257 451 q 221 476 232 468 q 207 489 210 485 q 194 497 199 497 q 181 506 189 497 q 168 514 174 514 q 161 519 167 514 q 149 529 156 524 q 138 540 143 535 q 129 544 132 544 q 114 557 126 544 q 88 586 101 569 q 61 619 74 603 q 44 643 49 635 q 17 743 17 697 q 26 797 17 771 q 56 854 36 824 q 81 885 63 865 q 122 928 100 906 q 164 969 143 950 q 196 994 185 988 q 224 1012 208 1003 q 256 1028 240 1021 q 283 1039 271 1035 q 301 1043 296 1043 q 316 1044 310 1043 q 330 1047 322 1046 q 349 1050 338 1049 q 378 1051 360 1051 q 448 1042 421 1051 q 493 1015 475 1032 q 523 974 511 997 q 549 922 535 950 q 556 881 556 908 q 550 831 556 854 q 532 807 544 807 q 508 794 524 807 q 474 764 492 781 q 439 734 456 747 q 414 721 422 721 q 408 728 411 721 q 403 746 406 736 q 400 766 401 756 q 399 781 399 776 q 394 801 399 797 q 390 815 390 804 q 376 853 390 835 q 340 888 363 872 q 293 913 318 903 q 244 922 268 922 q 228 918 232 922 q 211 914 224 914 q 185 899 199 914 q 171 864 171 885 q 175 838 171 850 q 179 818 179 825 q 183 805 179 814 q 192 784 186 796 q 204 760 197 772 q 218 736 211 747 q 239 712 224 728 q 271 681 254 696 q 301 654 288 665 q 319 643 315 643 q 332 635 324 643 q 344 626 340 626 q 365 617 351 626 q 392 596 378 607 q 418 576 406 585 q 435 567 431 567 q 448 560 440 567 q 464 547 456 554 q 481 534 472 540 q 493 528 489 528 q 507 517 496 528 q 533 492 518 507 q 587 422 569 456 q 604 332 604 389 q 597 287 604 310 q 581 244 590 264 q 561 206 571 224 q 544 175 551 189 q 522 138 538 160 q 499 104 506 117 q 476 78 496 100 q 432 33 456 57 q 389 -9 408 10 q 367 -28 369 -28 q 343 -47 363 -28 q 324 -63 331 -60 q 306 -67 318 -67 q 261 -54 278 -67 q 228 -33 244 -42 q 174 -3 201 -21 q 128 35 146 15 q 116 46 121 42 q 108 50 111 50 q 94 60 106 50 q 72 82 83 69 q 51 108 60 94 q 42 129 42 121 q 33 156 42 144 q 24 188 24 168 q 28 228 24 207 q 33 254 33 249 q 40 273 33 258 q 55 303 46 288 q 75 331 64 319 q 94 343 86 343 q 105 349 97 343 q 124 365 113 356 q 172 407 156 394 q 192 419 189 419 q 205 426 199 419 q 218 433 211 433 q 232 421 225 433 q 239 399 239 408 q 224 381 239 381 q 199 368 218 381 l 179 356 l 179 319 q 183 288 179 294 q 188 269 188 281 q 199 243 188 260 q 223 210 210 226 q 249 183 236 194 q 267 171 263 171 q 285 159 269 171 q 319 133 300 147 q 359 106 339 118 q 393 93 379 93 q 411 108 400 93 q 433 145 422 124 q 450 191 443 167 q 457 233 457 215 z "},"T":{"ha":708,"x_min":-33,"x_max":736,"o":"m 332 179 q 331 187 332 186 q 328 185 329 188 q 326 179 326 183 q 328 174 326 175 q 332 179 332 172 m 319 490 q 315 494 319 494 q 311 488 311 494 q 315 484 311 481 q 319 490 319 488 m 276 496 q 282 491 281 490 q 283 494 283 492 q 281 500 283 497 q 275 503 279 503 q 276 496 272 503 m 290 522 q 297 526 293 519 q 299 532 301 532 q 292 528 296 532 q 290 522 288 525 m 360 942 q 355 949 360 947 q 350 942 350 951 q 355 934 350 932 q 360 942 360 936 m 332 971 q 326 975 332 975 q 319 971 319 975 q 326 967 319 967 q 332 971 332 967 m -33 876 q -24 890 -33 879 q -2 914 -14 901 q 20 936 10 926 q 33 946 31 946 q 46 952 38 946 q 65 966 54 958 q 83 981 75 974 q 96 990 92 989 q 149 1018 128 1007 q 183 1035 169 1029 q 206 1042 197 1040 q 224 1044 215 1044 q 238 1046 233 1044 q 249 1049 243 1047 q 263 1051 254 1050 q 288 1053 271 1053 q 313 1051 304 1053 q 326 1049 321 1050 q 337 1046 332 1047 q 350 1044 342 1044 q 365 1040 363 1044 q 379 1036 367 1036 q 417 1025 394 1036 q 458 1014 440 1014 q 472 1010 469 1014 q 485 1006 474 1006 q 513 1002 500 1006 q 538 995 525 999 q 566 988 550 992 q 604 985 582 985 q 641 985 628 985 q 661 990 654 986 q 670 1002 668 994 q 672 1024 672 1010 q 681 1051 672 1043 q 701 1060 690 1060 q 725 1050 714 1060 q 736 1022 736 1040 q 728 997 736 1010 q 707 972 719 983 q 682 949 694 960 q 661 929 669 938 q 651 919 656 924 q 644 915 647 915 q 634 911 640 915 q 621 901 628 907 q 607 891 614 896 q 594 883 600 886 q 567 868 579 876 q 540 860 556 860 q 524 858 539 860 q 490 855 508 857 q 456 851 472 853 q 438 846 440 849 q 435 819 436 844 q 433 754 435 794 q 431 663 432 714 q 431 558 431 611 q 428 275 429 433 q 420 226 424 242 q 415 201 417 210 q 411 188 413 193 q 410 174 410 183 q 404 151 410 169 q 399 126 399 133 q 421 122 399 122 q 445 123 432 122 q 468 124 458 124 q 497 119 479 124 q 531 106 514 114 q 561 89 549 99 q 574 68 574 79 q 562 49 574 63 q 535 22 550 36 q 506 -3 519 8 q 488 -19 492 -15 q 436 -53 453 -53 q 424 -49 433 -53 q 407 -39 415 -44 q 324 -4 358 -4 q 293 -12 304 -4 q 274 -32 282 -21 q 258 -53 265 -43 q 236 -69 250 -64 l 235 -69 q 226 -65 232 -69 q 216 -55 221 -61 q 207 -42 211 -49 q 203 -32 203 -36 q 210 -19 203 -24 q 217 -7 217 -14 q 226 8 217 -1 q 245 35 236 18 q 254 60 254 51 q 261 84 254 72 q 271 131 268 96 q 275 183 274 151 q 276 251 276 215 q 274 304 276 278 q 267 353 272 331 q 251 393 261 376 q 226 418 242 410 q 206 431 219 421 q 182 442 192 442 q 174 446 174 442 q 189 465 174 449 q 223 501 204 482 q 258 538 242 521 q 275 557 274 554 q 279 588 278 565 q 281 660 281 610 q 283 738 281 713 q 291 776 285 763 q 309 799 297 790 q 340 824 321 807 q 357 837 349 831 q 369 846 365 843 q 380 860 381 851 q 368 868 379 868 q 356 872 357 868 q 343 876 354 876 q 304 888 325 876 q 269 899 283 899 q 256 903 258 899 q 240 907 254 907 q 222 910 236 907 q 188 916 207 913 q 148 922 168 919 q 113 925 128 925 q 93 920 97 925 q 78 915 89 915 q 47 901 61 915 q 24 869 32 888 q 0 846 11 846 q -12 853 -7 846 q -22 860 -17 860 q -29 865 -25 860 q -33 876 -33 871 z "},"U":{"ha":689,"x_min":11,"x_max":692,"o":"m 588 904 q 584 849 588 888 q 581 725 581 810 q 581 597 581 665 q 581 469 581 529 q 583 365 582 410 q 586 306 585 319 q 592 266 589 281 q 597 243 594 251 q 602 229 600 235 q 604 215 604 224 q 613 188 604 206 q 632 152 621 171 q 655 117 643 133 q 674 94 667 101 q 685 80 681 88 q 690 69 690 72 q 684 59 690 67 q 668 44 678 51 q 644 22 660 38 q 611 -8 629 7 q 576 -35 593 -24 q 546 -47 558 -47 q 517 -31 529 -47 q 493 7 504 -14 q 472 44 482 28 q 453 61 463 61 q 439 53 450 61 q 416 34 428 44 q 394 15 404 24 q 382 7 383 7 q 377 3 381 7 q 368 -4 374 0 q 349 -19 363 -10 q 320 -37 336 -28 q 287 -52 304 -46 q 254 -58 269 -58 q 233 -55 246 -58 q 208 -45 221 -51 q 183 -31 194 -39 q 164 -15 171 -24 q 146 -3 151 -3 q 140 1 143 -3 q 133 7 136 4 q 113 22 126 15 q 90 28 100 28 q 77 21 83 28 q 65 5 71 14 q 51 -11 58 -4 q 36 -18 44 -18 q 20 -8 28 -18 q 13 11 13 1 q 24 26 13 22 q 43 42 32 29 q 65 76 54 56 q 83 123 75 97 q 90 175 90 149 q 90 221 90 188 q 85 292 89 254 q 75 361 82 329 q 56 403 68 393 q 50 413 50 408 q 44 422 50 415 q 31 437 38 429 q 17 452 24 444 q 11 461 11 460 q 71 519 11 468 l 89 535 l 89 631 q 88 688 89 671 q 85 717 86 706 q 82 740 83 728 q 79 778 81 751 q 67 853 76 825 q 35 906 58 882 q 19 925 19 921 q 39 947 19 928 q 83 988 58 965 q 133 1028 108 1010 q 167 1046 157 1046 q 200 1018 181 1046 q 217 990 211 1001 q 227 966 224 979 q 232 934 231 953 q 235 883 233 915 q 237 826 236 868 q 238 726 238 783 q 239 604 239 669 q 239 476 239 539 q 239 387 239 429 q 238 312 239 344 q 237 259 238 279 q 236 235 236 239 q 231 222 236 231 q 222 202 226 213 q 213 183 217 192 q 208 172 208 175 q 224 163 208 169 q 246 157 239 157 q 274 142 261 157 q 296 126 286 126 q 321 110 301 126 q 355 83 338 94 q 393 72 372 72 q 429 82 411 72 l 442 89 l 439 182 q 435 251 438 232 q 430 285 432 271 q 426 320 428 299 q 424 394 424 342 q 425 493 424 440 q 428 590 426 546 q 432 693 429 642 q 436 726 435 700 q 438 782 438 753 l 439 854 l 428 854 q 415 858 417 854 q 403 863 413 863 q 374 870 390 863 q 342 888 357 878 q 315 910 326 899 q 304 929 304 921 q 314 945 304 933 q 337 969 324 957 q 363 991 350 982 q 379 1000 375 1000 q 390 1006 382 1000 q 408 1020 399 1013 q 425 1035 417 1028 q 438 1043 433 1042 l 454 1049 l 481 1024 q 502 1006 492 1013 q 515 1000 513 1000 q 550 994 531 1000 q 589 989 569 989 q 614 994 603 989 q 632 1015 625 1000 q 644 1034 636 1026 q 653 1053 651 1042 q 672 1038 658 1053 l 692 1017 l 678 1001 q 660 988 664 988 q 653 983 657 988 l 629 965 q 622 961 625 961 q 614 953 619 961 q 602 937 608 946 q 592 918 596 928 q 588 904 588 908 m 181 939 q 183 936 181 936 q 188 942 188 936 l 186 943 l 186 947 q 185 947 185 947 q 181 944 182 947 q 181 939 181 942 m 113 844 q 121 850 121 844 q 113 854 121 854 q 104 850 104 854 q 113 844 104 844 m 533 840 q 539 844 539 840 q 536 850 539 847 q 531 853 533 853 q 528 847 528 853 q 533 840 528 840 m 149 761 q 144 768 149 768 q 140 765 140 768 q 142 760 140 763 q 146 757 143 757 q 149 761 149 757 m 171 526 q 164 531 171 531 q 157 526 157 531 q 164 522 157 522 q 171 526 171 522 m 539 239 q 534 246 539 240 q 528 251 529 251 q 533 244 528 250 q 539 239 538 239 m 626 83 q 619 88 626 88 q 615 85 615 88 q 622 79 615 79 q 626 83 626 79 z "},"V":{"ha":758,"x_min":-19,"x_max":796,"o":"m 388 240 q 395 254 392 240 q 402 285 399 268 q 408 316 406 301 q 410 332 410 331 q 416 374 410 351 q 429 420 422 397 q 442 466 436 443 q 449 508 449 489 q 453 524 449 521 q 457 539 457 526 q 462 557 457 540 q 472 596 467 574 q 483 640 478 618 q 488 671 488 661 q 489 681 488 678 q 492 688 490 685 q 494 694 493 690 q 496 706 496 697 q 506 751 496 722 q 515 803 515 779 q 507 828 515 817 q 488 840 499 840 q 462 853 475 840 q 439 867 449 867 q 430 871 436 867 q 417 882 424 875 l 400 897 l 435 931 q 449 944 438 933 q 473 965 460 954 q 497 985 486 976 q 511 994 508 994 q 528 1006 518 994 q 550 1017 539 1017 q 572 1006 561 1017 q 589 994 582 994 q 616 980 599 994 q 647 965 633 965 q 665 961 656 965 q 685 957 674 957 q 727 974 711 957 q 754 1019 743 992 q 768 1032 761 1032 q 787 1019 778 1032 q 796 993 796 1006 q 790 979 796 988 q 774 963 783 971 q 757 949 765 954 q 744 943 749 943 q 731 935 742 943 q 708 916 719 926 q 686 896 696 906 q 674 885 676 886 q 626 839 639 857 q 613 801 613 821 q 608 785 613 788 q 604 767 604 782 q 603 755 604 758 q 600 749 601 751 q 597 743 599 746 q 596 733 596 740 q 591 706 596 724 q 581 669 586 688 q 570 633 575 650 q 565 610 565 617 q 561 592 565 594 q 557 574 557 590 q 552 542 557 561 q 542 505 547 524 q 531 470 536 486 q 526 447 526 454 q 522 433 526 436 q 518 417 518 431 q 515 397 518 401 q 508 378 511 393 q 488 281 501 329 q 463 189 474 232 q 458 151 458 172 q 462 119 458 132 q 472 106 465 106 q 481 101 475 106 q 492 90 486 96 q 504 80 499 85 q 511 75 510 75 q 524 63 518 75 q 531 40 531 50 q 524 26 531 35 q 510 8 518 17 q 494 -6 501 0 q 486 -11 488 -11 q 472 -20 483 -11 q 419 -65 461 -29 l 397 -86 l 385 -74 q 376 -66 379 -69 q 369 -62 372 -62 q 359 -56 367 -62 q 343 -40 351 -50 q 240 6 299 6 q 187 -14 204 6 q 158 -61 169 -33 q 146 -86 150 -81 q 132 -92 142 -92 q 111 -84 121 -92 q 101 -68 101 -76 q 106 -60 101 -67 q 114 -48 110 -54 q 122 -36 118 -42 q 126 -29 126 -31 q 144 -12 126 -24 q 176 11 163 0 q 215 52 199 31 q 232 101 232 74 q 220 139 232 117 q 208 178 208 161 q 197 230 208 197 q 179 304 186 263 q 173 319 176 317 q 169 332 169 322 q 163 356 169 343 q 147 381 157 369 q 123 402 136 393 q 97 413 110 411 q 69 418 75 415 q 63 426 63 421 q 72 442 63 433 q 92 459 81 450 q 113 476 103 468 q 126 490 124 485 q 133 522 133 504 q 127 557 133 540 q 118 594 121 574 q 111 640 114 626 q 106 659 108 653 q 103 671 104 665 q 101 690 101 676 q 92 744 101 714 q 66 801 82 774 q 30 848 50 828 q -11 872 10 868 q -19 882 -19 874 q -10 903 -19 890 q 13 928 0 915 q 37 949 25 940 q 53 957 49 957 q 62 963 56 957 q 75 975 68 968 q 129 999 99 999 q 175 985 154 999 q 204 954 196 972 q 222 918 211 940 q 233 888 233 896 q 238 868 233 882 q 249 838 243 854 q 259 803 254 821 q 264 772 264 786 q 271 705 264 740 q 288 634 278 669 q 306 565 297 599 q 318 500 314 531 q 335 431 322 463 q 353 358 349 399 q 356 333 353 353 q 365 293 360 314 q 376 256 369 272 q 388 240 382 240 m 574 961 q 567 965 574 965 q 561 961 561 965 q 567 957 561 957 q 574 961 574 957 m 126 911 q 122 918 126 918 q 118 911 118 918 q 122 904 118 904 q 126 911 126 904 m 204 826 q 200 838 204 835 q 192 835 196 840 q 190 828 189 832 q 195 821 192 824 q 201 819 199 818 q 204 826 204 819 m 161 786 q 168 788 165 783 q 164 793 171 793 q 161 786 151 793 m 565 732 q 563 740 565 739 q 560 740 561 742 q 558 734 558 738 q 560 728 557 731 q 565 732 565 722 m 157 419 q 153 428 157 428 q 149 419 149 428 q 153 410 149 410 q 157 419 157 410 m 294 367 q 301 372 297 367 q 297 376 304 376 q 290 371 290 376 q 294 367 290 367 m 364 13 q 377 6 372 1 q 367 15 382 11 q 361 17 361 17 q 364 13 361 17 z "},"W":{"ha":890,"x_min":8,"x_max":910,"o":"m 483 18 q 488 22 486 18 q 489 28 489 25 q 488 29 488 29 q 483 25 486 29 q 482 19 482 24 l 482 18 l 483 18 m 168 43 q 161 47 168 47 q 157 44 157 47 q 164 38 157 38 q 168 43 168 38 m 435 138 q 429 146 435 146 q 425 135 425 146 q 428 126 425 126 q 435 138 435 126 m 711 158 q 710 154 710 157 q 713 150 710 150 q 717 156 717 150 l 717 160 q 715 163 715 163 q 711 158 714 163 m 460 261 q 456 267 460 267 q 449 260 449 267 q 453 257 449 257 q 460 261 460 257 m 447 283 q 440 288 447 288 q 435 283 435 288 q 440 279 435 279 q 447 283 447 279 m 154 381 q 150 386 154 386 q 146 381 146 386 q 150 374 146 374 q 154 381 154 374 m 732 388 q 740 383 736 383 q 743 386 743 383 q 740 392 743 389 q 732 394 738 394 q 726 393 726 394 q 732 388 726 393 m 750 433 q 754 436 754 433 q 747 442 754 442 q 743 438 743 442 q 750 433 743 433 m 468 451 q 473 456 471 451 q 475 464 475 461 q 471 460 472 461 q 468 456 469 457 q 467 453 467 454 q 468 451 467 451 m 197 460 q 190 464 197 464 q 186 461 186 464 q 193 456 186 456 q 197 460 197 456 m 733 486 q 729 492 733 492 q 726 488 726 492 q 729 481 726 481 q 733 485 732 481 l 733 486 m 494 550 q 497 543 494 543 q 503 550 503 543 q 500 556 503 553 q 496 558 497 558 q 494 550 494 558 m 135 668 q 140 672 138 668 q 143 678 143 675 q 142 679 143 679 q 133 669 133 679 l 133 668 l 135 668 m 117 685 q 119 683 118 683 q 126 686 126 683 l 125 688 l 122 688 q 117 686 117 688 l 117 685 m 178 790 q 183 793 183 790 q 176 799 183 799 q 172 794 172 799 q 178 790 172 790 m 201 850 q 196 857 201 857 q 193 853 193 857 q 197 846 193 846 q 201 850 201 846 m 747 858 q 740 871 744 868 l 738 871 q 735 869 735 871 q 742 857 735 867 q 747 851 746 851 l 747 853 l 747 858 m 640 931 q 633 936 640 936 q 628 933 628 936 q 631 928 628 931 q 636 925 633 925 q 640 931 640 925 m 439 942 q 432 946 439 946 q 425 942 425 946 q 432 936 425 936 q 439 942 439 936 m 524 561 q 525 448 524 494 q 528 367 526 401 q 532 309 531 333 q 533 263 533 285 q 539 218 533 240 q 553 176 544 196 q 574 143 563 157 q 599 125 586 129 q 612 115 606 122 q 625 107 618 107 q 638 101 632 107 q 650 94 643 94 q 653 98 653 94 q 656 117 654 101 q 657 166 657 133 q 657 258 657 199 l 657 472 q 657 671 657 596 q 656 787 657 746 q 655 843 656 828 q 651 863 654 858 q 638 876 650 867 q 610 894 625 885 q 581 912 594 904 q 564 919 568 919 q 553 926 553 919 q 558 938 553 931 q 569 951 563 944 q 580 962 575 957 q 586 967 585 967 q 594 972 589 967 q 606 982 600 976 q 618 992 613 988 q 625 997 624 997 q 634 1003 628 997 q 647 1015 640 1008 q 673 1036 660 1028 q 694 1044 686 1044 q 708 1038 699 1044 q 730 1025 718 1032 q 753 1012 742 1018 q 771 1006 764 1006 q 782 1001 779 1006 q 796 997 785 997 q 809 1001 807 997 q 821 1006 811 1006 q 869 1035 840 1006 q 883 1047 876 1042 q 890 1053 889 1053 q 904 1042 899 1053 q 910 1021 910 1032 q 903 1006 910 1015 q 889 988 897 996 q 872 973 881 979 q 857 967 863 967 q 840 956 849 967 q 822 931 831 946 q 809 899 814 915 q 804 868 804 882 q 808 849 804 851 q 812 765 811 847 q 813 525 813 683 l 813 203 l 801 181 q 775 149 790 158 q 744 122 760 139 q 732 111 738 115 q 724 107 726 107 q 715 101 722 107 q 701 88 708 94 q 686 74 693 81 q 678 68 679 68 q 663 56 676 68 q 631 29 649 44 q 556 -35 578 -17 q 522 -53 533 -53 q 512 -48 518 -53 q 499 -37 506 -43 q 488 -27 493 -32 q 479 -22 482 -22 q 471 -16 478 -22 q 456 -3 464 -10 q 441 10 447 4 q 432 17 435 17 q 422 22 426 17 q 411 28 418 28 q 380 14 399 28 q 339 -17 361 0 q 292 -49 317 -35 q 244 -62 268 -62 q 213 -55 229 -62 q 181 -38 197 -47 q 149 -22 165 -29 q 117 -14 133 -14 q 98 -24 104 -14 q 86 -47 92 -35 q 76 -70 81 -60 q 60 -81 71 -81 q 41 -72 54 -81 q 28 -53 28 -64 q 42 -19 28 -37 q 64 14 57 -1 q 76 43 72 32 q 83 67 81 54 q 85 99 85 81 q 86 150 86 118 l 86 183 q 82 287 86 250 q 78 339 78 324 q 72 365 78 350 q 58 395 67 381 q 40 421 50 410 q 22 435 31 432 q 14 446 14 438 q 24 469 14 456 q 45 494 33 482 q 68 517 57 507 q 81 532 79 528 q 86 564 86 542 q 85 586 86 578 q 82 605 83 594 q 79 633 81 615 q 78 683 78 651 q 76 737 78 719 q 73 765 75 754 q 69 784 71 775 q 68 813 68 793 q 64 840 68 835 q 60 857 60 844 q 35 892 60 867 l 8 917 l 29 938 q 44 952 38 946 q 54 958 51 958 q 63 965 57 958 q 78 978 69 971 q 93 991 86 985 q 101 997 100 997 q 118 1010 106 997 q 141 1028 128 1021 q 161 1036 154 1036 q 174 1028 165 1036 q 192 1009 183 1021 q 208 985 201 997 q 215 965 215 974 q 217 955 215 958 q 219 949 218 951 q 222 941 221 946 q 224 925 224 936 q 224 906 224 914 q 228 896 225 899 q 233 722 231 813 q 236 549 235 644 q 238 354 238 453 q 237 259 238 296 q 235 201 236 222 q 233 169 235 179 q 228 157 231 160 q 224 143 224 153 q 221 130 224 135 q 218 122 218 125 q 224 117 218 119 q 251 115 231 115 q 269 114 263 115 q 279 111 275 113 q 288 108 283 110 q 297 107 292 107 q 317 102 307 107 q 336 91 326 97 q 355 79 346 85 q 371 74 364 74 q 385 88 385 74 q 381 112 385 96 q 378 154 378 128 q 376 211 378 190 q 374 255 375 232 q 371 312 372 278 q 369 410 369 346 q 369 481 369 446 q 370 542 369 515 q 372 587 371 569 q 374 604 372 604 q 381 639 381 608 q 379 677 381 656 q 376 717 378 699 q 372 749 374 736 q 369 763 369 761 q 360 789 369 774 q 338 819 350 804 q 317 849 326 835 q 307 874 307 864 q 315 890 307 878 q 335 913 324 901 q 356 933 346 924 q 368 942 365 942 q 377 947 371 942 q 392 960 383 953 q 407 974 400 968 q 415 979 414 979 q 430 988 426 979 q 440 996 433 996 q 458 982 446 996 q 481 958 467 972 q 510 927 496 943 q 535 896 525 911 q 546 868 546 881 q 540 854 546 857 q 533 836 533 851 q 529 818 533 821 q 527 796 528 818 q 526 738 526 774 q 524 656 525 701 q 524 561 524 610 z "},"X":{"ha":797,"x_min":-47,"x_max":810,"o":"m 711 17 q 708 25 711 25 q 697 18 697 25 q 707 7 697 7 q 711 17 711 7 m 306 71 l 307 71 q 310 69 310 69 q 314 71 313 69 q 315 71 314 71 l 314 72 l 311 72 q 306 71 306 72 m 256 67 q 260 69 260 67 q 256 72 260 72 q 249 71 249 72 q 253 67 249 69 l 256 67 m 596 214 q 592 218 596 218 q 588 213 588 218 q 590 207 588 207 q 596 214 596 207 m 500 207 q 504 217 504 207 q 503 218 503 218 q 499 214 501 218 q 498 212 499 213 q 497 210 497 211 q 499 207 499 207 l 500 207 m 608 221 q 607 226 608 226 q 603 222 607 226 l 603 219 q 606 217 603 217 q 608 221 608 217 m 411 631 q 407 635 411 635 q 403 628 403 635 q 406 624 403 624 q 411 631 411 624 m 415 656 q 410 660 415 660 q 404 657 404 660 q 411 651 404 651 q 415 656 415 651 m 186 915 q 192 919 192 915 q 188 922 192 922 q 181 919 181 922 q 185 915 181 918 l 186 915 m 8 856 q 15 871 8 860 q 30 894 21 882 q 48 914 39 906 q 61 922 57 922 q 80 935 64 922 q 128 976 96 947 q 147 992 133 982 q 180 1013 161 1003 q 221 1031 199 1024 q 264 1039 243 1039 q 299 1031 282 1039 q 317 1014 304 1028 q 344 983 331 1000 q 367 946 357 965 q 378 914 378 926 q 382 903 378 913 q 390 884 386 894 q 399 865 394 874 q 403 853 403 856 q 409 838 403 846 q 415 824 415 831 q 420 805 415 819 q 432 775 425 790 q 445 747 439 760 q 456 735 451 735 q 472 751 461 735 q 494 790 483 768 q 513 834 504 813 q 521 865 521 856 q 518 869 521 869 q 506 874 517 869 q 484 885 496 879 q 461 897 472 892 q 447 906 450 903 q 446 910 446 907 q 453 924 446 917 q 464 931 461 931 q 486 947 469 931 q 523 981 503 963 q 564 1015 543 1000 q 599 1031 585 1031 q 611 1025 607 1031 q 642 1008 617 1017 q 696 1000 668 1000 q 719 1001 711 1000 q 734 1006 728 1001 q 746 1018 740 1010 q 760 1042 751 1026 q 774 1051 765 1051 q 798 1038 786 1051 q 810 1018 810 1024 q 800 1002 810 1014 q 778 978 790 990 q 753 957 765 967 q 735 947 740 947 q 725 942 732 947 q 710 930 718 936 q 695 917 703 924 q 683 908 688 911 q 642 885 656 896 q 617 857 628 874 q 605 835 614 854 q 583 791 596 817 q 556 735 569 765 q 529 678 542 704 q 509 631 517 651 q 501 604 501 611 q 509 564 501 578 q 521 528 517 550 q 532 502 524 517 q 540 476 540 488 q 544 465 540 468 q 549 456 549 463 q 553 444 549 454 q 564 422 558 435 q 574 397 569 410 q 579 376 579 385 q 590 349 579 364 q 600 321 600 333 q 603 309 600 318 q 613 289 607 300 q 633 245 628 260 q 639 225 639 231 q 653 188 639 211 q 675 154 668 165 q 688 138 678 149 q 708 117 697 128 q 729 99 719 107 q 740 90 739 90 q 751 86 743 90 q 769 76 760 82 q 787 64 779 69 q 794 56 794 58 q 785 35 794 47 q 762 13 775 24 q 737 -6 749 3 q 721 -19 725 -15 q 709 -31 714 -26 q 701 -35 704 -35 q 678 -49 692 -35 q 649 -64 664 -64 q 612 -52 632 -64 q 573 -24 592 -40 q 540 10 554 -7 q 521 36 525 26 q 510 52 518 44 q 501 67 501 60 q 498 77 501 69 q 491 94 494 85 q 484 112 488 104 q 481 122 481 119 q 476 135 481 126 q 454 179 471 144 q 448 194 450 186 q 446 204 446 201 q 439 232 446 218 q 424 260 432 246 q 410 288 417 274 q 403 315 403 301 q 399 328 403 319 q 390 344 394 336 q 380 358 385 351 q 372 364 375 364 q 365 355 371 364 q 353 331 360 346 q 337 297 346 317 q 318 258 328 278 q 269 153 296 213 q 277 143 269 150 q 294 129 285 136 q 313 117 304 122 q 325 111 322 111 q 334 107 328 111 q 348 97 340 103 q 361 85 356 90 q 367 78 367 81 q 342 46 367 71 q 269 -23 293 0 q 225 -46 244 -46 q 192 -28 210 -46 q 171 -13 185 -22 q 142 3 157 -4 q 115 15 128 10 q 96 21 101 21 q 82 24 86 21 q 74 26 78 26 q 53 18 64 26 q 35 -3 43 10 q 22 -30 28 -15 q 14 -56 17 -44 q -1 -67 13 -67 q -31 -58 -15 -67 q -47 -39 -47 -49 q -31 -19 -47 -36 q 7 18 -15 -3 q 53 60 29 39 q 90 94 76 82 q 114 111 110 111 q 131 124 118 111 q 147 138 143 138 q 168 158 154 138 q 199 209 182 178 q 236 278 217 240 q 272 350 256 315 q 301 413 289 385 q 319 450 314 440 q 327 474 324 457 q 331 508 331 492 q 324 535 331 526 q 317 554 317 543 q 314 562 317 556 q 308 575 311 568 q 303 590 306 582 q 300 603 300 597 q 295 614 300 604 q 285 636 290 624 q 274 661 279 649 q 269 682 269 674 q 265 699 269 690 q 255 719 260 708 q 245 738 250 729 q 240 756 240 747 q 235 768 240 758 q 225 790 231 778 q 215 813 219 803 q 210 826 210 824 q 201 844 210 832 q 193 860 193 856 q 185 874 193 865 q 167 890 178 882 q 147 903 157 897 q 133 908 138 908 q 109 905 119 908 q 89 892 99 901 q 70 865 79 882 q 50 822 61 849 q 42 815 47 818 q 32 811 36 811 q 28 815 28 811 q 18 834 28 819 q 8 856 8 849 z "},"Y":{"ha":668,"x_min":-33,"x_max":707,"o":"m 344 65 q 346 67 346 65 q 342 73 346 69 q 336 76 339 76 q 335 75 335 76 l 335 72 q 342 65 338 68 l 344 65 m 285 478 q 289 483 289 482 l 288 485 q 278 481 285 485 q 271 474 271 476 l 272 472 l 274 472 q 285 478 279 472 m 346 540 q 342 544 346 544 q 338 538 338 544 q 340 533 338 533 q 346 540 346 533 m 149 738 q 144 742 149 742 q 138 736 138 742 q 142 733 138 733 q 149 738 149 733 m 532 911 q 538 915 535 911 q 542 919 542 918 q 535 917 539 919 q 531 913 531 913 l 531 911 l 532 911 m 126 1043 q 151 1036 138 1043 q 178 1019 165 1029 q 199 999 190 1010 q 208 983 208 989 q 219 965 208 979 q 231 947 231 951 q 233 936 231 944 q 249 906 240 922 q 263 876 257 890 q 274 853 269 863 q 278 842 278 843 q 281 833 278 840 q 288 815 285 825 q 295 798 292 806 q 299 789 299 790 q 300 783 299 786 q 303 776 301 779 q 322 738 314 757 q 329 714 329 718 q 332 704 329 711 q 338 690 335 697 q 345 678 342 683 q 350 672 349 672 q 358 685 351 672 q 373 715 365 699 q 387 745 381 731 q 393 761 393 760 q 401 783 393 767 q 419 817 410 799 q 436 855 428 836 q 444 886 444 874 q 434 899 444 894 q 411 908 424 904 q 388 918 399 913 q 378 932 378 924 q 390 952 378 939 q 418 979 403 965 q 449 1005 433 993 q 468 1021 464 1017 q 485 1035 478 1029 q 494 1042 492 1042 q 504 1047 500 1042 q 515 1051 508 1051 q 538 1047 525 1051 q 565 1038 551 1043 q 590 1028 579 1032 q 603 1024 600 1024 q 623 1020 614 1024 q 643 1017 632 1017 q 664 1020 653 1017 q 686 1024 675 1024 l 690 1024 l 707 1022 l 669 990 q 629 955 644 968 q 606 935 614 942 q 596 927 599 929 q 592 925 593 925 q 580 917 589 925 q 561 897 571 908 q 543 876 551 886 q 533 861 535 865 q 522 831 531 850 q 507 806 513 813 q 486 767 504 803 q 444 686 468 732 l 389 574 l 392 515 q 394 439 393 481 q 394 357 394 397 q 394 268 394 308 q 390 214 393 228 q 377 167 386 183 q 368 135 368 150 q 365 121 368 126 q 363 113 363 115 q 370 108 363 110 q 401 107 378 107 q 447 102 432 107 q 485 81 463 97 q 500 60 500 68 q 494 48 500 57 q 479 31 488 39 q 431 -13 451 4 q 407 -31 410 -31 q 393 -39 400 -31 q 376 -47 386 -47 q 338 -35 358 -47 q 304 -22 318 -22 q 292 -18 299 -22 q 278 -14 285 -14 q 272 -17 275 -14 q 260 -22 267 -22 q 232 -35 249 -22 q 200 -49 215 -49 q 181 -38 190 -49 q 171 -21 171 -28 q 176 -10 171 -18 q 190 8 182 -1 q 218 47 206 25 q 231 78 231 68 q 235 90 231 88 q 239 103 239 92 q 243 118 239 117 q 247 158 246 119 q 247 246 247 197 q 246 309 247 286 q 243 347 244 332 q 240 376 242 363 q 239 410 239 389 q 235 451 239 435 q 221 488 232 467 q 215 501 218 494 q 213 510 213 507 q 207 525 213 513 q 194 552 201 538 q 182 579 188 567 q 176 596 176 592 q 172 608 176 596 q 160 633 167 619 q 149 658 154 646 q 144 669 144 669 q 140 685 144 675 q 131 708 136 696 q 119 730 125 719 q 111 747 114 740 q 48 870 75 832 q -4 908 21 908 q -19 915 -11 908 q -33 926 -28 922 q -16 942 -32 928 q 19 972 0 956 q 54 1002 38 989 q 75 1015 71 1015 q 97 1029 82 1015 q 126 1043 111 1043 z "},"Z":{"ha":675,"x_min":-21,"x_max":679,"o":"m 529 25 q 525 29 529 29 q 521 25 521 29 q 525 21 521 21 q 529 25 529 21 m 417 94 q 413 101 419 97 q 406 103 406 106 q 410 96 406 100 q 417 94 414 92 m 414 711 q 409 714 414 715 q 401 710 404 713 q 397 704 397 707 q 407 706 397 701 q 414 711 414 708 m 444 924 q 449 921 444 921 q 457 923 453 921 q 463 928 461 925 q 463 933 465 931 q 452 932 460 936 q 444 924 444 928 m 311 946 q 314 940 311 938 q 314 947 317 942 q 311 946 311 956 m 169 419 q 160 435 169 424 q 139 458 150 446 q 118 483 128 471 q 108 500 108 494 q 132 533 108 513 q 190 583 169 568 q 232 611 210 597 q 245 617 242 617 q 261 611 249 618 l 278 603 q 288 615 281 607 q 294 628 294 624 q 299 640 294 632 q 310 658 304 649 q 324 677 317 668 q 335 689 331 686 q 340 700 340 693 q 347 709 340 701 q 360 726 353 717 q 373 742 367 735 q 379 751 379 750 q 385 763 379 756 q 399 779 392 771 q 412 796 406 788 q 418 808 418 804 q 428 824 418 817 q 444 843 438 832 q 454 865 456 858 q 440 865 453 872 q 431 863 435 863 q 410 866 422 863 q 376 869 399 869 q 347 870 356 869 q 334 872 339 871 q 323 876 329 874 q 300 879 317 878 q 283 883 289 881 q 272 887 276 885 q 262 890 267 889 q 249 892 257 892 q 227 896 240 892 q 199 904 214 900 q 169 913 185 908 q 140 917 154 917 q 109 902 121 917 q 89 870 97 888 q 73 838 81 853 q 53 824 65 824 q 24 842 42 824 l 4 861 l 53 907 q 87 940 72 926 q 113 963 101 953 q 135 983 125 974 q 158 1000 146 992 q 183 1016 169 1008 q 210 1031 196 1024 q 235 1042 224 1038 q 250 1046 246 1046 q 263 1051 261 1046 q 276 1053 265 1056 q 329 1038 303 1046 q 379 1026 356 1031 q 391 1023 388 1025 q 397 1019 394 1021 q 403 1017 400 1018 q 415 1015 407 1015 q 432 1013 422 1015 q 456 1006 442 1010 q 489 1000 469 1003 q 535 997 508 997 q 592 1002 567 997 q 629 1007 617 1007 q 650 1013 644 1007 q 672 1018 656 1018 q 679 1013 679 1018 q 663 983 679 1004 q 626 940 646 963 q 589 899 606 918 q 572 872 572 879 q 560 855 572 868 q 547 838 547 842 q 535 810 547 826 q 508 774 524 793 q 477 738 492 756 q 457 710 463 721 q 447 697 454 704 q 439 685 439 690 q 431 665 439 678 q 412 639 422 653 q 392 614 401 625 q 383 597 383 603 q 379 589 383 596 q 371 574 375 582 q 363 559 367 565 q 358 550 358 553 q 372 538 358 544 q 394 531 385 531 q 415 527 403 531 q 440 524 426 524 q 487 542 471 524 q 507 590 503 561 q 526 622 511 622 q 550 607 536 622 q 564 581 564 592 q 553 563 564 576 q 530 537 543 550 q 504 513 517 524 q 488 501 492 501 q 479 495 486 501 q 465 482 472 489 q 451 469 457 475 q 442 463 444 463 q 426 451 438 463 q 360 410 396 418 q 278 392 324 401 q 261 371 272 390 q 224 299 250 351 q 191 233 204 261 q 178 204 178 206 q 173 188 178 199 q 163 167 168 178 q 153 147 158 157 q 149 129 149 136 q 153 121 149 121 q 165 124 158 121 q 178 133 172 128 q 188 138 185 138 q 197 140 190 138 q 211 146 204 142 q 240 151 218 149 q 288 153 261 153 q 338 151 315 153 q 368 146 361 149 q 381 140 375 142 q 390 138 388 138 q 408 130 393 138 q 442 114 424 122 q 478 98 461 106 q 497 90 494 90 q 516 86 510 90 q 543 79 522 82 l 572 75 l 589 93 q 597 106 592 96 q 609 128 603 117 q 622 149 615 140 q 631 158 628 158 q 651 144 640 158 q 663 113 663 129 q 653 98 663 110 q 633 73 644 86 q 611 49 622 60 q 596 39 600 39 q 586 31 594 39 q 568 15 578 24 q 551 -1 558 7 q 540 -8 543 -8 q 519 -21 533 -8 q 494 -39 506 -33 q 468 -51 476 -46 q 440 -57 460 -57 q 404 -52 422 -57 q 379 -47 386 -47 q 365 -43 368 -47 q 353 -39 363 -39 q 338 -35 350 -39 q 314 -24 326 -31 q 253 4 272 -4 q 228 13 233 13 q 217 17 221 13 q 203 21 214 21 q 190 22 194 21 q 183 25 186 24 q 174 28 179 26 q 161 29 169 29 q 112 24 136 29 q 66 9 88 18 q 27 -10 44 0 q 0 -31 10 -21 q -17 -40 -10 -40 q -21 -35 -21 -40 q -11 -4 -21 -24 q 7 35 0 18 q 20 69 14 53 q 33 103 26 86 q 47 140 39 119 q 52 152 50 147 q 54 160 54 157 q 64 192 54 174 q 81 226 74 210 q 92 249 83 233 q 108 281 100 264 q 124 315 117 299 q 131 336 131 331 q 137 357 131 347 q 150 376 143 367 q 163 397 157 386 q 169 419 169 407 z "},"[":{"ha":325,"x_min":57,"x_max":333,"o":"m 174 107 q 168 110 174 117 q 169 103 165 106 q 174 107 174 100 m 124 482 q 114 476 124 489 q 117 475 106 467 q 124 482 124 479 m 101 606 q 110 611 104 606 q 115 621 115 617 q 113 628 115 628 q 105 620 110 628 q 100 608 100 613 q 101 606 100 606 m 147 954 q 151 956 154 951 q 144 960 147 960 q 147 954 133 960 m 168 -249 q 157 -250 161 -249 q 147 -253 153 -251 q 133 -256 142 -254 q 110 -257 125 -257 l 67 -257 q 62 -236 64 -250 q 59 -198 60 -222 q 58 -135 58 -174 q 57 -40 57 -97 q 57 47 57 -11 q 58 179 57 104 q 59 340 58 254 q 60 513 60 426 q 63 953 61 715 q 74 973 65 964 q 92 990 82 982 q 110 1005 101 997 q 124 1021 119 1013 q 167 1059 135 1044 q 249 1074 200 1074 q 303 1072 276 1074 q 332 1068 331 1071 q 331 1063 333 1067 q 326 1054 329 1058 q 318 1047 322 1050 q 311 1044 314 1044 q 294 1032 308 1044 q 263 1003 279 1019 q 231 971 246 986 q 214 951 217 956 q 211 926 213 947 q 208 846 210 904 q 207 683 207 788 q 207 411 207 579 q 207 158 207 260 q 208 -6 207 56 q 210 -93 208 -67 q 213 -121 211 -119 q 254 -126 218 -126 q 296 -132 292 -126 q 298 -144 300 -137 q 290 -151 296 -151 q 283 -156 289 -151 q 272 -166 278 -161 q 260 -176 265 -171 q 253 -181 256 -181 q 239 -191 251 -181 q 212 -215 226 -201 q 184 -238 197 -228 q 168 -249 171 -249 z "},"\\":{"ha":917,"x_min":-10,"x_max":928,"o":"m -4 1024 q 38 996 7 1024 q 105 933 69 968 q 171 865 140 897 q 208 825 201 833 q 223 810 213 819 q 244 789 233 800 q 263 768 254 778 q 271 753 271 758 q 276 746 271 751 q 286 734 281 740 q 297 723 292 728 q 301 715 301 718 q 309 705 301 714 q 325 687 317 696 q 341 669 333 678 q 349 660 349 661 q 356 647 349 657 q 375 626 364 638 q 431 561 400 599 q 486 496 461 524 q 504 476 497 485 q 511 465 511 467 q 525 447 511 463 q 564 403 539 431 q 581 383 575 392 q 588 372 588 374 q 599 358 588 371 q 625 328 610 344 q 735 196 681 265 q 850 60 790 126 q 865 42 858 50 q 871 32 871 35 q 878 23 871 31 q 892 7 885 15 q 907 -10 900 -1 q 914 -19 914 -18 q 917 -26 914 -21 q 924 -36 921 -31 q 927 -46 926 -42 q 924 -50 928 -50 q 906 -38 921 -50 q 861 1 892 -26 q 844 16 851 10 q 833 22 836 22 q 810 44 831 22 q 765 92 789 65 q 720 141 740 118 q 700 167 700 164 q 694 175 700 168 q 681 190 688 182 q 667 204 674 197 q 661 213 661 211 q 653 228 661 218 q 633 251 644 239 q 613 272 622 263 q 599 286 603 282 q 585 301 594 290 q 564 322 575 311 q 544 344 553 333 q 536 360 536 356 q 528 369 536 361 q 513 387 521 378 q 497 404 504 396 q 489 414 489 413 q 483 424 489 417 q 471 439 478 431 q 431 485 442 472 q 421 500 421 497 q 392 535 421 503 q 318 618 363 568 q 302 637 308 629 q 296 647 296 644 q 291 655 296 649 q 280 668 286 661 q 268 681 274 675 q 263 689 263 688 q 255 700 263 692 q 239 717 247 708 q 223 735 231 726 q 215 744 215 743 q 202 761 215 746 q 172 794 189 776 q 142 828 156 813 q 129 844 129 843 q 124 852 129 846 q 112 865 118 858 q 100 878 106 872 q 94 886 94 885 q 88 895 94 888 q 74 911 82 903 q 59 927 65 919 q 53 936 53 935 q 44 949 53 939 q 24 971 35 958 q -3 1001 4 992 q -10 1015 -10 1010 q -8 1021 -10 1018 q -4 1024 -7 1024 z "},"]":{"ha":328,"x_min":-7,"x_max":269,"o":"m 186 -139 q 179 -133 186 -136 q 176 -136 171 -129 q 186 -139 186 -149 m 219 196 q 226 206 226 201 q 222 210 225 210 q 215 208 218 211 q 211 197 211 206 q 212 190 211 190 q 219 196 213 190 m 206 336 q 214 344 213 336 q 207 343 215 353 q 206 336 203 336 m 150 715 q 151 707 144 707 q 156 717 158 707 q 150 715 154 721 m 28 956 q 33 965 28 958 q 47 979 39 972 q 61 992 54 986 q 69 997 68 997 q 81 1005 71 997 q 101 1024 90 1013 q 163 1069 150 1069 q 181 1074 172 1069 q 215 1078 189 1078 q 251 1076 244 1078 q 263 1067 257 1074 q 265 1056 264 1064 q 267 1026 267 1049 q 268 965 268 1004 q 269 860 268 925 q 269 699 269 794 q 269 471 269 604 q 269 176 269 290 q 269 -6 269 61 q 267 -99 268 -72 q 264 -132 265 -126 q 242 -161 260 -142 q 202 -200 224 -181 q 161 -234 181 -219 q 135 -249 142 -249 q 111 -253 124 -249 q 61 -257 99 -257 q 11 -256 29 -257 q -7 -246 -7 -254 q 0 -234 -7 -240 q 11 -228 7 -228 q 22 -220 14 -228 q 38 -204 29 -212 q 56 -188 47 -196 q 65 -181 64 -181 q 74 -175 68 -181 q 88 -162 81 -169 q 103 -146 96 -154 q 113 -132 110 -137 q 115 -81 114 -129 q 117 47 117 -32 q 118 224 118 125 q 118 424 118 322 q 118 613 118 521 q 117 778 118 706 q 115 896 117 851 q 113 942 114 940 q 69 947 107 947 q 28 956 28 947 z "},"^":{"ha":499,"x_min":49,"x_max":446,"o":"m 349 836 q 310 860 331 836 q 268 914 289 885 q 228 967 247 943 q 194 992 208 992 q 166 976 185 992 q 127 940 147 960 q 88 905 107 921 q 58 889 69 889 q 52 892 56 889 q 56 894 49 894 q 67 910 61 894 q 81 931 69 917 q 106 960 92 944 q 133 986 121 975 q 150 997 146 997 q 163 1006 153 997 q 185 1026 174 1015 q 208 1047 197 1038 q 221 1056 218 1056 q 233 1062 225 1056 q 249 1075 240 1068 q 265 1088 257 1082 q 279 1094 274 1094 q 319 1074 296 1094 q 363 1029 342 1053 q 411 963 386 1000 q 428 939 411 956 l 446 921 l 407 882 q 371 847 383 858 q 349 836 358 836 z "},"_":{"ha":661,"x_min":-1,"x_max":614,"o":"m 422 -93 q 418 -89 422 -89 q 414 -93 414 -89 q 418 -97 414 -97 q 422 -93 422 -97 m 329 -74 q 334 -73 331 -75 q 341 -67 338 -71 q 347 -61 344 -64 q 344 -58 349 -58 q 332 -65 338 -58 q 329 -74 326 -71 m -1 -132 q 10 -116 -1 -129 q 36 -88 22 -103 q 63 -62 50 -74 q 76 -50 75 -50 q 86 -45 79 -50 q 101 -35 93 -40 q 117 -24 110 -29 q 126 -19 124 -19 q 139 -14 133 -19 q 173 -8 142 -11 q 249 -4 204 -6 q 345 -1 293 -3 q 442 1 397 0 q 517 1 486 1 q 551 1 549 1 q 601 -1 588 1 q 614 -7 614 -3 q 602 -28 614 -14 q 583 -42 590 -42 q 572 -49 581 -42 q 553 -67 564 -56 q 514 -101 531 -89 q 476 -119 497 -112 q 421 -126 454 -125 q 332 -129 388 -128 q 251 -131 293 -129 q 167 -133 208 -132 q 86 -136 125 -135 q 15 -137 47 -137 q -1 -132 -1 -137 z "},"a":{"ha":765,"x_min":-44,"x_max":796,"o":"m -44 -11 q -37 2 -44 -7 q -19 20 -29 11 q 1 36 -8 29 q 11 43 10 43 q 31 55 15 43 q 65 83 47 67 q 98 117 83 99 q 113 147 113 135 q 117 180 113 161 q 128 217 122 199 q 138 253 133 236 q 143 283 143 271 q 144 301 143 296 q 147 311 146 307 q 150 323 149 315 q 151 347 151 331 q 151 369 151 361 q 150 383 151 378 q 145 392 149 388 q 136 403 142 396 q 124 415 129 410 q 115 421 118 421 q 108 424 113 421 q 99 432 104 428 l 88 443 l 100 460 q 135 494 114 476 q 165 514 156 511 q 181 522 171 515 q 199 537 190 529 q 215 552 208 544 q 221 564 221 560 q 225 576 221 574 q 229 592 229 579 q 234 622 229 606 q 244 653 239 638 q 253 685 249 669 q 258 714 258 701 q 263 728 258 726 q 268 743 268 731 q 272 764 268 758 q 278 790 275 769 l 282 817 l 265 817 q 249 814 258 817 q 232 807 240 811 q 217 798 224 803 q 211 789 211 793 q 203 774 211 782 q 192 758 194 767 q 171 735 186 735 q 153 747 168 735 q 138 778 138 760 q 146 791 138 782 q 165 808 154 800 q 185 824 175 817 q 197 831 194 831 q 206 836 197 831 l 238 858 q 246 864 243 864 q 261 874 251 864 q 278 888 271 885 q 309 903 292 894 q 347 921 326 913 q 388 935 367 929 q 429 940 408 940 q 478 931 457 940 q 492 921 483 928 q 510 906 501 914 q 524 892 518 899 q 531 883 531 886 q 538 861 531 874 q 553 835 544 849 q 571 808 563 821 q 581 783 579 794 q 587 765 583 767 q 590 746 590 763 q 592 735 590 739 q 594 729 593 732 q 597 724 596 726 q 599 714 599 721 q 600 704 599 707 q 603 699 601 701 q 606 692 604 696 q 607 682 607 689 q 614 643 607 671 l 622 608 q 629 569 629 581 q 633 552 629 554 q 638 535 638 550 q 641 517 638 519 q 647 500 644 515 q 658 435 653 460 q 668 391 664 410 q 674 356 672 372 q 676 319 676 340 q 678 302 676 307 q 681 294 679 297 q 683 285 682 290 q 685 267 685 279 q 686 250 685 256 q 689 241 688 244 q 692 233 690 238 q 693 221 693 229 q 697 205 693 207 q 701 190 701 203 q 713 165 701 182 q 724 143 724 149 q 735 126 724 135 q 760 108 746 117 q 785 92 774 100 q 796 78 796 83 q 781 60 796 69 q 764 51 767 51 l 761 50 q 758 48 760 49 q 754 44 757 47 l 717 15 q 707 8 707 8 q 698 3 704 8 q 685 -8 692 -1 q 644 -25 667 -25 q 614 -13 631 -25 q 583 16 597 -1 q 558 53 568 33 q 547 90 547 74 q 543 104 547 101 q 539 122 539 107 q 538 138 539 133 q 535 146 536 142 q 532 155 533 150 q 531 172 531 160 q 528 194 531 175 q 522 236 526 214 q 513 276 518 258 q 500 293 507 293 q 482 286 496 293 q 456 281 475 282 q 396 279 438 279 q 357 281 371 279 q 335 283 343 282 q 319 286 326 285 q 301 288 313 288 q 278 274 289 288 q 260 242 268 261 q 248 201 253 224 q 243 163 243 179 q 249 137 243 149 q 264 125 254 125 q 274 120 267 125 q 290 108 282 115 q 305 92 299 100 q 311 76 311 83 q 302 56 311 67 q 281 36 293 46 q 256 19 268 26 q 236 6 243 11 q 226 -2 235 4 q 208 -14 218 -8 q 191 -24 199 -19 q 181 -29 183 -29 q 157 -20 169 -29 q 130 0 144 -11 q 100 20 115 11 q 69 29 85 29 q 44 20 61 29 q 26 4 26 11 q 22 -4 26 3 q 13 -18 18 -11 q 1 -31 7 -25 q -8 -36 -6 -36 q -30 -29 -15 -36 q -44 -11 -44 -22 m 388 800 q 383 804 388 804 q 378 800 381 804 q 382 796 375 796 q 388 800 388 796 m 490 410 q 486 419 490 414 q 482 435 482 424 q 478 458 482 444 q 472 488 475 472 q 465 518 468 504 q 461 542 461 532 q 453 579 461 556 q 444 615 444 603 q 441 631 444 622 q 433 650 438 640 q 426 668 429 660 q 422 682 422 676 q 419 690 422 683 q 413 704 417 697 q 406 717 410 711 q 401 724 403 724 q 394 716 399 724 q 386 698 390 708 q 378 676 382 688 q 375 658 375 665 q 371 647 375 649 q 367 635 367 644 q 356 597 367 621 q 344 557 344 574 q 340 544 344 546 q 336 531 336 542 q 326 486 336 515 q 315 435 315 457 q 314 421 315 425 q 311 413 313 417 q 308 403 310 408 q 307 385 307 397 q 302 360 307 365 q 297 344 297 356 q 303 336 297 336 q 318 342 310 336 q 329 349 326 349 q 339 355 331 349 q 356 368 347 361 q 373 381 365 375 q 382 388 381 388 q 403 396 390 388 q 432 404 415 404 q 451 401 443 404 q 468 397 458 397 q 483 401 476 397 q 490 410 490 406 m 521 671 q 515 675 521 675 q 508 671 508 675 q 515 667 508 667 q 521 671 521 667 m 521 601 q 517 611 521 611 q 513 607 513 611 q 515 599 513 603 q 519 595 517 596 q 521 601 521 594 m 568 578 q 564 585 568 585 q 560 578 560 585 q 564 572 560 572 q 568 578 568 572 m 578 518 q 568 525 578 525 q 562 523 563 525 q 564 518 561 521 q 570 513 567 515 q 574 511 574 511 q 578 518 578 511 m 174 443 q 168 447 174 447 q 164 443 164 447 q 168 439 164 439 q 174 443 174 439 m 518 419 q 526 419 521 417 q 524 421 532 421 q 518 419 517 421 m 521 385 q 517 389 521 388 q 511 388 514 390 q 515 383 510 383 q 521 385 521 383 m 250 74 q 244 78 250 78 q 238 74 238 78 q 244 69 238 69 q 250 74 250 69 m 625 38 q 628 32 625 29 q 628 40 631 35 q 625 38 625 49 z "},"b":{"ha":633,"x_min":1,"x_max":608,"o":"m 44 -26 q 52 -11 44 -19 q 64 -3 60 -3 q 79 10 68 -3 q 97 35 90 24 q 100 65 100 38 q 100 128 100 92 q 100 181 100 153 q 99 232 100 208 q 97 274 99 256 q 94 300 96 293 q 85 333 92 315 q 70 367 78 351 q 55 392 63 382 q 43 401 47 401 q 31 408 36 401 q 18 414 26 414 q 1 422 1 414 q 9 438 1 429 q 27 456 17 447 q 47 469 38 464 q 61 475 57 475 q 76 485 65 475 q 94 506 88 496 q 99 515 97 510 q 101 531 100 519 q 101 560 101 542 q 101 608 101 579 q 101 662 101 640 q 99 698 100 683 q 94 722 97 713 q 88 739 92 731 q 85 751 85 747 q 80 762 85 754 q 67 778 75 769 q 53 794 60 786 q 42 804 46 801 q 8 829 8 824 q 19 839 8 831 q 42 857 29 847 q 65 875 54 867 q 78 883 76 883 q 85 888 81 883 l 108 904 q 118 910 111 907 q 133 918 125 914 q 147 925 140 922 q 156 928 154 928 q 185 919 171 928 q 212 899 200 910 q 231 876 224 888 q 239 857 239 864 q 250 844 239 844 q 276 853 260 844 q 310 874 293 863 q 341 897 326 886 q 361 911 356 907 q 422 932 393 932 q 477 918 451 932 q 522 881 503 904 q 551 829 540 858 q 561 771 561 800 q 552 711 561 740 q 526 658 543 682 q 510 631 510 638 q 497 617 510 625 q 485 601 485 608 q 478 593 485 594 q 471 585 471 592 q 459 569 471 578 q 444 553 447 560 l 444 549 q 448 544 444 544 q 464 543 451 543 q 545 519 507 543 q 593 463 583 494 q 595 438 594 460 q 597 390 596 415 q 601 342 599 364 q 604 318 603 321 q 608 295 607 315 q 608 247 608 275 l 608 182 l 585 158 q 566 142 574 149 q 556 135 558 135 q 535 122 554 135 q 495 92 517 108 q 454 60 474 75 q 432 43 435 46 q 418 32 425 36 q 410 28 411 28 q 401 22 410 28 l 369 -1 q 361 -7 361 -7 q 340 -22 353 -7 q 314 -36 326 -36 q 285 -28 303 -36 q 250 -8 268 -19 q 217 11 232 3 q 196 19 203 19 q 181 23 186 19 q 168 26 176 26 q 124 4 144 26 q 92 -40 103 -18 q 74 -51 86 -51 q 53 -44 63 -51 q 44 -26 44 -37 m 411 669 q 399 722 411 696 q 369 770 388 749 q 327 805 350 792 q 282 818 304 818 q 256 808 261 818 q 250 761 250 799 q 251 706 250 739 q 251 624 251 672 l 251 560 q 253 474 251 507 q 260 442 254 442 q 296 465 272 442 q 343 519 319 489 q 385 576 367 549 q 403 613 403 604 q 407 637 403 622 q 411 669 411 651 m 517 746 q 522 749 522 746 q 513 758 522 758 q 510 753 510 758 q 517 746 510 746 m 124 688 l 125 688 q 128 686 128 686 q 132 688 131 686 q 133 688 132 688 l 132 689 l 129 689 q 124 688 124 689 m 192 440 q 188 444 192 444 q 183 440 183 444 q 188 436 183 436 q 192 440 192 436 m 251 143 q 269 139 257 140 q 294 136 281 138 q 319 135 307 135 q 338 135 331 135 q 374 120 347 135 q 429 86 401 106 q 443 81 436 81 q 454 129 454 81 l 454 146 q 453 190 454 178 q 450 210 451 201 q 447 233 449 219 q 444 279 446 246 q 444 317 444 303 q 442 340 443 332 q 438 354 440 349 q 432 367 436 360 q 388 408 418 390 q 324 426 357 426 q 265 406 290 426 l 251 394 l 251 143 m 493 290 q 500 296 500 290 q 494 299 500 299 q 489 294 489 299 q 493 290 489 290 m 540 221 q 538 225 540 225 q 533 218 533 225 q 536 217 533 217 q 540 221 540 217 m 538 193 l 539 193 q 542 192 542 192 q 546 193 544 192 q 547 193 546 193 l 546 194 l 543 194 q 538 193 538 194 m 144 186 q 140 190 144 190 q 133 185 133 190 q 138 182 133 182 q 144 186 144 182 m 293 101 q 289 107 293 107 q 286 103 286 107 q 289 96 286 96 q 293 100 292 96 l 293 101 z "},"c":{"ha":656,"x_min":-26,"x_max":688,"o":"m 229 524 q 231 503 229 510 q 235 493 233 497 q 239 483 238 489 q 240 461 240 476 q 242 443 240 449 q 244 434 243 438 q 247 426 246 431 q 249 413 249 422 q 253 394 249 397 q 257 378 257 392 q 262 364 257 367 q 267 351 267 361 q 276 319 267 343 q 297 272 285 296 q 320 230 308 249 q 338 211 332 211 q 343 247 343 211 q 343 272 343 258 q 342 304 343 286 l 338 390 l 308 417 q 288 438 296 428 q 279 450 279 447 q 288 463 279 454 q 306 481 296 471 q 324 500 315 492 q 335 513 333 508 q 338 529 338 517 q 339 569 339 542 q 339 612 339 588 q 338 668 339 636 l 335 811 l 353 832 q 369 846 356 835 q 399 869 383 857 q 429 892 415 882 q 444 901 443 901 q 465 913 456 901 q 490 925 475 925 q 515 920 501 925 q 544 909 529 915 q 572 898 558 903 q 599 893 586 893 q 617 899 610 893 q 630 913 624 906 q 643 926 636 919 q 661 932 650 932 q 680 927 672 932 q 688 911 688 922 q 681 899 688 906 q 664 885 674 892 q 644 872 654 878 q 629 860 635 865 q 597 832 615 846 q 557 806 578 818 q 515 787 536 794 q 472 778 493 779 l 444 775 l 442 721 q 439 688 440 700 q 438 665 438 675 q 439 653 438 657 q 440 639 440 650 q 439 569 440 618 q 436 459 438 519 q 433 335 435 399 q 432 219 432 271 q 433 148 432 175 q 438 118 435 121 q 443 107 443 115 q 451 96 443 101 q 469 85 458 90 q 494 77 481 81 q 518 74 507 74 q 577 94 551 74 q 614 147 603 115 q 624 170 619 165 q 640 175 629 175 q 663 166 649 175 q 676 146 676 157 q 665 131 676 143 q 641 104 654 118 q 615 79 628 90 q 597 68 601 68 q 588 61 596 68 q 569 47 579 54 q 550 32 558 39 q 539 25 542 25 q 526 17 533 25 q 514 7 519 10 q 485 -8 501 1 q 450 -25 468 -17 q 415 -39 432 -33 q 386 -44 399 -44 q 338 -33 367 -44 q 288 -7 310 -22 q 260 15 278 -1 q 226 47 243 31 q 197 78 210 64 q 185 96 185 93 q 181 103 185 103 q 163 124 175 103 q 138 173 150 146 q 115 226 125 200 q 104 260 106 251 q 91 311 100 286 q 68 357 82 336 q 35 392 54 378 q -10 410 15 406 q -26 417 -26 413 q -20 425 -26 419 q -6 438 -14 431 q 10 449 3 444 q 19 454 18 454 q 35 465 25 454 q 57 488 46 475 q 76 513 68 501 q 85 528 85 525 q 90 543 85 542 q 94 558 94 544 q 103 593 94 575 q 111 624 111 611 q 117 640 111 626 q 133 669 124 653 q 151 702 142 686 q 164 726 160 718 q 198 774 178 750 q 242 819 218 797 q 290 858 265 840 q 335 888 314 875 q 361 903 349 894 q 378 911 374 911 l 379 910 q 374 903 379 910 q 363 888 369 896 q 352 872 357 879 q 347 864 347 865 q 341 857 347 858 q 335 849 335 856 q 326 835 335 842 q 315 822 318 829 q 300 797 310 813 q 281 765 290 782 q 264 730 271 747 q 257 700 257 713 q 253 685 257 688 q 249 672 249 683 q 244 656 249 660 q 240 633 240 653 q 239 620 240 632 q 235 592 238 608 q 231 557 233 575 q 229 524 229 539 m 394 740 q 391 744 394 743 q 385 743 388 746 q 389 739 383 739 q 394 740 394 739 m 163 549 q 158 558 163 558 q 154 554 154 558 q 156 547 154 550 q 160 542 158 543 q 163 549 163 542 m 138 476 q 131 481 138 481 q 127 476 124 481 q 133 472 131 472 q 138 476 138 472 m 138 440 q 144 442 142 438 q 140 446 147 446 q 138 440 131 446 m 214 253 q 210 257 214 257 q 204 253 207 257 q 208 249 201 249 q 214 253 214 249 m 335 189 q 331 193 335 193 q 326 189 326 193 q 331 183 326 183 q 335 189 335 183 m 325 32 q 328 33 332 29 q 322 38 325 38 q 325 32 311 38 z "},"d":{"ha":667,"x_min":-10,"x_max":617,"o":"m 124 113 q 122 136 124 128 q 119 153 121 144 q 117 178 118 163 q 115 225 115 194 q 115 269 115 251 q 112 298 114 286 q 108 319 110 310 q 104 339 107 328 q 92 360 103 347 q 69 385 82 374 q 44 404 57 396 q 22 413 31 413 q 17 419 13 413 q 36 438 21 426 q 60 453 44 443 q 86 475 75 464 l 114 500 l 114 563 l 113 688 l 113 750 l 96 753 q 58 765 78 757 q 24 783 39 774 q 0 801 10 792 q -10 818 -10 811 q 3 838 -10 825 q 22 850 15 850 q 31 856 22 850 l 61 879 l 69 885 q 80 890 72 885 q 97 903 88 896 q 113 915 106 910 q 125 921 121 921 q 171 897 136 921 q 223 874 190 885 q 288 863 256 863 q 321 867 307 863 q 416 897 374 882 q 489 924 458 913 q 514 928 501 928 q 564 909 542 928 q 596 858 586 890 q 604 830 601 842 q 609 802 607 818 q 613 763 611 786 q 615 701 614 739 q 616 606 615 663 q 617 465 617 549 l 617 300 q 616 192 617 222 q 613 157 615 161 q 603 144 611 153 q 585 128 594 136 q 569 113 576 119 q 558 107 561 107 q 549 100 558 107 l 511 71 q 492 58 503 63 l 458 31 q 449 25 447 25 l 446 24 q 443 22 444 22 q 439 18 442 21 l 399 -15 q 388 -23 394 -18 q 372 -33 381 -28 q 357 -41 364 -37 q 347 -44 350 -44 q 315 -34 326 -44 q 290 -18 303 -24 q 238 12 263 -6 q 172 29 213 29 q 128 10 144 29 q 100 -29 111 -10 q 85 -56 89 -49 q 75 -64 81 -64 q 49 -49 60 -64 q 38 -32 38 -35 q 47 -15 38 -24 q 71 8 56 -6 q 96 31 86 21 q 112 51 106 40 q 121 76 118 63 q 124 113 124 90 m 476 892 q 483 893 481 889 q 479 897 486 897 q 476 892 469 897 m 528 867 q 531 860 528 858 q 531 868 533 863 q 528 867 528 876 m 549 831 q 553 832 554 829 q 549 838 553 835 q 543 842 546 840 q 542 838 540 843 q 549 831 544 833 m 425 833 q 421 842 425 842 q 417 838 417 842 q 419 830 417 833 q 423 826 421 826 q 425 833 425 826 m 481 817 q 476 822 481 819 q 472 818 472 825 q 476 813 472 813 q 481 817 481 813 m 364 813 q 340 806 353 813 q 317 799 328 799 q 295 791 308 799 q 276 775 282 783 q 274 763 275 771 q 271 736 272 756 q 269 682 269 717 q 269 589 269 647 q 271 492 269 525 q 274 441 272 460 q 276 407 275 422 q 278 363 278 392 q 276 326 278 336 q 274 307 275 315 q 271 284 272 299 q 269 233 269 269 l 269 156 l 293 153 q 367 133 333 149 q 431 101 401 117 q 445 90 442 96 q 457 85 449 85 q 462 126 460 85 q 464 233 464 168 q 463 390 464 304 q 460 551 463 476 q 456 726 458 639 q 450 739 450 732 q 442 763 450 750 q 423 788 435 776 q 396 806 411 799 q 364 813 381 813 m 208 719 q 208 725 211 722 q 201 729 206 728 q 192 731 196 731 q 188 726 188 731 q 197 720 188 724 q 208 719 206 717 m 549 663 q 553 664 554 661 q 549 669 553 667 q 543 674 546 672 q 542 669 540 675 q 549 663 544 665 m 222 515 q 217 519 222 519 q 210 515 210 519 q 217 511 210 511 q 222 515 222 511 m 179 335 q 175 341 179 338 q 171 338 171 344 q 175 331 171 331 q 179 335 179 331 m 181 319 q 189 319 183 317 q 186 321 194 321 q 181 319 179 321 m 551 214 q 555 218 558 214 q 549 222 551 222 q 544 218 544 222 q 551 214 544 214 m 196 174 q 200 181 203 181 q 193 178 197 181 q 185 173 189 176 q 183 168 181 169 q 196 174 188 165 m 339 89 q 335 94 339 94 q 328 90 332 94 q 332 85 325 85 q 339 89 339 85 m 353 -8 q 361 -8 356 -11 q 358 -6 367 -6 q 353 -8 350 -6 z "}}}
